STARTFONT 2.1
COMMENT
COMMENT Converted from OpenType font "Roboto-ThinItalic.ttf" by "otf2bdf 3.0".
COMMENT
FONT -FreeType-Roboto Thin-Medium-I-Normal--66-480-100-100-P-322-ISO10646-1
SIZE 48 100 100
FONTBOUNDINGBOX 123 86 -48 -18
STARTPROPERTIES 19
FOUNDRY "FreeType"
FAMILY_NAME "Roboto Thin"
WEIGHT_NAME "Medium"
SLANT "I"
SETWIDTH_NAME "Normal"
ADD_STYLE_NAME ""
PIXEL_SIZE 66
POINT_SIZE 480
RESOLUTION_X 100
RESOLUTION_Y 100
SPACING "P"
AVERAGE_WIDTH 322
CHARSET_REGISTRY "ISO10646"
CHARSET_ENCODING "1"
FONT_ASCENT 62
FONT_DESCENT 16
COPYRIGHT "Copyright 2011 The Roboto Project Authors (https://github.com/googlefonts/roboto-classic)"
_OTF_FONTFILE "Roboto-ThinItalic.ttf"
_OTF_PSNAME "Roboto-ThinItalic"
ENDPROPERTIES
CHARS 922
STARTCHAR 0000
ENCODING 0
SWIDTH 0 0
DWIDTH 0 0
BBX 0 0 0 0
BITMAP
ENDCHAR
STARTCHAR 0002
ENCODING 2
SWIDTH 0 0
DWIDTH 0 0
BBX 0 0 0 0
BITMAP
ENDCHAR
STARTCHAR 000D
ENCODING 13
SWIDTH 225 0
DWIDTH 15 0
BBX 0 0 0 0
BITMAP
ENDCHAR
STARTCHAR 0020
ENCODING 32
SWIDTH 225 0
DWIDTH 15 0
BBX 0 0 0 0
BITMAP
ENDCHAR
STARTCHAR 0021
ENCODING 33
SWIDTH 180 0
DWIDTH 12 0
BBX 10 47 2 0
BITMAP
00C0
00C0
0080
0180
0180
0180
0180
0100
0100
0300
0300
0300
0300
0200
0600
0600
0600
0600
0600
0400
0C00
0C00
0C00
0C00
0C00
0800
1800
1800
1800
1800
1800
1000
3000
3000
0000
0000
0000
0000
0000
0000
0000
0000
0000
0000
E000
E000
E000
ENDCHAR
STARTCHAR 0022
ENCODING 34
SWIDTH 240 0
DWIDTH 16 0
BBX 10 13 8 37
BITMAP
20C0
60C0
6080
6180
6180
6180
4180
C180
C100
C300
C300
8300
8300
ENDCHAR
STARTCHAR 0023
ENCODING 35
SWIDTH 525 0
DWIDTH 35 0
BBX 38 47 1 0
BITMAP
0000080060
0000180040
00001800C0
00001000C0
0000300080
0000300180
0000200180
0000600300
0000600300
0000C00300
0000C00600
0000C00600
0001800600
07FFFFFFFC
07FFFFFFFC
0003000C00
0003001800
0003001800
0006001800
0006003000
0006003000
000C002000
000C006000
0008006000
0018004000
001800C000
001000C000
0030018000
0030018000
0020018000
0060030000
0060030000
FFFFFFFF80
FFFFFFFF80
00C0060000
0180060000
01800C0000
01800C0000
03000C0000
0300180000
0300180000
0600100000
0600300000
0600300000
0C00200000
0C00600000
0800600000
ENDCHAR
STARTCHAR 0024
ENCODING 36
SWIDTH 525 0
DWIDTH 35 0
BBX 31 61 3 -7
BITMAP
00000C00
00000800
00001800
00001800
00001800
00001800
0001FF00
0007FFC0
001E00E0
00780030
00E00018
00C0001C
0180000C
0300000C
03000006
06000006
06000006
06000006
06000006
04000006
04000000
06000000
06000000
06000000
03000000
01800000
00C00000
00700000
003C0000
000F8000
0003E000
00007800
00001E00
00000700
00000380
000001C0
000000C0
00000060
00000060
00000020
00000030
80000020
80000020
80000060
C0000060
C0000060
C00000C0
C00000C0
60000180
70000300
38000E00
1C001C00
0F80F800
03FFE000
003C0000
00080000
00180000
00180000
00180000
00180000
00180000
ENDCHAR
STARTCHAR 0025
ENCODING 37
SWIDTH 720 0
DWIDTH 48 0
BBX 37 49 6 -1
BITMAP
00FC000000
03FF000000
0703000000
0C01800000
1800C00000
3000C00000
3000C00080
6000C00180
6000C00300
6000C00600
4000C00E00
4000C00C00
C000C01800
C001803000
C001807000
C001806000
400300C000
6006018000
700E030000
381C070000
1FF0060000
07C00C0000
0000180000
0000380000
0000300000
0000600000
0000C00000
0001803FC0
0003807DE0
000300C030
0006018010
000C030018
001C060018
0018060008
0030040008
00600C0008
00C00C0018
01C00C0018
0180080018
0300080018
0600080010
0E00080030
0C00080030
00000C0060
00000C00C0
00000601C0
0000038780
000001FE00
0000007000
ENDCHAR
STARTCHAR 0026
ENCODING 38
SWIDTH 585 0
DWIDTH 39 0
BBX 34 49 2 -1
BITMAP
00007E0000
0003FF8000
000701C000
000E00E000
0018006000
0018003000
0030003000
0030003000
0060003000
0060002000
0060006000
0060006000
006000C000
0060018000
0060030000
0060060000
00200C0000
0030380000
0010700000
0018C00000
000B800000
000F000000
001E000000
003F000000
0063000000
00C1800000
0380C00000
0700C000C0
0E006000C0
0C003000C0
1800300080
3000180180
30000C0180
60000E0300
6000060300
4000030700
C000018600
C000018C00
C00000CC00
C000007800
C000007000
6000007000
600000D800
3000018C00
3800070C00
1C001C0600
0F80F80300
03FFE00300
001C000000
ENDCHAR
STARTCHAR 0027
ENCODING 39
SWIDTH 150 0
DWIDTH 10 0
BBX 4 13 7 37
BITMAP
30
30
30
30
20
60
60
60
60
40
C0
C0
C0
ENDCHAR
STARTCHAR 0028
ENCODING 40
SWIDTH 285 0
DWIDTH 19 0
BBX 19 68 4 -15
BITMAP
000020
000060
0000C0
000380
000700
000E00
000C00
001800
003000
006000
006000
00C000
00C000
018000
018000
030000
030000
060000
060000
0C0000
0C0000
0C0000
180000
180000
180000
300000
300000
300000
200000
600000
600000
600000
600000
400000
400000
C00000
C00000
C00000
C00000
C00000
C00000
C00000
C00000
800000
800000
800000
800000
C00000
C00000
C00000
C00000
C00000
C00000
C00000
400000
600000
600000
600000
200000
300000
300000
180000
180000
0C0000
060000
070000
038000
018000
ENDCHAR
STARTCHAR 0029
ENCODING 41
SWIDTH 285 0
DWIDTH 19 0
BBX 19 68 -4 -15
BITMAP
002000
003000
001800
000C00
000600
000600
000300
000100
000180
000180
000080
0000C0
0000C0
000040
000040
000060
000060
000060
000060
000060
000060
000060
000060
000020
000020
000060
000060
000060
000060
000060
000060
000060
000060
000060
000040
0000C0
0000C0
0000C0
0000C0
000080
000180
000180
000180
000100
000300
000300
000200
000600
000600
000C00
000C00
000C00
001800
001800
003000
003000
006000
00E000
00C000
018000
038000
030000
060000
0C0000
180000
700000
E00000
800000
ENDCHAR
STARTCHAR 002A
ENCODING 42
SWIDTH 405 0
DWIDTH 27 0
BBX 25 25 4 22
BITMAP
00020000
00060000
00060000
00060000
00060000
00040000
00040000
000C0000
400C0180
F00C0780
3E0C3E00
0F89F000
01FF8000
003E0000
00380000
006C0000
00E60000
01C60000
01830000
03030000
06018000
0C00C000
1800C000
38006000
30006000
ENDCHAR
STARTCHAR 002B
ENCODING 43
SWIDTH 540 0
DWIDTH 36 0
BBX 31 34 3 5
BITMAP
00006000
00006000
00006000
00004000
0000C000
0000C000
0000C000
0000C000
0000C000
00008000
00018000
00018000
00018000
00018000
00018000
00010000
FFFFFFFE
FFFFFFFE
00030000
00030000
00030000
00020000
00060000
00060000
00060000
00060000
00040000
000C0000
000C0000
000C0000
000C0000
000C0000
00080000
00180000
ENDCHAR
STARTCHAR 002C
ENCODING 44
SWIDTH 180 0
DWIDTH 12 0
BBX 6 13 -1 -8
BITMAP
0C
0C
0C
08
18
18
18
30
30
60
60
C0
80
ENDCHAR
STARTCHAR 002D
ENCODING 45
SWIDTH 285 0
DWIDTH 19 0
BBX 15 2 2 21
BITMAP
FFFE
FFFE
ENDCHAR
STARTCHAR 002E
ENCODING 46
SWIDTH 195 0
DWIDTH 13 0
BBX 3 3 2 0
BITMAP
E0
E0
E0
ENDCHAR
STARTCHAR 002F
ENCODING 47
SWIDTH 360 0
DWIDTH 24 0
BBX 29 51 -2 -4
BITMAP
00000018
00000030
00000030
00000060
00000060
000000C0
000000C0
00000180
00000300
00000300
00000600
00000600
00000C00
00000C00
00001800
00001800
00003000
00003000
00006000
0000C000
0000C000
00018000
00018000
00030000
00030000
00060000
00060000
000C0000
000C0000
00180000
00300000
00300000
00600000
00600000
00C00000
00C00000
01800000
01800000
03000000
03000000
06000000
0C000000
0C000000
18000000
18000000
30000000
30000000
60000000
60000000
C0000000
80000000
ENDCHAR
STARTCHAR 0030
ENCODING 48
SWIDTH 525 0
DWIDTH 35 0
BBX 30 49 3 -1
BITMAP
0001FE00
0007FF80
001E00E0
00380070
00700030
00E00018
00C00018
0180000C
0300000C
0300000C
0600000C
06000004
0C000004
0C000004
0C000004
18000004
18000004
18000004
1000000C
3000000C
3000000C
3000000C
3000000C
30000008
20000018
60000018
60000018
60000018
60000018
60000030
40000030
40000030
C0000030
C0000060
C0000060
C0000060
400000C0
400000C0
40000180
60000180
60000300
60000300
30000600
30000C00
18001800
0C007000
0783E000
03FF8000
00380000
ENDCHAR
STARTCHAR 0031
ENCODING 49
SWIDTH 525 0
DWIDTH 35 0
BBX 16 48 10 0
BITMAP
0001
000E
003E
01F6
0F86
7C06
E006
8004
0004
000C
000C
000C
000C
0008
0008
0018
0018
0018
0018
0010
0030
0030
0030
0030
0030
0020
0060
0060
0060
0060
0060
0040
00C0
00C0
00C0
00C0
0080
0080
0180
0180
0180
0180
0100
0300
0300
0300
0300
0300
ENDCHAR
STARTCHAR 0032
ENCODING 50
SWIDTH 525 0
DWIDTH 35 0
BBX 31 48 2 0
BITMAP
0001FE00
0007FFC0
001E00E0
00380070
00600018
00C00018
0180000C
0380000C
03000004
06000006
06000006
04000006
0C000004
0C00000C
0000000C
0000000C
00000018
00000018
00000030
00000030
00000060
000000C0
000001C0
00000380
00000300
00000600
00000C00
00001800
00003000
00006000
0000C000
00018000
00030000
00060000
000C0000
00180000
00300000
00600000
00C00000
01800000
03000000
06000000
0C000000
18000000
30000000
60000000
FFFFFFF0
FFFFFFE0
ENDCHAR
STARTCHAR 0033
ENCODING 51
SWIDTH 525 0
DWIDTH 35 0
BBX 31 49 2 -1
BITMAP
0000FF00
0007FFC0
001E00F0
00380038
0070001C
00C0000C
01C00006
01800006
03000006
03000002
06000002
06000002
06000002
00000006
00000006
00000006
0000000C
0000001C
00000018
00000070
000000E0
000003C0
00001F00
000FFC00
000FFE00
00000780
000001C0
000000E0
00000070
00000030
00000010
00000018
00000018
00000018
00000018
C0000018
C0000018
C0000030
C0000030
C0000030
60000060
600000E0
300000C0
38000180
1C000700
0E000E00
07C07800
01FFE000
001F0000
ENDCHAR
STARTCHAR 0034
ENCODING 52
SWIDTH 525 0
DWIDTH 35 0
BBX 32 47 2 0
BITMAP
00000018
00000038
00000078
000000D8
00000198
00000390
00000330
00000630
00000C30
00001830
00003830
00007020
00006060
0000C060
00018060
00030060
00070060
000E0040
000C00C0
001800C0
003000C0
006000C0
00E000C0
00C00080
01800180
03000180
06000180
0E000180
1C000100
18000300
30000300
60000300
FFFFFFFF
FFFFFFFF
00000200
00000600
00000600
00000600
00000600
00000600
00000400
00000C00
00000C00
00000C00
00000C00
00000C00
00000800
ENDCHAR
STARTCHAR 0035
ENCODING 53
SWIDTH 525 0
DWIDTH 35 0
BBX 31 48 5 -1
BITMAP
007FFFFE
00C00000
00C00000
00C00000
00800000
01800000
01800000
01800000
01000000
03000000
03000000
02000000
02000000
06000000
06000000
04000000
04000000
0C0FC000
0CFFF800
0BE01E00
0F000700
1C000380
08000180
000000C0
000000C0
00000040
00000060
00000060
00000060
00000060
00000060
00000060
00000060
00000040
000000C0
800000C0
800000C0
80000180
C0000180
C0000300
C0000300
60000600
60000C00
30001800
1C007000
0F01E000
03FF8000
00380000
ENDCHAR
STARTCHAR 0036
ENCODING 54
SWIDTH 525 0
DWIDTH 35 0
BBX 29 49 3 -1
BITMAP
000003F0
00001FF0
0000F800
0001C000
00070000
000E0000
001C0000
00300000
00600000
00C00000
01C00000
01800000
03000000
03000000
06000000
04000000
0C000000
0C07F800
183FFF00
18F00380
19C001C0
330000C0
36000060
3C000030
38000030
70000030
70000010
60000018
60000018
60000018
40000018
40000018
C0000010
C0000030
C0000030
C0000030
C0000060
C0000060
40000060
600000C0
600001C0
30000180
30000300
18000600
1C000E00
0E003800
03C0F000
01FFC000
001C0000
ENDCHAR
STARTCHAR 0037
ENCODING 55
SWIDTH 525 0
DWIDTH 35 0
BBX 29 47 7 0
BITMAP
FFFFFFF8
00000018
00000030
00000020
00000060
000000C0
000000C0
00000180
00000100
00000300
00000600
00000600
00000C00
00000800
00001800
00003000
00003000
00006000
00004000
0000C000
00018000
00018000
00030000
00030000
00060000
00040000
000C0000
00180000
00180000
00300000
00200000
00600000
00C00000
00C00000
01800000
01000000
03000000
06000000
06000000
0C000000
08000000
18000000
30000000
30000000
60000000
60000000
C0000000
ENDCHAR
STARTCHAR 0038
ENCODING 56
SWIDTH 525 0
DWIDTH 35 0
BBX 32 49 2 -1
BITMAP
0000FF80
0007FFE0
000F0070
003C0018
0070000C
00E00006
00C00006
01800003
03000003
03000003
02000003
06000003
06000003
06000003
06000003
06000006
06000006
0600000C
03000018
03800030
01C00060
00E001C0
003C0F00
001FFC00
007FFE00
01E00780
038001C0
0E000060
1C000030
18000030
30000018
60000018
60000008
C0000008
C0000008
C0000018
C0000018
80000018
80000018
C0000030
C0000030
C0000060
600000C0
70000180
38000700
1C001E00
0F80F800
03FFE000
001C0000
ENDCHAR
STARTCHAR 0039
ENCODING 57
SWIDTH 525 0
DWIDTH 35 0
BBX 28 49 5 -1
BITMAP
000FF000
003FFE00
00F00700
01C00380
038001C0
070000C0
0E000060
0C000060
18000030
38000030
30000030
60000030
60000030
60000030
C0000030
C0000030
C0000030
C0000030
C0000030
C0000030
C0000030
C0000060
C0000060
C00000E0
400000E0
600001E0
60000360
30000640
38001CC0
1C0078C0
0F01E0C0
03FF8180
007C0180
00000100
00000300
00000300
00000600
00000C00
00000C00
00001800
00003000
00006000
0000C000
00038000
00070000
003C0000
03F80000
7FC00000
70000000
ENDCHAR
STARTCHAR 003A
ENCODING 58
SWIDTH 165 0
DWIDTH 11 0
BBX 9 35 1 0
BITMAP
0300
0780
0780
0300
0000
0000
0000
0000
0000
0000
0000
0000
0000
0000
0000
0000
0000
0000
0000
0000
0000
0000
0000
0000
0000
0000
0000
0000
0000
0000
0000
0000
E000
E000
E000
ENDCHAR
STARTCHAR 003B
ENCODING 59
SWIDTH 165 0
DWIDTH 11 0
BBX 12 43 -2 -8
BITMAP
0060
00F0
00F0
0060
0000
0000
0000
0000
0000
0000
0000
0000
0000
0000
0000
0000
0000
0000
0000
0000
0000
0000
0000
0000
0000
0000
0000
0000
0000
0000
0400
0400
0C00
0C00
0C00
0C00
1800
1800
3000
3000
6000
E000
C000
ENDCHAR
STARTCHAR 003C
ENCODING 60
SWIDTH 495 0
DWIDTH 33 0
BBX 29 26 3 9
BITMAP
00000008
00000030
000001E0
00000780
00001E00
0000F000
0003C000
000F0000
007C0000
01E00000
07800000
3E000000
F0000000
E0000000
F8000000
3E000000
0F800000
03E00000
00F00000
003C0000
000F0000
0003C000
0000F000
00003C00
00000F00
00000300
ENDCHAR
STARTCHAR 003D
ENCODING 61
SWIDTH 540 0
DWIDTH 36 0
BBX 29 15 4 14
BITMAP
3FFFFFF8
3FFFFFF0
00000000
00000000
00000000
00000000
00000000
00000000
00000000
00000000
00000000
00000000
00000000
FFFFFFC0
FFFFFFC0
ENDCHAR
STARTCHAR 003E
ENCODING 62
SWIDTH 495 0
DWIDTH 33 0
BBX 29 26 2 9
BITMAP
08000000
0E000000
07800000
01E00000
00780000
001E0000
00078000
0001E000
00007800
00001E00
00000780
000001E0
00000078
00000070
000001E0
00000780
00003E00
0000F000
0003C000
001F0000
00780000
01E00000
07800000
3C000000
F0000000
C0000000
ENDCHAR
STARTCHAR 003F
ENCODING 63
SWIDTH 420 0
DWIDTH 28 0
BBX 22 48 6 0
BITMAP
007F80
01FFE0
078070
0E0038
1C0018
18000C
30000C
60000C
600004
C00004
C00004
C0000C
00000C
00000C
00000C
000018
000018
000030
000070
000060
0000C0
000180
000300
000600
001C00
003800
007000
006000
00C000
018000
018000
030000
030000
030000
060000
000000
000000
000000
000000
000000
000000
000000
000000
000000
000000
1C0000
1C0000
1C0000
ENDCHAR
STARTCHAR 0040
ENCODING 64
SWIDTH 900 0
DWIDTH 60 0
BBX 54 61 2 -15
BITMAP
00000007FE0000
0000007FFFE000
000003F000F800
00000F80001E00
00003C00000700
00007800000380
0000E0000001C0
000380000000E0
00070000000060
000E0000000030
001C0000000030
00380000000018
00300000000018
00600000000008
00E0000FF0000C
01C0003FF8000C
018000F00E000C
030001C007000C
0300038006000C
06000700060004
06000E00060004
0C000C0006000C
0C0018000C000C
180018000C000C
180030000C000C
180030000C000C
3000600018000C
3000600018000C
3000C00018000C
2000C000100018
60008000300018
60018000300018
60018000300010
60018000200030
40010000600030
40010000600060
40010000E00060
C0030000C00060
C0030001C000C0
C0010003400180
40010003400180
40010006400300
6001800C600600
60018038600C00
6000E0F0387800
60007FC01FF000
70000C00070000
30000000000000
30000000000000
18000000000000
18000000000000
1C000000000000
0E000000000000
06000000000000
03000000000000
03C00000000000
00E00000000000
00780007000000
001F003E000000
0007FFF8000000
00003F00000000
ENDCHAR
STARTCHAR 0041
ENCODING 65
SWIDTH 570 0
DWIDTH 38 0
BBX 36 47 -2 0
BITMAP
0000006000
000000E000
000001B000
000001B000
0000033000
0000033000
0000061000
0000061800
00000C1800
00000C1800
0000181800
0000180800
0000300C00
0000300C00
0000600C00
0000400C00
0000C00400
0001800600
0001800600
0003000600
0003000600
0006000200
0006000300
000C000300
000C000300
0018000300
0018000300
0030000100
0030000180
0060000180
00C0000180
00FFFFFF80
01FFFFFF80
01800000C0
03000000C0
03000000C0
06000000C0
0600000040
0C00000060
0C00000060
1800000060
1800000060
3000000020
2000000030
6000000030
C000000030
C000000030
ENDCHAR
STARTCHAR 0042
ENCODING 66
SWIDTH 585 0
DWIDTH 39 0
BBX 33 47 3 0
BITMAP
00FFFFC000
00C003F800
0080001C00
0180000600
0180000300
0180000180
0180000180
0180000180
0100000080
0300000080
0300000080
0300000180
0300000180
0200000180
0200000180
0600000300
0600000700
0600000600
0600000C00
0400003800
040000F000
0C0007C000
0FFFFE0000
0FFFFFC000
0C0000F000
0800003800
1800001C00
1800000C00
1800000600
1800000600
1800000200
1000000300
3000000300
3000000200
3000000200
3000000600
3000000600
2000000400
6000000C00
6000001800
6000001800
6000003000
400000E000
400001C000
C0000F0000
FFFFFC0000
FFFFE00000
ENDCHAR
STARTCHAR 0043
ENCODING 67
SWIDTH 615 0
DWIDTH 41 0
BBX 36 49 4 -1
BITMAP
00003FE000
0001FFF800
0007801E00
001E000700
0038000380
00700001C0
00E00000C0
01C0000060
0180000060
0300000020
0700000030
0600000030
0C00000030
0C00000030
0C00000030
1800000000
1800000000
1000000000
3000000000
3000000000
3000000000
3000000000
2000000000
6000000000
6000000000
6000000000
6000000000
4000000000
4000000000
C000000000
C000000000
C000000000
C000000000
C000000000
C000000100
C000000300
4000000300
6000000600
6000000600
6000000C00
3000001C00
3000001800
1800003000
1C0000E000
0E0001C000
0700078000
03E03E0000
00FFF80000
0006000000
ENDCHAR
STARTCHAR 0044
ENCODING 68
SWIDTH 630 0
DWIDTH 42 0
BBX 37 47 3 0
BITMAP
00FFFFC000
00C003F800
0080003C00
0180000E00
0180000300
0180000180
01800000C0
01800000C0
0100000060
0300000060
0300000030
0300000030
0300000030
0200000010
0200000010
0600000018
0600000018
0600000018
0600000010
0400000010
0C00000030
0C00000030
0C00000030
0C00000030
0C00000030
0800000020
1800000060
1800000060
1800000060
1800000040
18000000C0
10000000C0
3000000180
3000000180
3000000300
3000000300
3000000600
2000000E00
6000001C00
6000003800
6000007000
600000E000
400001C000
4000070000
C0003E0000
FFFFF00000
FFFF800000
ENDCHAR
STARTCHAR 0045
ENCODING 69
SWIDTH 540 0
DWIDTH 36 0
BBX 36 47 3 0
BITMAP
00FFFFFFF0
00C0000000
0080000000
0180000000
0180000000
0180000000
0180000000
0180000000
0100000000
0300000000
0300000000
0300000000
0300000000
0200000000
0200000000
0600000000
0600000000
0600000000
0600000000
0400000000
0C00000000
0C00000000
0FFFFFF800
0FFFFFF800
0C00000000
0800000000
1800000000
1800000000
1800000000
1800000000
1800000000
1000000000
3000000000
3000000000
3000000000
3000000000
3000000000
2000000000
6000000000
6000000000
6000000000
6000000000
4000000000
4000000000
C000000000
FFFFFFF000
FFFFFFF000
ENDCHAR
STARTCHAR 0046
ENCODING 70
SWIDTH 555 0
DWIDTH 37 0
BBX 37 47 3 0
BITMAP
00FFFFFFF8
00C0000000
0080000000
0180000000
0180000000
0180000000
0180000000
0180000000
0100000000
0300000000
0300000000
0300000000
0300000000
0200000000
0200000000
0600000000
0600000000
0600000000
0600000000
0400000000
0C00000000
0C00000000
0FFFFFF800
0FFFFFF800
0C00000000
0800000000
1800000000
1800000000
1800000000
1800000000
1800000000
1000000000
3000000000
3000000000
3000000000
3000000000
3000000000
2000000000
6000000000
6000000000
6000000000
6000000000
4000000000
4000000000
C000000000
C000000000
C000000000
ENDCHAR
STARTCHAR 0047
ENCODING 71
SWIDTH 660 0
DWIDTH 44 0
BBX 36 49 5 -1
BITMAP
00003FE000
0001FFFC00
0007801E00
001E000300
0038000180
00700000C0
00E0000060
01C0000060
0180000030
0300000030
0600000030
0600000030
0C00000010
0C00000000
1800000000
1800000000
1000000000
3000000000
3000000000
3000000000
2000000000
6000000000
6000000000
6000000000
6000000000
6000000000
4000000000
C0003FFFC0
C0000000C0
C0000000C0
C000000080
C000000180
C000000180
C000000180
C000000180
C000000180
C000000100
6000000300
6000000300
6000000300
3000000300
3000000300
1800000600
0C00000E00
0E00003C00
078000F000
01E01FC000
007FFF0000
0007C00000
ENDCHAR
STARTCHAR 0048
ENCODING 72
SWIDTH 675 0
DWIDTH 45 0
BBX 41 47 3 0
BITMAP
00C000000180
00C000000180
008000000100
018000000100
018000000300
018000000300
018000000300
018000000300
010000000200
030000000600
030000000600
030000000600
030000000600
020000000600
020000000400
060000000C00
060000000C00
060000000C00
060000000C00
040000000C00
0C0000000800
0C0000001800
0FFFFFFFF800
0FFFFFFFF800
0C0000001800
080000001000
180000001000
180000003000
180000003000
180000003000
180000003000
100000002000
300000002000
300000006000
300000006000
300000006000
300000006000
200000004000
60000000C000
60000000C000
60000000C000
60000000C000
40000000C000
400000008000
C00000018000
C00000018000
C00000018000
ENDCHAR
STARTCHAR 0049
ENCODING 73
SWIDTH 240 0
DWIDTH 16 0
BBX 10 47 4 0
BITMAP
00C0
00C0
00C0
0080
0080
0180
0180
0180
0180
0100
0300
0300
0300
0300
0300
0200
0600
0600
0600
0600
0600
0400
0C00
0C00
0C00
0C00
0C00
0800
1800
1800
1800
1800
1000
1000
3000
3000
3000
3000
2000
6000
6000
6000
6000
6000
4000
C000
C000
ENDCHAR
STARTCHAR 004A
ENCODING 74
SWIDTH 525 0
DWIDTH 35 0
BBX 33 48 1 -1
BITMAP
0000000180
0000000180
0000000180
0000000180
0000000100
0000000300
0000000300
0000000300
0000000300
0000000300
0000000200
0000000600
0000000600
0000000600
0000000600
0000000400
0000000400
0000000C00
0000000C00
0000000C00
0000000C00
0000000800
0000001800
0000001800
0000001800
0000001800
0000001800
0000001000
0000003000
0000003000
0000003000
0000003000
0000003000
0000002000
4000006000
C000006000
C000004000
C00000C000
400000C000
6000018000
6000030000
6000070000
30000E0000
38001C0000
1C00380000
0F01E00000
03FFC00000
003C000000
ENDCHAR
STARTCHAR 004B
ENCODING 75
SWIDTH 615 0
DWIDTH 41 0
BBX 39 47 3 0
BITMAP
00C000001E
00C0000038
0080000070
01800000E0
01800001C0
0180000300
0180000600
0180001C00
0100003800
0300007000
030000E000
030001C000
0300030000
0200060000
02001C0000
0600380000
0600700000
0600E00000
0601C00000
0403000000
0C06000000
0C1E000000
0C3B000000
0C73800000
0CC1800000
0980C00000
1B00E00000
1E00600000
1800300000
1800380000
1800180000
10000C0000
30000E0000
3000060000
3000030000
3000038000
3000018000
200000C000
600000E000
6000006000
6000003000
6000003800
4000001800
4000000C00
C000000600
C000000600
C000000300
ENDCHAR
STARTCHAR 004C
ENCODING 76
SWIDTH 495 0
DWIDTH 33 0
BBX 26 47 3 0
BITMAP
00C00000
00C00000
00800000
01800000
01800000
01800000
01800000
01800000
01000000
03000000
03000000
03000000
03000000
03000000
02000000
06000000
06000000
06000000
06000000
04000000
0C000000
0C000000
0C000000
0C000000
0C000000
08000000
18000000
18000000
18000000
18000000
18000000
10000000
30000000
30000000
30000000
30000000
30000000
20000000
60000000
60000000
60000000
60000000
60000000
40000000
C0000000
FFFFFFC0
FFFFFF80
ENDCHAR
STARTCHAR 004D
ENCODING 77
SWIDTH 825 0
DWIDTH 55 0
BBX 51 47 3 0
BITMAP
00E000000000E0
00E000000001E0
00E000000001C0
01B00000000340
01B000000006C0
01B000000006C0
01B00000000CC0
01980000000CC0
01180000001880
03180000003980
03180000003180
030C0000006180
030C0000006180
020C000000C180
020C000000C100
06060000018300
06060000030300
06060000030300
06060000060300
04030000060300
0C0300000C0200
0C030000180600
0C030000180600
0C010000300600
0C018000300600
08018000600600
18018000C00400
18008000C00C00
1800C001800C00
1800C001800C00
1800C003000C00
10004006000800
30006006000800
3000600C001800
3000200C001800
30002018001800
30003030001800
20003030001000
60001060001000
60001060003000
600018C0003000
60001980003000
40000980003000
40000B00002000
C0000F00006000
C0000E00006000
C0000400006000
ENDCHAR
STARTCHAR 004E
ENCODING 78
SWIDTH 675 0
DWIDTH 45 0
BBX 41 47 3 0
BITMAP
00C000000180
00E000000180
00E000000180
01B000000180
01B000000100
019800000300
019800000300
018C00000300
010C00000300
030600000300
030600000200
030300000600
030300000600
030180000600
060180000600
0600C0000600
0600C0000400
060060000C00
060060000C00
060030000C00
0C0030000C00
0C0018000C00
0C0018000800
0C000C001800
0C000C001800
080006001800
180006001800
180003001800
180003003000
180001803000
180001803000
100000C03000
300000C03000
300000602000
300000606000
300000306000
300000306000
200000186000
600000186000
6000000C4000
6000000CC000
60000006C000
60000006C000
40000003C000
C0000003C000
C00000018000
C00000018000
ENDCHAR
STARTCHAR 004F
ENCODING 79
SWIDTH 645 0
DWIDTH 43 0
BBX 37 49 4 -1
BITMAP
00003FE000
0001FFF800
0007801E00
001E000700
0038000380
00700001C0
00E00000C0
01C0000060
0180000060
0300000030
0600000030
0600000030
0C00000010
0C00000010
1800000010
1800000018
1000000018
3000000018
3000000018
3000000010
2000000010
6000000030
6000000030
6000000030
6000000030
6000000020
4000000060
C000000060
C000000060
C000000060
C000000040
C0000000C0
C0000000C0
C000000080
C000000180
C000000180
C000000300
4000000300
6000000600
6000000C00
2000001C00
3000001800
1800003000
180000E000
0E0001C000
0700078000
03E03E0000
00FFF80000
0007000000
ENDCHAR
STARTCHAR 0050
ENCODING 80
SWIDTH 570 0
DWIDTH 38 0
BBX 35 47 3 0
BITMAP
00FFFFF000
00C000FC00
0080000E00
0180000380
0180000180
01800000C0
01800000C0
0180000060
0100000060
0300000060
0300000060
0300000060
0300000060
0200000060
0200000060
0600000060
06000000C0
06000000C0
0600000180
0400000180
0400000300
0C00000600
0C00001C00
0C00003800
0C0001F000
0FFFFFC000
1FFFFC0000
1800000000
1800000000
1800000000
1800000000
1000000000
3000000000
3000000000
3000000000
3000000000
3000000000
2000000000
6000000000
6000000000
6000000000
6000000000
4000000000
4000000000
C000000000
C000000000
C000000000
ENDCHAR
STARTCHAR 0051
ENCODING 81
SWIDTH 645 0
DWIDTH 43 0
BBX 37 56 4 -9
BITMAP
00003FE000
0001FFF800
0007801E00
001E000700
0038000380
00700001C0
00E00000C0
01C0000060
0180000060
0300000030
0600000030
0600000030
0C00000010
0C00000010
1800000010
1800000018
1000000018
3000000018
3000000018
3000000010
2000000010
6000000030
6000000030
6000000030
6000000030
6000000020
4000000060
C000000060
C000000060
C000000060
C000000040
C0000000C0
C0000000C0
C000000080
C000000180
C000000180
C000000300
4000000300
6000000600
6000000C00
2000001C00
3000001800
1800003000
180000E000
0E0001C000
0700078000
03E03E0000
00FFFC0000
0007060000
0000030000
0000018000
000001C000
000000E000
0000006000
0000003000
0000001800
ENDCHAR
STARTCHAR 0052
ENCODING 82
SWIDTH 630 0
DWIDTH 42 0
BBX 36 47 3 0
BITMAP
00FFFFF000
008000FC00
0180000F00
0180000380
01800001C0
01800000C0
0180000060
0100000060
0300000020
0300000030
0300000030
0300000030
0300000030
0200000020
0600000060
0600000060
0600000060
06000000C0
04000000C0
0400000180
0C00000300
0C00000600
0C00000C00
0C00003800
080001E000
1FFFFF8000
1FFFFE0000
1800060000
1800030000
1800030000
1000018000
3000018000
3000018000
300000C000
300000C000
3000006000
2000006000
6000003000
6000003000
6000003800
6000001800
4000001800
4000000C00
C000000C00
C000000600
C000000600
C000000700
ENDCHAR
STARTCHAR 0053
ENCODING 83
SWIDTH 570 0
DWIDTH 38 0
BBX 36 49 2 -1
BITMAP
00003FE000
0003FFF800
000F801E00
001C000700
0070000180
00E00000C0
01C0000060
0180000060
0300000020
0300000030
0200000030
0600000030
0600000030
0600000030
0600000000
0600000000
0300000000
0380000000
0180000000
00E0000000
0070000000
001E000000
0007C00000
0001F80000
00003E0000
000007C000
000000E000
0000003800
0000001C00
0000000E00
0000000600
0000000300
0000000300
0000000100
0000000100
C000000100
C000000300
C000000300
C000000300
C000000600
C000000600
6000000C00
6000001C00
3000003800
1C0000F000
0E0003C000
07E01F0000
00FFFC0000
000F800000
ENDCHAR
STARTCHAR 0054
ENCODING 84
SWIDTH 570 0
DWIDTH 38 0
BBX 36 47 6 0
BITMAP
FFFFFFFFF0
0000600000
0000600000
0000400000
0000C00000
0000C00000
0000C00000
0000C00000
0000800000
0000800000
0001800000
0001800000
0001800000
0001800000
0001000000
0001000000
0003000000
0003000000
0003000000
0003000000
0002000000
0006000000
0006000000
0006000000
0006000000
0006000000
0004000000
000C000000
000C000000
000C000000
000C000000
000C000000
0008000000
0018000000
0018000000
0018000000
0018000000
0018000000
0010000000
0030000000
0030000000
0030000000
0030000000
0020000000
0020000000
0060000000
0060000000
ENDCHAR
STARTCHAR 0055
ENCODING 85
SWIDTH 645 0
DWIDTH 43 0
BBX 37 48 5 -1
BITMAP
0600000018
0600000018
0600000018
0600000010
0600000030
0400000030
0C00000030
0C00000030
0C00000030
0C00000020
0C00000060
0800000060
1800000060
1800000060
1800000060
1800000040
10000000C0
10000000C0
30000000C0
30000000C0
30000000C0
3000000080
2000000180
6000000180
6000000180
6000000180
6000000100
6000000100
4000000300
C000000300
C000000300
C000000300
C000000200
C000000600
C000000600
C000000600
C000000C00
C000000C00
C000001800
6000003800
6000007000
7000006000
300001C000
1C00038000
0E000F0000
07C07C0000
01FFF00000
001F000000
ENDCHAR
STARTCHAR 0056
ENCODING 86
SWIDTH 570 0
DWIDTH 38 0
BBX 35 47 6 0
BITMAP
8000000020
C000000060
C0000000C0
C0000000C0
C000000180
6000000180
6000000300
6000000300
6000000600
6000000600
3000000C00
3000000C00
3000001800
3000001800
1000003000
1800003000
1800006000
1800006000
180000C000
080000C000
0C00018000
0C00018000
0C00030000
0C00030000
0400060000
0600060000
06000C0000
06000C0000
0600180000
0200100000
0300300000
0300600000
0300600000
0300C00000
0100C00000
0181800000
0181800000
0183000000
0183000000
0086000000
00C6000000
00CC000000
00CC000000
0058000000
0058000000
0070000000
0070000000
ENDCHAR
STARTCHAR 0057
ENCODING 87
SWIDTH 870 0
DWIDTH 58 0
BBX 55 47 6 0
BITMAP
C0000038000006
C000003800000C
4000007800000C
60000078000018
600000C8000018
600000C8000018
6000008C000030
6000018C000030
6000018C000060
6000030C000060
6000030C000040
200006040000C0
200006040000C0
30000C06000180
30000C06000180
30001806000300
30001806000300
30001006000300
30003006000600
30003002000600
30006003000C00
10006003000C00
1800C003000800
1800C003001800
18018003001800
18018003003000
18030001003000
18030001006000
18030001806000
18060001806000
0806000180C000
080C000180C000
0C0C0001818000
0C180000818000
0C180000810000
0C300000C30000
0C300000C30000
0C300000C60000
0C600000C60000
04600000CC0000
04C00000CC0000
06C000004C0000
07800000580000
07800000780000
07000000700000
07000000700000
07000000600000
ENDCHAR
STARTCHAR 0058
ENCODING 88
SWIDTH 570 0
DWIDTH 38 0
BBX 41 47 -1 0
BITMAP
00C000000180
006000000300
006000000600
003000000C00
003000001C00
001800003800
001800003000
000C00006000
000C0000C000
000600018000
000600038000
000300070000
000180060000
0001800C0000
0000C0180000
0000C0300000
000060700000
000060E00000
000030C00000
000031800000
00001B000000
00001E000000
00000C000000
00001C000000
00003E000000
000032000000
000063000000
0000C1800000
000181800000
000300C00000
000700C00000
000600600000
000C00600000
001800300000
003000300000
006000180000
00E000180000
00C0000C0000
0180000C0000
030000060000
060000060000
0C0000030000
1C0000038000
180000018000
30000001C000
60000000C000
C00000006000
ENDCHAR
STARTCHAR 0059
ENCODING 89
SWIDTH 570 0
DWIDTH 38 0
BBX 36 47 6 0
BITMAP
C000000070
6000000060
60000000C0
7000000180
3000000380
3000000300
1800000600
1800000C00
0C00001C00
0C00001800
0C00003000
0600006000
060000E000
030000C000
0300018000
0100030000
0180060000
0180060000
00C00C0000
00C0180000
0040300000
0060300000
0060600000
0030C00000
0031800000
0011800000
001B000000
000E000000
000C000000
000C000000
000C000000
0008000000
0018000000
0018000000
0018000000
0018000000
0018000000
0010000000
0030000000
0030000000
0030000000
0030000000
0030000000
0020000000
0060000000
0060000000
0060000000
ENDCHAR
STARTCHAR 005A
ENCODING 90
SWIDTH 570 0
DWIDTH 38 0
BBX 39 47 0 0
BITMAP
007FFFFFFE
0000000006
000000000C
0000000018
0000000030
0000000060
00000000E0
00000000C0
0000000180
0000000300
0000000600
0000000C00
0000001C00
0000001800
0000003000
0000006000
000000C000
0000018000
0000038000
0000030000
0000060000
00000C0000
0000180000
0000300000
0000700000
0000600000
0000C00000
0001800000
0003000000
0006000000
000E000000
000C000000
0018000000
0030000000
0060000000
00C0000000
01C0000000
0180000000
0300000000
0600000000
0C00000000
1800000000
3800000000
7000000000
6000000000
FFFFFFFF80
FFFFFFFF00
ENDCHAR
STARTCHAR 005B
ENCODING 91
SWIDTH 195 0
DWIDTH 13 0
BBX 19 64 1 -10
BITMAP
003FE0
003FE0
002000
002000
006000
006000
006000
006000
006000
004000
00C000
00C000
00C000
00C000
00C000
008000
018000
018000
018000
018000
018000
018000
010000
030000
030000
030000
030000
030000
020000
060000
060000
060000
060000
060000
040000
040000
0C0000
0C0000
0C0000
0C0000
0C0000
080000
180000
180000
180000
180000
180000
100000
300000
300000
300000
300000
300000
300000
200000
600000
600000
600000
600000
600000
400000
C00000
FF8000
FF8000
ENDCHAR
STARTCHAR 005C
ENCODING 92
SWIDTH 360 0
DWIDTH 24 0
BBX 12 51 7 -4
BITMAP
C000
C000
C000
C000
4000
6000
6000
6000
6000
2000
3000
3000
3000
3000
1000
1800
1800
1800
1800
0800
0C00
0C00
0C00
0C00
0400
0600
0600
0600
0600
0200
0300
0300
0300
0300
0100
0180
0180
0180
0180
0080
00C0
00C0
00C0
00C0
0040
0060
0060
0060
0060
0020
0030
ENDCHAR
STARTCHAR 005D
ENCODING 93
SWIDTH 195 0
DWIDTH 13 0
BBX 19 64 -5 -10
BITMAP
003FE0
003FE0
000060
000060
000040
0000C0
0000C0
0000C0
0000C0
0000C0
000080
000180
000180
000180
000180
000180
000180
000100
000300
000300
000300
000300
000300
000200
000600
000600
000600
000600
000600
000400
000400
000C00
000C00
000C00
000C00
000C00
000800
001800
001800
001800
001800
001800
001000
001000
003000
003000
003000
003000
003000
002000
006000
006000
006000
006000
006000
004000
00C000
00C000
00C000
00C000
00C000
008000
FF8000
FF8000
ENDCHAR
STARTCHAR 005E
ENCODING 94
SWIDTH 390 0
DWIDTH 26 0
BBX 20 23 4 24
BITMAP
000600
000E00
001A00
001B00
003300
003300
006100
004180
00C180
018180
018180
030080
0300C0
0600C0
0600C0
0C0040
180060
180060
300060
300060
600030
600030
C00030
ENDCHAR
STARTCHAR 005F
ENCODING 95
SWIDTH 390 0
DWIDTH 26 0
BBX 27 2 -4 -2
BITMAP
FFFFFFE0
FFFFFFE0
ENDCHAR
STARTCHAR 0060
ENCODING 96
SWIDTH 240 0
DWIDTH 16 0
BBX 6 9 10 41
BITMAP
C0
C0
60
60
30
10
18
0C
0C
ENDCHAR
STARTCHAR 0061
ENCODING 97
SWIDTH 510 0
DWIDTH 34 0
BBX 29 37 1 -1
BITMAP
0001F800
000FFF00
003C03C0
00E000E0
01C00060
03800030
07000030
06000018
0C000018
0C000018
00000018
00000010
00000010
00000030
00000030
00000030
0001FFF0
003FFFE0
01FC0060
07800060
0E000060
1C000060
30000060
60000040
600000C0
C00000C0
C00000C0
C00001C0
C00003C0
C0000380
C0000780
C0001D80
60003980
3000E180
1C07C180
0FFF0180
00F00000
ENDCHAR
STARTCHAR 0062
ENCODING 98
SWIDTH 525 0
DWIDTH 35 0
BBX 30 51 2 -1
BITMAP
00400000
00C00000
00C00000
00C00000
00C00000
00800000
01800000
01800000
01800000
01800000
01800000
01000000
03000000
03000000
0300FC00
0307FF80
031E01C0
02380060
06600070
06C00030
07800018
07000018
06000018
06000008
0C00000C
0C00000C
0C00000C
0C00000C
0800000C
0800000C
1800000C
18000008
18000018
18000018
10000018
30000018
30000030
30000030
30000030
30000060
20000060
600000C0
600000C0
70000180
70000380
78000700
4C000E00
C7001C00
C3C07800
C0FFE000
001E0000
ENDCHAR
STARTCHAR 0063
ENCODING 99
SWIDTH 480 0
DWIDTH 32 0
BBX 28 37 2 -1
BITMAP
0003F800
001FFE00
00780780
00E001C0
01C000C0
03000060
07000030
06000030
0C000030
18000010
18000010
10000010
30000000
30000000
20000000
60000000
60000000
60000000
40000000
40000000
C0000000
C0000000
C0000000
C0000000
C0000000
40000040
400000C0
600000C0
60000180
20000180
30000300
38000600
18000C00
0E003800
0781F000
01FFC000
001C0000
ENDCHAR
STARTCHAR 0064
ENCODING 100
SWIDTH 525 0
DWIDTH 35 0
BBX 32 51 3 -1
BITMAP
00000003
00000003
00000003
00000003
00000003
00000002
00000006
00000006
00000006
00000006
00000006
00000004
0000000C
0000000C
0007E00C
003FFC0C
00780E08
00E00388
01800198
030000D8
06000078
0C000038
0C000030
18000030
18000030
30000030
30000030
30000030
60000020
60000060
60000060
40000060
C0000060
C0000060
C0000040
C00000C0
C00000C0
C00000C0
C00000C0
C00000C0
C0000080
C0000180
40000180
60000380
60000780
30000D00
30001900
18007300
0F03C300
07FF0300
00780000
ENDCHAR
STARTCHAR 0065
ENCODING 101
SWIDTH 480 0
DWIDTH 32 0
BBX 28 37 2 -1
BITMAP
0003F800
001FFE00
003C0700
00E00180
01C000C0
03800060
07000060
06000030
0C000030
18000030
18000010
30000010
30000010
20000010
60000010
7FFFFFF0
7FFFFFF0
40000000
C0000000
C0000000
C0000000
C0000000
C0000000
C0000000
C0000000
C0000000
40000000
60000000
60000000
30000000
30000100
18000300
0C000600
0E001C00
03C0F800
01FFE000
003E0000
ENDCHAR
STARTCHAR 0066
ENCODING 102
SWIDTH 300 0
DWIDTH 20 0
BBX 21 51 5 0
BITMAP
0000F0
000FF8
001E00
003800
006000
00E000
00C000
018000
018000
018000
010000
030000
030000
030000
030000
030000
FFFF00
FFFF00
060000
060000
060000
060000
040000
0C0000
0C0000
0C0000
0C0000
080000
180000
180000
180000
180000
180000
100000
300000
300000
300000
300000
300000
200000
600000
600000
600000
600000
600000
400000
C00000
C00000
C00000
C00000
C00000
ENDCHAR
STARTCHAR 0067
ENCODING 103
SWIDTH 525 0
DWIDTH 35 0
BBX 32 50 1 -14
BITMAP
0001F800
000FFF03
001E0382
003800E6
00600066
00C00036
0180001E
0300001E
0300000C
0600000C
0600000C
0C00000C
0C00000C
0800000C
18000008
18000018
18000018
10000018
30000018
30000018
30000010
30000030
30000030
30000030
30000030
30000020
30000060
30000060
10000060
180000E0
180001E0
0C000340
0C000EC0
06001CC0
03C0F0C0
01FFC0C0
001C00C0
00000180
00000180
00000180
00000300
00000300
00000600
40000E00
C0000C00
60001800
30007000
1C01E000
0FFF8000
03FE0000
ENDCHAR
STARTCHAR 0068
ENCODING 104
SWIDTH 525 0
DWIDTH 35 0
BBX 29 50 2 0
BITMAP
00400000
00C00000
00C00000
00C00000
00C00000
00800000
00800000
01800000
01800000
01800000
01800000
01000000
01000000
03000000
03007E00
0303FF80
030F00E0
021C0060
06300030
06600030
06C00018
07800018
07000018
07000018
0E000018
0E000018
0C000018
0C000018
0C000018
08000010
18000030
18000030
18000030
18000030
10000020
10000020
30000060
30000060
30000060
30000060
20000040
200000C0
600000C0
600000C0
600000C0
600000C0
40000080
C0000180
C0000180
C0000180
ENDCHAR
STARTCHAR 0069
ENCODING 105
SWIDTH 195 0
DWIDTH 13 0
BBX 10 48 3 0
BITMAP
01C0
01C0
01C0
0080
0000
0000
0000
0000
0000
0000
0000
0000
0000
0600
0600
0600
0600
0400
0400
0C00
0C00
0C00
0C00
0800
0800
1800
1800
1800
1800
1000
3000
3000
3000
3000
3000
2000
6000
6000
6000
6000
6000
4000
C000
C000
C000
C000
C000
8000
ENDCHAR
STARTCHAR 006A
ENCODING 106
SWIDTH 210 0
DWIDTH 14 0
BBX 23 62 -10 -14
BITMAP
00000E
00000E
00000E
000004
000000
000000
000000
000000
000000
000000
000000
000000
000000
000030
000030
000030
000030
000030
000020
000060
000060
000060
000060
000040
000040
0000C0
0000C0
0000C0
0000C0
000080
000180
000180
000180
000180
000180
000100
000300
000300
000300
000300
000300
000200
000600
000600
000600
000600
000600
000400
000C00
000C00
000C00
000C00
000800
001800
001800
001800
003000
007000
00E000
01C000
FF8000
FE0000
ENDCHAR
STARTCHAR 006B
ENCODING 107
SWIDTH 450 0
DWIDTH 30 0
BBX 29 50 2 0
BITMAP
00400000
00C00000
00C00000
00C00000
00C00000
00800000
00800000
01800000
01800000
01800000
01800000
01000000
01000000
03000000
03000000
03000038
03000070
020000E0
06000180
06000300
06000E00
06001C00
06003800
04006000
0C01C000
0C038000
0C070000
0C0C0000
0C180000
08700000
18F00000
19F80000
1B180000
1E0C0000
1C0E0000
10060000
30030000
30038000
30018000
3000C000
2000E000
20006000
60003000
60003800
60001800
60000C00
40000C00
C0000600
C0000300
C0000300
ENDCHAR
STARTCHAR 006C
ENCODING 108
SWIDTH 195 0
DWIDTH 13 0
BBX 10 50 3 0
BITMAP
00C0
00C0
0080
0180
0180
0180
0180
0180
0100
0300
0300
0300
0300
0300
0200
0600
0600
0600
0600
0400
0400
0C00
0C00
0C00
0C00
0800
0800
1800
1800
1800
1800
1000
3000
3000
3000
3000
3000
2000
6000
6000
6000
6000
6000
4000
C000
C000
C000
C000
8000
8000
ENDCHAR
STARTCHAR 006D
ENCODING 109
SWIDTH 855 0
DWIDTH 57 0
BBX 52 36 2 0
BITMAP
00007E0000FC00
0203FF800FFF00
060F01C01E0180
061C00607000C0
06300030E00060
06600031800060
06C00013000030
0580001E000030
0F00001E000030
0F00001C000030
0E000018000030
0C000018000030
0C000018000030
08000010000030
18000010000020
18000030000060
18000030000060
18000030000060
18000030000060
10000020000060
30000060000040
300000600000C0
300000600000C0
300000600000C0
200000600000C0
600000400000C0
600000C0000080
600000C0000180
600000C0000180
600000C0000180
40000080000180
C0000080000180
C0000180000100
C0000180000300
C0000180000300
C0000180000300
ENDCHAR
STARTCHAR 006E
ENCODING 110
SWIDTH 525 0
DWIDTH 35 0
BBX 29 36 2 0
BITMAP
00007E00
0303FF80
030F00E0
021C0060
06300030
06600030
06C00018
07800018
07000018
07000018
0E000018
0E000018
0C000018
0C000018
0C000018
08000010
18000030
18000030
18000030
18000030
18000020
10000020
30000060
30000060
30000060
30000060
20000040
200000C0
600000C0
600000C0
600000C0
600000C0
40000080
C0000180
C0000180
C0000180
ENDCHAR
STARTCHAR 006F
ENCODING 111
SWIDTH 525 0
DWIDTH 35 0
BBX 31 37 2 -1
BITMAP
0001FC00
000FFF00
003C03C0
00F000E0
01C00070
03800030
07000018
06000018
0C00000C
1C00000C
1800000C
30000006
30000006
30000006
60000006
60000006
60000006
40000006
C0000004
C000000C
C000000C
C000000C
C000000C
C0000018
C0000018
C0000030
40000030
60000060
60000060
300000C0
30000180
18000300
1C000600
0E001C00
03C0F800
01FFE000
003C0000
ENDCHAR
STARTCHAR 0070
ENCODING 112
SWIDTH 525 0
DWIDTH 35 0
BBX 32 50 0 -14
BITMAP
00003F00
00C1FFE0
00C78070
008E0018
0198000C
01B0000C
01E00006
01C00006
01800006
01800002
03000003
03000003
03000003
03000003
02000003
06000003
06000003
06000002
06000006
06000006
04000006
0C000006
0C00000C
0C00000C
0C00000C
0C000018
08000018
18000030
18000030
1C000060
1C0000E0
1E0001C0
13000380
31C00700
30F01E00
303FF800
30078000
20000000
20000000
60000000
60000000
60000000
60000000
40000000
40000000
C0000000
C0000000
C0000000
C0000000
80000000
ENDCHAR
STARTCHAR 0071
ENCODING 113
SWIDTH 525 0
DWIDTH 35 0
BBX 30 50 3 -14
BITMAP
0007E000
003FFC0C
00780F08
00E00388
018001D8
030000D8
06000078
0C000038
0C000030
18000030
18000030
30000030
30000030
30000030
60000020
60000060
60000060
40000060
C0000060
C0000060
C0000040
C00000C0
C00000C0
C00000C0
C00000C0
C00000C0
C0000080
C0000180
40000180
60000380
60000780
30000D00
30001900
18007300
0F03C300
07FF0300
00780300
00000200
00000600
00000600
00000600
00000600
00000600
00000400
00000C00
00000C00
00000C00
00000C00
00000C00
00000800
ENDCHAR
STARTCHAR 0072
ENCODING 114
SWIDTH 315 0
DWIDTH 21 0
BBX 21 36 2 0
BITMAP
0000F8
0307F8
031E00
023800
066000
06C000
068000
078000
070000
060000
0E0000
0C0000
0C0000
0C0000
0C0000
080000
180000
180000
180000
180000
100000
100000
300000
300000
300000
300000
200000
200000
600000
600000
600000
600000
400000
C00000
C00000
C00000
ENDCHAR
STARTCHAR 0073
ENCODING 115
SWIDTH 480 0
DWIDTH 32 0
BBX 27 37 2 -1
BITMAP
0007F000
003FFE00
00F00F00
01C00380
030000C0
060000E0
0C000060
0C000060
0C000060
08000060
08000000
08000000
0C000000
0C000000
07000000
03800000
00F00000
003F0000
0007C000
0000F800
00001C00
00000E00
00000700
00000300
00000180
00000180
00000180
80000180
C0000300
C0000300
C0000700
E0000600
60001C00
38007800
1F03F000
07FFC000
00780000
ENDCHAR
STARTCHAR 0074
ENCODING 116
SWIDTH 300 0
DWIDTH 20 0
BBX 16 46 4 -1
BITMAP
00C0
0080
0180
0180
0180
0180
0180
0100
0300
0300
FFFF
FFFF
0300
0200
0600
0600
0600
0600
0400
0400
0C00
0C00
0C00
0C00
0800
1800
1800
1800
1800
1800
1000
3000
3000
3000
3000
3000
2000
6000
6000
6000
6000
2000
3000
3800
1FE0
03C0
ENDCHAR
STARTCHAR 0075
ENCODING 117
SWIDTH 525 0
DWIDTH 35 0
BBX 29 36 4 -1
BITMAP
0C000018
08000018
18000010
18000030
18000030
18000030
18000030
10000020
30000060
30000060
30000060
30000060
30000060
20000040
600000C0
600000C0
600000C0
600000C0
600000C0
40000080
C0000180
C0000180
C0000180
C0000180
C0000180
C0000300
C0000300
C0000700
C0000F00
C0000F00
60001B00
60007200
3000E600
1C078600
0FFE0600
00E00000
ENDCHAR
STARTCHAR 0076
ENCODING 118
SWIDTH 450 0
DWIDTH 30 0
BBX 28 35 4 0
BITMAP
C0000030
C0000060
C0000060
400000C0
600000C0
60000180
60000180
20000300
30000600
30000600
30000C00
30000C00
10001800
18001800
18003000
18003000
08006000
0C006000
0C00C000
0C00C000
0C018000
04018000
06030000
06060000
06060000
020C0000
030C0000
03180000
03180000
03300000
01B00000
01E00000
01E00000
01C00000
00C00000
ENDCHAR
STARTCHAR 0077
ENCODING 119
SWIDTH 720 0
DWIDTH 48 0
BBX 43 35 5 0
BITMAP
C00006000060
C0000E000060
60000E0000E0
60001A0000C0
60001A0000C0
600033000180
600033000180
600063000300
600063000300
6000C3000600
6000C3000600
300181000C00
300181800C00
300101801C00
300301801800
300201801800
300601803000
300401803000
300C00806000
300C00806000
101800C0C000
181800C0C000
183000C18000
183000C18000
186000C38000
186000430000
18C000430000
18C000660000
198000660000
0980006C0000
0B00006C0000
0B0000680000
0E0000380000
0E0000300000
0C0000300000
ENDCHAR
STARTCHAR 0078
ENCODING 120
SWIDTH 450 0
DWIDTH 30 0
BBX 31 35 -1 0
BITMAP
03000006
0180000E
0180001C
00C00018
00C00030
00600060
003000C0
00300180
00180380
00180700
000C0600
000C0C00
00061800
00063000
00036000
0003E000
0001C000
00018000
0003C000
00066000
000C6000
00183000
00383000
00701800
00601800
00C00C00
01800C00
03000600
06000700
0E000300
1C000180
18000180
300000C0
600000C0
C0000060
ENDCHAR
STARTCHAR 0079
ENCODING 121
SWIDTH 450 0
DWIDTH 30 0
BBX 35 49 -3 -14
BITMAP
0180000060
0180000060
00800000C0
00C00000C0
00C0000180
00C0000300
00C0000300
0060000600
0060000600
0060000C00
0060000C00
0020001800
0030001800
0030003000
0030003000
0030006000
001800E000
001800C000
0018018000
0018018000
0008030000
000C030000
000C060000
000C060000
000C0C0000
00040C0000
0006180000
0006380000
0006300000
0002600000
0003600000
0003C00000
0003C00000
0003800000
0001800000
0003000000
0003000000
0006000000
0006000000
000C000000
000C000000
0018000000
0030000000
0030000000
0060000000
00C0000000
0380000000
FF00000000
FC00000000
ENDCHAR
STARTCHAR 007A
ENCODING 122
SWIDTH 450 0
DWIDTH 30 0
BBX 31 35 -1 0
BITMAP
01FFFFFE
01FFFFFE
0000000C
00000018
00000030
00000060
000000E0
000001C0
00000180
00000300
00000600
00000C00
00001800
00003000
00006000
0000E000
0001C000
00018000
00030000
00060000
000C0000
00180000
00300000
00700000
00E00000
00C00000
01800000
03000000
06000000
0C000000
18000000
38000000
70000000
7FFFFFE0
FFFFFFE0
ENDCHAR
STARTCHAR 007B
ENCODING 123
SWIDTH 300 0
DWIDTH 20 0
BBX 24 66 2 -14
BITMAP
000002
00000F
000038
000070
0000C0
000180
000300
000300
000600
000C00
000C00
000C00
001800
001800
001800
001800
001000
003000
003000
003000
003000
003000
003000
002000
006000
006000
006000
00C000
01C000
018000
030000
0E0000
F80000
E00000
780000
0C0000
060000
030000
030000
010000
010000
010000
010000
030000
030000
030000
030000
030000
020000
020000
060000
060000
060000
060000
060000
060000
060000
060000
060000
030000
030000
018000
01C000
00E000
003800
001C00
ENDCHAR
STARTCHAR 007C
ENCODING 124
SWIDTH 180 0
DWIDTH 12 0
BBX 11 56 1 -9
BITMAP
0060
0060
0040
00C0
00C0
00C0
00C0
00C0
0080
0180
0180
0180
0180
0180
0100
0100
0300
0300
0300
0300
0300
0200
0600
0600
0600
0600
0600
0400
0400
0C00
0C00
0C00
0C00
0C00
0800
1800
1800
1800
1800
1800
1000
1000
3000
3000
3000
3000
3000
2000
6000
6000
6000
6000
6000
4000
C000
C000
ENDCHAR
STARTCHAR 007D
ENCODING 125
SWIDTH 300 0
DWIDTH 20 0
BBX 24 66 -5 -14
BITMAP
003000
003C00
000E00
000700
000380
000180
0000C0
0000C0
0000C0
000040
000060
000060
000060
000060
000040
000040
0000C0
0000C0
0000C0
0000C0
0000C0
000080
000080
000180
000180
000180
000180
000180
000080
0000C0
000060
000030
00001F
00000E
00003C
0000E0
000180
000380
000300
000600
000600
000400
000C00
000C00
000C00
000C00
000C00
000800
001800
001800
001800
001800
001800
003000
003000
003000
006000
006000
00C000
01C000
018000
030000
0E0000
1C0000
780000
E00000
ENDCHAR
STARTCHAR 007E
ENCODING 126
SWIDTH 660 0
DWIDTH 44 0
BBX 36 11 4 14
BITMAP
01FC000020
07FE000030
0E03800030
1801C00060
3000E00060
30007000C0
60003800C0
60001C0380
4000070700
C00003FE00
0000007000
ENDCHAR
STARTCHAR 00A0
ENCODING 160
SWIDTH 225 0
DWIDTH 15 0
BBX 0 0 0 0
BITMAP
ENDCHAR
STARTCHAR 00A1
ENCODING 161
SWIDTH 180 0
DWIDTH 12 0
BBX 11 48 0 -12
BITMAP
00C0
01E0
01C0
0080
0000
0000
0000
0000
0000
0000
0000
0000
0000
0300
0300
0300
0200
0600
0600
0600
0600
0600
0400
0C00
0C00
0C00
0C00
0800
0800
1800
1800
1800
1800
1000
1000
3000
3000
3000
3000
2000
6000
6000
6000
6000
6000
4000
C000
C000
ENDCHAR
STARTCHAR 00A2
ENCODING 162
SWIDTH 525 0
DWIDTH 35 0
BBX 29 51 3 -8
BITMAP
00003000
00003000
00003000
00003000
00002000
00006000
00006000
0003F800
000FFF00
003C0780
00F001C0
01C00060
03800060
03000030
06000030
0C000010
0C000018
18000018
18000018
30000000
30000000
30000000
60000000
60000000
60000000
60000000
40000000
40000000
C0000000
C0000000
C0000000
C0000000
40000040
400000C0
600000C0
60000180
20000180
30000300
30000600
18000C00
0E003800
0781F000
03FFC000
00180000
00100000
00300000
00300000
00300000
00300000
00300000
00200000
ENDCHAR
STARTCHAR 00A3
ENCODING 163
SWIDTH 540 0
DWIDTH 36 0
BBX 36 48 0 0
BITMAP
000003F800
00000FFE00
00003C0380
00007001C0
0000C000C0
0001800060
0001800060
0003000020
0006000030
0006000030
0006000030
000C000030
000C000030
000C000000
000C000000
0008000000
0018000000
0018000000
0018000000
0018000000
0018000000
0018000000
0010000000
0030000000
0030000000
1FFFFF0000
0030000000
0030000000
0020000000
0020000000
0060000000
0060000000
0060000000
0060000000
0060000000
0040000000
0040000000
00C0000000
00C0000000
00C0000000
00C0000000
0180000000
0180000000
0100000000
0300000000
0600000000
FFFFFFFC00
FFFFFFFC00
ENDCHAR
STARTCHAR 00A4
ENCODING 164
SWIDTH 705 0
DWIDTH 47 0
BBX 47 42 0 -1
BITMAP
008000000006
01C003FF000E
00E01FFFC01C
00607800F038
0031E0003860
001B80001CC0
001F00000780
000C00000700
001800000300
003000000180
007000000180
0060000000C0
00C0000000C0
0180000000C0
018000000040
030000000060
030000000060
030000000060
060000000060
060000000060
060000000040
040000000040
0400000000C0
0C00000000C0
0C00000000C0
0C0000000180
040000000180
040000000300
060000000300
060000000600
060000000600
030000000C00
030000001800
018000003800
018000007000
03C00000F000
06600001D800
0C3000071C00
181C001E0E00
700F80F80600
E003FFE00300
40001C000000
ENDCHAR
STARTCHAR 00A5
ENCODING 165
SWIDTH 480 0
DWIDTH 32 0
BBX 34 47 2 0
BITMAP
0C000000C0
0400000180
0600000300
0600000300
0300000600
0300000C00
0300000C00
0180001800
0180003000
0180006000
00C0006000
00C000C000
0040018000
0060018000
0060030000
0020060000
0030040000
00300C0000
0018180000
0018300000
0008300000
000C600000
000CC00000
0004C00000
0007800000
7FFFFFF000
7FFFFFF000
0006000000
0006000000
0006000000
0006000000
0004000000
0004000000
000C000000
000C000000
FFFFFFC000
000C000000
0008000000
0008000000
0018000000
0018000000
0018000000
0018000000
0010000000
0030000000
0030000000
0030000000
ENDCHAR
STARTCHAR 00A6
ENCODING 166
SWIDTH 180 0
DWIDTH 12 0
BBX 11 56 1 -9
BITMAP
0060
0060
0060
0040
00C0
00C0
00C0
00C0
0080
0080
0180
0180
0180
0180
0100
0300
0300
0300
0300
0300
0200
0600
0600
0600
0000
0000
0000
0000
0000
0000
0000
0800
1800
1800
1800
1800
1800
1000
3000
3000
3000
3000
3000
2000
6000
6000
6000
6000
6000
4000
C000
C000
C000
C000
C000
8000
ENDCHAR
STARTCHAR 00A7
ENCODING 167
SWIDTH 570 0
DWIDTH 38 0
BBX 37 64 0 -16
BITMAP
00000FF800
0000FFFE00
0003E00780
00070001C0
000C0000E0
0018000060
0030000030
0060000030
0060000030
0040000010
00C0000018
00C0000018
00C0000018
00C0000010
00C0000000
00C0000000
0060000000
0070000000
0038000000
001C000000
0007800000
0007E00000
003C3E0000
00E007C000
018000F000
0300001C00
0600000E00
0C00000300
0C00000180
0800000180
18000000C0
18000000C0
18000000C0
08000000C0
0C000000C0
0C00000180
0600000180
0380000300
01C0000600
0078000C00
001F003800
0007E7E000
0000FE0000
00000F0000
000003C000
000000E000
0000007000
0000003000
0000001800
0000001800
C000001800
8000001800
8000001800
8000001800
C000001800
C000003000
C000003000
6000006000
600000C000
300001C000
1C00078000
0F001E0000
07FFF80000
00FFC00000
ENDCHAR
STARTCHAR 00A8
ENCODING 168
SWIDTH 420 0
DWIDTH 28 0
BBX 17 4 10 44
BITMAP
E00380
E00380
E00380
400100
ENDCHAR
STARTCHAR 00A9
ENCODING 169
SWIDTH 780 0
DWIDTH 52 0
BBX 46 49 4 -1
BITMAP
000003FE0000
00003FFFC000
0000F800F000
0003C0003C00
000700000E00
001C00000700
003800000380
0070000001C0
00E0000000C0
01C000000060
038001C00060
03000FF80030
06001C1E0030
0E0070060018
0C00E0030018
1800C0010018
180180018018
300180018008
30030001800C
30030001800C
60060001800C
60060000000C
60060000000C
40060000000C
C00400000008
C00C00000018
C00C00000018
C00C00000018
C00C00020010
C00C00060030
C00C00060030
C00400060060
6006000C0060
6006001C00C0
6003003800C0
600180700180
3000FFE00380
30007F800300
180000000600
180000000C00
0C0000001800
060000003000
07000000E000
03800001C000
01E000078000
0070001E0000
003F01F80000
000FFFE00000
00007C000000
ENDCHAR
STARTCHAR 00AA
ENCODING 170
SWIDTH 420 0
DWIDTH 28 0
BBX 19 26 7 22
BITMAP
007E00
03FF80
0701C0
0C00C0
180060
100060
300060
300060
000060
000060
000060
00FFC0
07FFC0
1E00C0
3800C0
6000C0
6000C0
C00080
C00180
C00180
C00380
C00780
E01D80
787980
1FE180
020000
ENDCHAR
STARTCHAR 00AB
ENCODING 171
SWIDTH 420 0
DWIDTH 28 0
BBX 22 24 4 5
BITMAP
00180C
003018
006030
00C060
0180C0
0301C0
070380
0E0700
1C0E00
381C00
703800
E07000
E07000
603000
703800
301C00
180C00
1C0E00
0C0600
0E0300
060300
030180
0381C0
0180C0
ENDCHAR
STARTCHAR 00AC
ENCODING 172
SWIDTH 510 0
DWIDTH 34 0
BBX 25 12 5 13
BITMAP
FFFFFF80
FFFFFF80
00000100
00000300
00000300
00000300
00000300
00000300
00000200
00000600
00000600
00000600
ENDCHAR
STARTCHAR 00AD
ENCODING 173
SWIDTH 285 0
DWIDTH 19 0
BBX 15 2 2 21
BITMAP
FFFE
FFFE
ENDCHAR
STARTCHAR 00AE
ENCODING 174
SWIDTH 780 0
DWIDTH 52 0
BBX 45 49 4 -1
BITMAP
000007FE0000
00003FFFC000
0000F800F000
0003C0003800
000F00000E00
001C00000700
003800000380
007000000180
00C0000000C0
0180000000E0
03807FC00060
07007FFC0030
0600600E0030
0C0060030030
0C0060018018
180060018018
180040018018
3000C0018018
3000C0018008
6000C0018008
6000C0030008
6000C0030008
4000800E0008
C001801C0018
C001FFF00018
C001FFF00018
C00180380018
C001800C0010
C001800C0030
C00100040030
C00300040060
C003000C0060
C003000C0060
4003000C00C0
6003000C01C0
6002000C0180
3006000C0300
300000000700
380000000E00
180000001C00
0C0000003800
0E0000007000
07000000E000
03800001C000
01C000070000
00F0001E0000
003F01F80000
000FFFC00000
0000FC000000
ENDCHAR
STARTCHAR 00AF
ENCODING 175
SWIDTH 375 0
DWIDTH 25 0
BBX 18 2 8 45
BITMAP
FFFFC0
FFFFC0
ENDCHAR
STARTCHAR 00B0
ENCODING 176
SWIDTH 360 0
DWIDTH 24 0
BBX 15 15 8 33
BITMAP
03F0
0FF8
1C0C
3806
3006
6002
6002
4002
C006
C006
400C
600C
7038
3CF0
1FE0
ENDCHAR
STARTCHAR 00B1
ENCODING 177
SWIDTH 510 0
DWIDTH 34 0
BBX 31 41 1 0
BITMAP
00003000
00003000
00003000
00003000
00003000
00002000
00002000
00006000
00006000
00006000
00006000
00006000
00004000
0000C000
0000C000
3FFFFFFE
3FFFFFFE
0000C000
00008000
00008000
00018000
00018000
00018000
00018000
00018000
00010000
00030000
00030000
00030000
00030000
00030000
00020000
00000000
00000000
00000000
00000000
00000000
00000000
00000000
FFFFFFC0
FFFFFFC0
ENDCHAR
STARTCHAR 00B2
ENCODING 178
SWIDTH 345 0
DWIDTH 23 0
BBX 19 26 4 22
BITMAP
001800
01FF00
0381C0
0600C0
0C0060
180060
180060
300060
000060
0000C0
0000C0
000180
000300
000600
000C00
001800
007000
00E000
01C000
030000
060000
0C0000
180000
300000
E00000
FFFF80
ENDCHAR
STARTCHAR 00B3
ENCODING 179
SWIDTH 345 0
DWIDTH 23 0
BBX 19 27 4 21
BITMAP
001C00
01FF80
0381C0
0600E0
0C0060
180020
180020
000060
000060
0000E0
0000C0
000380
003E00
01FC00
000F00
000180
000080
0000C0
0000C0
C000C0
C000C0
C00180
C00180
600700
380E00
1FF800
03C000
ENDCHAR
STARTCHAR 00B4
ENCODING 180
SWIDTH 240 0
DWIDTH 16 0
BBX 9 9 7 41
BITMAP
0180
0380
0300
0600
0C00
1800
3000
6000
E000
ENDCHAR
STARTCHAR 00B5
ENCODING 181
SWIDTH 525 0
DWIDTH 35 0
BBX 33 49 0 -14
BITMAP
00C0000180
0080000180
0080000100
0180000300
0180000300
0180000300
0180000300
0100000300
0100000200
0300000600
0300000600
0300000600
0300000600
0200000400
0200000400
0600000C00
0600000C00
0600000C00
0600000C00
0400000800
0C00001800
0C00001800
0C00001800
0C00001800
0C00003800
0C00003000
1C00007000
1C00007000
1C0000F000
1E0001B000
160003B000
1300072000
33800E6000
31E0786000
307FE06000
3006000000
2000000000
2000000000
6000000000
6000000000
6000000000
6000000000
4000000000
4000000000
C000000000
C000000000
C000000000
C000000000
8000000000
ENDCHAR
STARTCHAR 00B6
ENCODING 182
SWIDTH 435 0
DWIDTH 29 0
BBX 24 47 5 0
BITMAP
0007FF
003FFF
00FFFF
01FFFF
03FFFE
07FFFE
0FFFFE
1FFFFE
3FFFFE
3FFFFE
3FFFFC
7FFFFC
7FFFFC
7FFFFC
FFFFFC
FFFFF8
FFFFF8
FFFFF8
FFFFF8
FFFFF8
FFFFF8
7FFFF0
7FFFF0
7FFFF0
3FFFF0
1FFFF0
0FFFF0
07FFE0
03FFE0
007FE0
000060
000060
000060
000040
0000C0
0000C0
0000C0
0000C0
000080
000180
000180
000180
000180
000180
000100
000300
000300
ENDCHAR
STARTCHAR 00B7
ENCODING 183
SWIDTH 210 0
DWIDTH 14 0
BBX 4 4 6 21
BITMAP
60
F0
F0
60
ENDCHAR
STARTCHAR 00B8
ENCODING 184
SWIDTH 225 0
DWIDTH 15 0
BBX 10 14 -3 -14
BITMAP
0C00
0C00
0800
1F00
0380
00C0
00C0
00C0
00C0
00C0
0180
0700
FE00
F000
ENDCHAR
STARTCHAR 00B9
ENCODING 185
SWIDTH 345 0
DWIDTH 23 0
BBX 10 25 8 22
BITMAP
01C0
0FC0
7EC0
E0C0
00C0
0080
0080
0180
0180
0180
0180
0100
0100
0300
0300
0300
0300
0200
0200
0600
0600
0600
0600
0400
0C00
ENDCHAR
STARTCHAR 00BA
ENCODING 186
SWIDTH 420 0
DWIDTH 28 0
BBX 20 25 7 22
BITMAP
007E00
01FF80
0701C0
0E0060
1C0060
180030
300030
300030
600030
600030
600030
400030
C00030
C00030
C00020
C00060
C00060
C00060
C000C0
C000C0
400180
600300
300600
3C3C00
0FF800
ENDCHAR
STARTCHAR 00BB
ENCODING 187
SWIDTH 420 0
DWIDTH 28 0
BBX 22 25 2 6
BITMAP
0C0600
060300
060300
030180
0301C0
0180C0
01C060
00C060
006030
006038
003018
00381C
00180C
00180C
003018
006030
00C070
0180E0
0301C0
070380
0E0700
1C0E00
381C00
703800
E07000
ENDCHAR
STARTCHAR 00BC
ENCODING 188
SWIDTH 690 0
DWIDTH 46 0
BBX 33 47 8 0
BITMAP
00E0000000
07E0000000
3E40000000
7040000000
00C0000000
00C0000C00
00C0001C00
00C0001800
0080003000
0180006000
018000E000
018000C000
0180018000
0180030000
0100060000
03000E0000
03000C0000
0300180000
0300300000
0300700000
0200600000
0600C00300
0601800700
0603000E00
0607001E00
0006003600
000C006600
001800C600
0038018600
0030038400
0060030C00
00C0060C00
01800C0C00
0380180C00
0300300C00
0600600800
0C00C01800
1C01801800
1803001800
3003FFFF80
6000001800
C000001000
0000003000
0000003000
0000003000
0000003000
0000002000
ENDCHAR
STARTCHAR 00BD
ENCODING 189
SWIDTH 705 0
DWIDTH 47 0
BBX 36 47 7 0
BITMAP
00E0000000
07E0000000
3E60000000
7060000000
0040000000
00C0000C00
00C0001800
00C0003800
00C0003000
0080006000
008000C000
0180018000
0180038000
0180030000
0180060000
01000C0000
01001C0000
0300180000
0300300000
0300600000
0300C00000
0201C07F00
020181FFC0
06030380C0
0606060060
000E0C0020
000C0C0030
0018180030
0030180020
0060000060
00E0000060
00C00000C0
0180000180
0300000300
0700000600
0600000C00
0C00001800
1800003000
3000006000
700001C000
6000038000
C000060000
00000C0000
0000180000
0000300000
00007FFFC0
00007FFFC0
ENDCHAR
STARTCHAR 00BE
ENCODING 190
SWIDTH 750 0
DWIDTH 50 0
BBX 41 48 5 0
BITMAP
001C00000000
00FF80000000
0381C0000000
070060000000
0C0020000000
0C0030000000
180030000E00
000030000C00
000060001800
000060003000
0000C0007000
00038000E000
003E0000C000
01FC00018000
000700030000
000180070000
0000C0060000
0000C00C0000
0000C0180000
C000C0300000
C000C0700000
4000C0600000
600180C00600
700301800E00
380E03801E00
1FFC03003600
03E006007400
00000C006400
00001800CC00
000038018C00
000030030C00
000060060C00
0000C00C0800
0001C0180800
000180301800
000300601800
000600C01800
000C00C01800
001C01801000
001803003000
003007FFFF80
006000003000
006000003000
000000003000
000000002000
000000006000
000000006000
000000006000
ENDCHAR
STARTCHAR 00BF
ENCODING 191
SWIDTH 420 0
DWIDTH 28 0
BBX 22 48 0 -12
BITMAP
000060
0000F0
0000E0
000040
000000
000000
000000
000000
000000
000000
000000
000000
000000
000180
000180
000100
000300
000300
000600
000E00
000C00
003800
007000
00E000
018000
030000
060000
0C0000
180000
180000
300000
600000
600000
600000
C00000
C00000
C00000
C0000C
80000C
800008
C00018
C00038
C00030
600060
6000C0
380380
1F1F00
07FC00
ENDCHAR
STARTCHAR 00C0
ENCODING 192
SWIDTH 570 0
DWIDTH 38 0
BBX 36 60 -2 0
BITMAP
0000030000
0000018000
0000018000
000000C000
000000C000
0000006000
0000006000
0000003000
0000000000
0000000000
0000000000
0000000000
0000000000
0000006000
000000E000
000001B000
000001B000
0000033000
0000033000
0000061000
0000061800
00000C1800
00000C1800
0000181800
0000180800
0000300C00
0000300C00
0000600C00
0000400C00
0000C00400
0001800600
0001800600
0003000600
0003000600
0006000200
0006000300
000C000300
000C000300
0018000300
0018000300
0030000100
0030000180
0060000180
00C0000180
00FFFFFF80
01FFFFFF80
01800000C0
03000000C0
03000000C0
06000000C0
0600000040
0C00000060
0C00000060
1800000060
1800000060
3000000020
2000000030
6000000030
C000000030
C000000030
ENDCHAR
STARTCHAR 00C1
ENCODING 193
SWIDTH 570 0
DWIDTH 38 0
BBX 36 60 -2 0
BITMAP
00000000E0
00000001C0
0000000380
0000000300
0000000600
0000000C00
0000001800
0000003000
0000000000
0000000000
0000000000
0000000000
0000000000
0000006000
000000E000
000001B000
000001B000
0000033000
0000033000
0000061000
0000061800
00000C1800
00000C1800
0000181800
0000180800
0000300C00
0000300C00
0000600C00
0000400C00
0000C00400
0001800600
0001800600
0003000600
0003000600
0006000200
0006000300
000C000300
000C000300
0018000300
0018000300
0030000100
0030000180
0060000180
00C0000180
00FFFFFF80
01FFFFFF80
01800000C0
03000000C0
03000000C0
06000000C0
0600000040
0C00000060
0C00000060
1800000060
1800000060
3000000020
2000000030
6000000030
C000000030
C000000030
ENDCHAR
STARTCHAR 00C2
ENCODING 194
SWIDTH 570 0
DWIDTH 38 0
BBX 36 60 -2 0
BITMAP
0000001800
0000003C00
0000007E00
000000E600
0000018300
0000030180
00000601C0
00000C00E0
0000100000
0000000000
0000000000
0000000000
0000000000
0000006000
000000E000
000001B000
000001B000
0000033000
0000033000
0000061000
0000061800
00000C1800
00000C1800
0000181800
0000180800
0000300C00
0000300C00
0000600C00
0000400C00
0000C00400
0001800600
0001800600
0003000600
0003000600
0006000200
0006000300
000C000300
000C000300
0018000300
0018000300
0030000100
0030000180
0060000180
00C0000180
00FFFFFF80
01FFFFFF80
01800000C0
03000000C0
03000000C0
06000000C0
0600000040
0C00000060
0C00000060
1800000060
1800000060
3000000020
2000000030
6000000030
C000000030
C000000030
ENDCHAR
STARTCHAR 00C3
ENCODING 195
SWIDTH 570 0
DWIDTH 38 0
BBX 38 59 -2 0
BITMAP
0000010004
00000FE00C
00001C700C
0000381818
0000300FF0
00006007E0
0000000000
0000000000
0000000000
0000000000
0000000000
0000000000
0000006000
000000E000
000001B000
000001B000
0000033000
0000033000
0000061000
0000061800
00000C1800
00000C1800
0000181800
0000180800
0000300C00
0000300C00
0000600C00
0000400C00
0000C00400
0001800600
0001800600
0003000600
0003000600
0006000200
0006000300
000C000300
000C000300
0018000300
0018000300
0030000100
0030000180
0060000180
00C0000180
00FFFFFF80
01FFFFFF80
01800000C0
03000000C0
03000000C0
06000000C0
0600000040
0C00000060
0C00000060
1800000060
1800000060
3000000020
2000000030
6000000030
C000000030
C000000030
ENDCHAR
STARTCHAR 00C4
ENCODING 196
SWIDTH 570 0
DWIDTH 38 0
BBX 37 58 -2 0
BITMAP
00001C0070
00001C0078
00001C0070
0000000000
0000000000
0000000000
0000000000
0000000000
0000000000
0000000000
0000000000
0000006000
000000E000
000001B000
000001B000
0000033000
0000033000
0000061000
0000061800
00000C1800
00000C1800
0000181800
0000180800
0000300C00
0000300C00
0000600C00
0000400C00
0000C00400
0001800600
0001800600
0003000600
0003000600
0006000200
0006000300
000C000300
000C000300
0018000300
0018000300
0030000100
0030000180
0060000180
00C0000180
00FFFFFF80
01FFFFFF80
01800000C0
03000000C0
03000000C0
06000000C0
0600000040
0C00000060
0C00000060
1800000060
1800000060
3000000020
2000000030
6000000030
C000000030
C000000030
ENDCHAR
STARTCHAR 00C5
ENCODING 197
SWIDTH 570 0
DWIDTH 38 0
BBX 36 61 -2 0
BITMAP
0000003E00
000000FF00
000000C380
0000018180
0000030180
0000030180
0000030180
0000030300
0000018700
000001FE00
000000F800
0000000000
0000000000
0000000000
0000006000
000000E000
000001B000
000001B000
0000033000
0000033000
0000061000
0000061800
00000C1800
00000C1800
0000181800
0000180800
0000300C00
0000300C00
0000600C00
0000400C00
0000C00400
0001800600
0001800600
0003000600
0003000600
0006000200
0006000300
000C000300
000C000300
0018000300
0018000300
0030000100
0030000180
0060000180
00C0000180
00FFFFFF80
01FFFFFF80
01800000C0
03000000C0
03000000C0
06000000C0
0600000040
0C00000060
0C00000060
1800000060
1800000060
3000000020
2000000030
6000000030
C000000030
C000000030
ENDCHAR
STARTCHAR 00C6
ENCODING 198
SWIDTH 855 0
DWIDTH 57 0
BBX 60 47 -1 0
BITMAP
000000003FFFFFF0
0000000038000000
0000000068000000
00000000D8000000
00000001D8000000
0000000198000000
0000000318000000
0000000618000000
0000000E18000000
0000000C10000000
0000001810000000
0000003030000000
0000006030000000
0000006030000000
000000C030000000
0000018030000000
0000030020000000
0000030020000000
0000060060000000
00000C0060000000
0000180060000000
000018007FFFF800
000030007FFFF800
0000600060000000
0000C00040000000
0001C00040000000
00018000C0000000
00030000C0000000
00060000C0000000
000E0000C0000000
000C0000C0000000
001FFFFFC0000000
003FFFFF80000000
0070000180000000
0060000180000000
00C0000180000000
0180000180000000
0380000180000000
0300000180000000
0600000100000000
0C00000100000000
1C00000300000000
1800000300000000
3000000300000000
6000000300000000
E0000003FFFFFC00
C0000003FFFFFC00
ENDCHAR
STARTCHAR 00C7
ENCODING 199
SWIDTH 615 0
DWIDTH 41 0
BBX 36 62 4 -14
BITMAP
00003FE000
0001FFF800
0007801E00
001E000700
0038000380
00700001C0
00E00000C0
01C0000060
0180000060
0300000020
0700000030
0600000030
0C00000030
0C00000030
0C00000030
1800000000
1800000000
1000000000
3000000000
3000000000
3000000000
3000000000
2000000000
6000000000
6000000000
6000000000
6000000000
4000000000
4000000000
C000000000
C000000000
C000000000
C000000000
C000000000
C000000100
C000000300
4000000300
6000000600
6000000600
6000000C00
3000001C00
3000001800
1800003000
1C0000E000
0E0001C000
0700078000
03E03E0000
00FFF80000
0006000000
0004000000
000C000000
000F000000
0007C00000
0000C00000
0000600000
0000600000
0000600000
0000400000
0000C00000
0003800000
001F000000
007C000000
ENDCHAR
STARTCHAR 00C8
ENCODING 200
SWIDTH 540 0
DWIDTH 36 0
BBX 36 60 3 0
BITMAP
0000600000
0000300000
0000300000
0000180000
0000080000
00000C0000
0000060000
0000060000
0000000000
0000000000
0000000000
0000000000
0000000000
00FFFFFFF0
00C0000000
0080000000
0180000000
0180000000
0180000000
0180000000
0180000000
0100000000
0300000000
0300000000
0300000000
0300000000
0200000000
0200000000
0600000000
0600000000
0600000000
0600000000
0400000000
0C00000000
0C00000000
0FFFFFF800
0FFFFFF800
0C00000000
0800000000
1800000000
1800000000
1800000000
1800000000
1800000000
1000000000
3000000000
3000000000
3000000000
3000000000
3000000000
2000000000
6000000000
6000000000
6000000000
6000000000
4000000000
4000000000
C000000000
FFFFFFF000
FFFFFFF000
ENDCHAR
STARTCHAR 00C9
ENCODING 201
SWIDTH 540 0
DWIDTH 36 0
BBX 36 60 3 0
BITMAP
0000001C00
0000003800
0000003000
0000006000
000000C000
0000018000
0000030000
0000070000
0000000000
0000000000
0000000000
0000000000
0000000000
00FFFFFFF0
00C0000000
0080000000
0180000000
0180000000
0180000000
0180000000
0180000000
0100000000
0300000000
0300000000
0300000000
0300000000
0200000000
0200000000
0600000000
0600000000
0600000000
0600000000
0400000000
0C00000000
0C00000000
0FFFFFF800
0FFFFFF800
0C00000000
0800000000
1800000000
1800000000
1800000000
1800000000
1800000000
1000000000
3000000000
3000000000
3000000000
3000000000
3000000000
2000000000
6000000000
6000000000
6000000000
6000000000
4000000000
4000000000
C000000000
FFFFFFF000
FFFFFFF000
ENDCHAR
STARTCHAR 00CA
ENCODING 202
SWIDTH 540 0
DWIDTH 36 0
BBX 36 60 3 0
BITMAP
0000030000
0000078000
00000EC000
00001CE000
0000386000
0000703000
0000C01800
0001801C00
0000000000
0000000000
0000000000
0000000000
0000000000
00FFFFFFF0
00C0000000
0080000000
0180000000
0180000000
0180000000
0180000000
0180000000
0100000000
0300000000
0300000000
0300000000
0300000000
0200000000
0200000000
0600000000
0600000000
0600000000
0600000000
0400000000
0C00000000
0C00000000
0FFFFFF800
0FFFFFF800
0C00000000
0800000000
1800000000
1800000000
1800000000
1800000000
1800000000
1000000000
3000000000
3000000000
3000000000
3000000000
3000000000
2000000000
6000000000
6000000000
6000000000
6000000000
4000000000
4000000000
C000000000
FFFFFFF000
FFFFFFF000
ENDCHAR
STARTCHAR 00CB
ENCODING 203
SWIDTH 540 0
DWIDTH 36 0
BBX 36 58 3 0
BITMAP
0003C00700
0003C00F00
0003800600
0000000000
0000000000
0000000000
0000000000
0000000000
0000000000
0000000000
0000000000
00FFFFFFF0
00C0000000
0080000000
0180000000
0180000000
0180000000
0180000000
0180000000
0100000000
0300000000
0300000000
0300000000
0300000000
0200000000
0200000000
0600000000
0600000000
0600000000
0600000000
0400000000
0C00000000
0C00000000
0FFFFFF800
0FFFFFF800
0C00000000
0800000000
1800000000
1800000000
1800000000
1800000000
1800000000
1000000000
3000000000
3000000000
3000000000
3000000000
3000000000
2000000000
6000000000
6000000000
6000000000
6000000000
4000000000
4000000000
C000000000
FFFFFFF000
FFFFFFF000
ENDCHAR
STARTCHAR 00CC
ENCODING 204
SWIDTH 240 0
DWIDTH 16 0
BBX 11 60 4 0
BITMAP
0600
0300
0300
0180
0180
00C0
0040
0060
0000
0000
0000
0000
0000
00C0
00C0
00C0
0080
0080
0180
0180
0180
0180
0100
0300
0300
0300
0300
0300
0200
0600
0600
0600
0600
0600
0400
0C00
0C00
0C00
0C00
0C00
0800
1800
1800
1800
1800
1000
1000
3000
3000
3000
3000
2000
6000
6000
6000
6000
6000
4000
C000
C000
ENDCHAR
STARTCHAR 00CD
ENCODING 205
SWIDTH 240 0
DWIDTH 16 0
BBX 18 60 4 0
BITMAP
0001C0
000380
000300
000600
000C00
001800
003000
006000
000000
000000
000000
000000
000000
00C000
00C000
00C000
008000
008000
018000
018000
018000
018000
010000
030000
030000
030000
030000
030000
020000
060000
060000
060000
060000
060000
040000
0C0000
0C0000
0C0000
0C0000
0C0000
080000
180000
180000
180000
180000
100000
100000
300000
300000
300000
300000
200000
600000
600000
600000
600000
600000
400000
C00000
C00000
ENDCHAR
STARTCHAR 00CE
ENCODING 206
SWIDTH 240 0
DWIDTH 16 0
BBX 18 60 4 0
BITMAP
003000
007800
00FC00
01CE00
038600
060300
0C0380
1801C0
000000
000000
000000
000000
000000
00C000
00C000
00C000
008000
008000
018000
018000
018000
018000
010000
030000
030000
030000
030000
030000
020000
060000
060000
060000
060000
060000
040000
0C0000
0C0000
0C0000
0C0000
0C0000
080000
180000
180000
180000
180000
100000
100000
300000
300000
300000
300000
200000
600000
600000
600000
600000
600000
400000
C00000
C00000
ENDCHAR
STARTCHAR 00CF
ENCODING 207
SWIDTH 240 0
DWIDTH 16 0
BBX 20 58 4 0
BITMAP
3800F0
3C00F0
3800E0
000000
000000
000000
000000
000000
000000
000000
000000
00C000
00C000
00C000
008000
008000
018000
018000
018000
018000
010000
030000
030000
030000
030000
030000
020000
060000
060000
060000
060000
060000
040000
0C0000
0C0000
0C0000
0C0000
0C0000
080000
180000
180000
180000
180000
100000
100000
300000
300000
300000
300000
200000
600000
600000
600000
600000
600000
400000
C00000
C00000
ENDCHAR
STARTCHAR 00D0
ENCODING 208
SWIDTH 645 0
DWIDTH 43 0
BBX 37 47 4 0
BITMAP
00FFFFC000
00C003F000
0080003C00
0180000E00
0180000300
0180000180
01800000C0
01000000C0
0100000060
0300000060
0300000030
0300000030
0300000030
0200000010
0200000010
0600000018
0600000018
0600000018
0600000010
0400000010
0C00000030
0C00000030
FFFFC00030
FFFFC00030
0C00000030
0800000020
1800000060
1800000060
1800000060
1800000040
18000000C0
10000000C0
3000000180
3000000180
3000000300
3000000300
2000000600
2000000E00
6000001C00
6000003800
6000007000
600000E000
400001C000
4000070000
C0003E0000
FFFFF80000
FFFF800000
ENDCHAR
STARTCHAR 00D1
ENCODING 209
SWIDTH 675 0
DWIDTH 45 0
BBX 41 59 3 0
BITMAP
000002001800
00001F801800
000038E03000
000060707000
0000C01FE000
0000C00FC000
000000000000
000000000000
000000000000
000000000000
000000000000
000000000000
00C000000180
00E000000180
00E000000180
01B000000180
01B000000100
019800000300
019800000300
018C00000300
010C00000300
030600000300
030600000200
030300000600
030300000600
030180000600
060180000600
0600C0000600
0600C0000400
060060000C00
060060000C00
060030000C00
0C0030000C00
0C0018000C00
0C0018000800
0C000C001800
0C000C001800
080006001800
180006001800
180003001800
180003003000
180001803000
180001803000
100000C03000
300000C03000
300000602000
300000606000
300000306000
300000306000
200000186000
600000186000
6000000C4000
6000000CC000
60000006C000
60000006C000
40000003C000
C0000003C000
C00000018000
C00000018000
ENDCHAR
STARTCHAR 00D2
ENCODING 210
SWIDTH 645 0
DWIDTH 43 0
BBX 37 62 4 -1
BITMAP
0000300000
0000180000
0000180000
00000C0000
00000C0000
0000060000
0000060000
0000030000
0000010000
0000000000
0000000000
0000000000
0000000000
00003FE000
0001FFF800
0007801E00
001E000700
0038000380
00700001C0
00E00000C0
01C0000060
0180000060
0300000030
0600000030
0600000030
0C00000010
0C00000010
1800000010
1800000018
1000000018
3000000018
3000000018
3000000010
2000000010
6000000030
6000000030
6000000030
6000000030
6000000020
4000000060
C000000060
C000000060
C000000060
C000000040
C0000000C0
C0000000C0
C000000080
C000000180
C000000180
C000000300
4000000300
6000000600
6000000C00
2000001C00
3000001800
1800003000
180000E000
0E0001C000
0700078000
03E03E0000
00FFF80000
0007000000
ENDCHAR
STARTCHAR 00D3
ENCODING 211
SWIDTH 645 0
DWIDTH 43 0
BBX 37 62 4 -1
BITMAP
0000000600
0000000C00
0000001800
0000003000
0000006000
000000C000
000001C000
0000018000
0000030000
0000000000
0000000000
0000000000
0000000000
00003FE000
0001FFF800
0007801E00
001E000700
0038000380
00700001C0
00E00000C0
01C0000060
0180000060
0300000030
0600000030
0600000030
0C00000010
0C00000010
1800000010
1800000018
1000000018
3000000018
3000000018
3000000010
2000000010
6000000030
6000000030
6000000030
6000000030
6000000020
4000000060
C000000060
C000000060
C000000060
C000000040
C0000000C0
C0000000C0
C000000080
C000000180
C000000180
C000000300
4000000300
6000000600
6000000C00
2000001C00
3000001800
1800003000
180000E000
0E0001C000
0700078000
03E03E0000
00FFF80000
0007000000
ENDCHAR
STARTCHAR 00D4
ENCODING 212
SWIDTH 645 0
DWIDTH 43 0
BBX 37 61 4 -1
BITMAP
000001C000
000003E000
00000E6000
00001C3000
0000383800
0000701C00
0000E00C00
0001C00600
0000000000
0000000000
0000000000
0000000000
00003FE000
0001FFF800
0007801E00
001E000700
0038000380
00700001C0
00E00000C0
01C0000060
0180000060
0300000030
0600000030
0600000030
0C00000010
0C00000010
1800000010
1800000018
1000000018
3000000018
3000000018
3000000010
2000000010
6000000030
6000000030
6000000030
6000000030
6000000020
4000000060
C000000060
C000000060
C000000060
C000000040
C0000000C0
C0000000C0
C000000080
C000000180
C000000180
C000000300
4000000300
6000000600
6000000C00
2000001C00
3000001800
1800003000
180000E000
0E0001C000
0700078000
03E03E0000
00FFF80000
0007000000
ENDCHAR
STARTCHAR 00D5
ENCODING 213
SWIDTH 645 0
DWIDTH 43 0
BBX 37 60 4 -1
BITMAP
00007C00C0
0001FF00C0
0001818180
000300E780
0003007F00
0006000800
0000000000
0000000000
0000000000
0000000000
0000000000
00003FE000
0001FFF800
0007801E00
001E000700
0038000380
00700001C0
00E00000C0
01C0000060
0180000060
0300000030
0600000030
0600000030
0C00000010
0C00000010
1800000010
1800000018
1000000018
3000000018
3000000018
3000000010
2000000010
6000000030
6000000030
6000000030
6000000030
6000000020
4000000060
C000000060
C000000060
C000000060
C000000040
C0000000C0
C0000000C0
C000000080
C000000180
C000000180
C000000300
4000000300
6000000600
6000000C00
2000001C00
3000001800
1800003000
180000E000
0E0001C000
0700078000
03E03E0000
00FFF80000
0007000000
ENDCHAR
STARTCHAR 00D6
ENCODING 214
SWIDTH 645 0
DWIDTH 43 0
BBX 37 60 4 -1
BITMAP
0000C00300
0001E00780
0001C00700
0000000000
0000000000
0000000000
0000000000
0000000000
0000000000
0000000000
0000000000
00003FE000
0001FFF800
0007801E00
001E000700
0038000380
00700001C0
00E00000C0
01C0000060
0180000060
0300000030
0600000030
0600000030
0C00000010
0C00000010
1800000010
1800000018
1000000018
3000000018
3000000018
3000000010
2000000010
6000000030
6000000030
6000000030
6000000030
6000000020
4000000060
C000000060
C000000060
C000000060
C000000040
C0000000C0
C0000000C0
C000000080
C000000180
C000000180
C000000300
4000000300
6000000600
6000000C00
2000001C00
3000001800
1800003000
180000E000
0E0001C000
0700078000
03E03E0000
00FFF80000
0007000000
ENDCHAR
STARTCHAR 00D7
ENCODING 215
SWIDTH 495 0
DWIDTH 33 0
BBX 30 27 0 0
BITMAP
02000008
0700001C
03000038
01800070
00C000C0
00E00180
00700300
00300E00
00181C00
000C3800
000E7000
0006E000
00038000
00038000
0007C000
001CE000
00386000
00703000
00E01800
01C01C00
03000C00
06000600
0C000300
38000180
700001C0
E00000C0
40000040
ENDCHAR
STARTCHAR 00D8
ENCODING 216
SWIDTH 645 0
DWIDTH 43 0
BBX 42 51 2 -2
BITMAP
0000000000C0
00000FF80180
00007FFE0380
0001E0078300
00078001C600
000E0000EC00
001C00007800
003800003800
007000003800
006000007800
00C00000CC00
018000018C00
018000038C00
030000030400
030000060400
0600000C0400
0600001C0600
040000380600
0C0000300600
0C0000600400
0C0000C00400
080001C00400
180001800C00
180003000C00
180006000C00
18000C000C00
18001C000800
100018001800
300030001800
300060001800
3000C0001800
3001C0001000
300180003000
300300003000
300600002000
300E00006000
301C00006000
30180000C000
10300000C000
186000018000
18E000030000
08C000070000
0D8000060000
0700000C0000
060000380000
0F8000700000
0DC001E00000
18F80F800000
303FFE000000
6001C0000000
E00000000000
ENDCHAR
STARTCHAR 00D9
ENCODING 217
SWIDTH 645 0
DWIDTH 43 0
BBX 37 61 5 -1
BITMAP
0000300000
0000300000
0000180000
0000180000
00000C0000
0000040000
0000060000
0000030000
0000000000
0000000000
0000000000
0000000000
0000000000
0600000018
0600000018
0600000018
0600000010
0600000030
0400000030
0C00000030
0C00000030
0C00000030
0C00000020
0C00000060
0800000060
1800000060
1800000060
1800000060
1800000040
10000000C0
10000000C0
30000000C0
30000000C0
30000000C0
3000000080
2000000180
6000000180
6000000180
6000000180
6000000100
6000000100
4000000300
C000000300
C000000300
C000000300
C000000200
C000000600
C000000600
C000000600
C000000C00
C000000C00
C000001800
6000003800
6000007000
7000006000
300001C000
1C00038000
0E000F0000
07C07C0000
01FFF00000
001F000000
ENDCHAR
STARTCHAR 00DA
ENCODING 218
SWIDTH 645 0
DWIDTH 43 0
BBX 37 61 5 -1
BITMAP
0000000C00
0000001800
0000003000
0000006000
000000E000
000000C000
0000018000
0000030000
0000000000
0000000000
0000000000
0000000000
0000000000
0600000018
0600000018
0600000018
0600000010
0600000030
0400000030
0C00000030
0C00000030
0C00000030
0C00000020
0C00000060
0800000060
1800000060
1800000060
1800000060
1800000040
10000000C0
10000000C0
30000000C0
30000000C0
30000000C0
3000000080
2000000180
6000000180
6000000180
6000000180
6000000100
6000000100
4000000300
C000000300
C000000300
C000000300
C000000200
C000000600
C000000600
C000000600
C000000C00
C000000C00
C000001800
6000003800
6000007000
7000006000
300001C000
1C00038000
0E000F0000
07C07C0000
01FFF00000
001F000000
ENDCHAR
STARTCHAR 00DB
ENCODING 219
SWIDTH 645 0
DWIDTH 43 0
BBX 37 61 5 -1
BITMAP
0000018000
000003C000
000006C000
00000C6000
0000383000
0000703800
0000E01800
0001C00C00
0000000000
0000000000
0000000000
0000000000
0000000000
0600000018
0600000018
0600000018
0600000010
0600000030
0400000030
0C00000030
0C00000030
0C00000030
0C00000020
0C00000060
0800000060
1800000060
1800000060
1800000060
1800000040
10000000C0
10000000C0
30000000C0
30000000C0
30000000C0
3000000080
2000000180
6000000180
6000000180
6000000180
6000000100
6000000100
4000000300
C000000300
C000000300
C000000300
C000000200
C000000600
C000000600
C000000600
C000000C00
C000000C00
C000001800
6000003800
6000007000
7000006000
300001C000
1C00038000
0E000F0000
07C07C0000
01FFF00000
001F000000
ENDCHAR
STARTCHAR 00DC
ENCODING 220
SWIDTH 645 0
DWIDTH 43 0
BBX 37 59 5 -1
BITMAP
0001C00700
0001C00700
0001C00700
0000000000
0000000000
0000000000
0000000000
0000000000
0000000000
0000000000
0000000000
0600000018
0600000018
0600000018
0600000010
0600000030
0400000030
0C00000030
0C00000030
0C00000030
0C00000020
0C00000060
0800000060
1800000060
1800000060
1800000060
1800000040
10000000C0
10000000C0
30000000C0
30000000C0
30000000C0
3000000080
2000000180
6000000180
6000000180
6000000180
6000000100
6000000100
4000000300
C000000300
C000000300
C000000300
C000000200
C000000600
C000000600
C000000600
C000000C00
C000000C00
C000001800
6000003800
6000007000
7000006000
300001C000
1C00038000
0E000F0000
07C07C0000
01FFF00000
001F000000
ENDCHAR
STARTCHAR 00DD
ENCODING 221
SWIDTH 570 0
DWIDTH 38 0
BBX 36 60 6 0
BITMAP
000000E000
000001C000
0000018000
0000030000
0000060000
00000C0000
0000180000
0000300000
0000700000
0000000000
0000000000
0000000000
0000000000
C000000070
6000000060
60000000C0
7000000180
3000000380
3000000300
1800000600
1800000C00
0C00001C00
0C00001800
0C00003000
0600006000
060000E000
030000C000
0300018000
0100030000
0180060000
0180060000
00C00C0000
00C0180000
0040300000
0060300000
0060600000
0030C00000
0031800000
0011800000
001B000000
000E000000
000C000000
000C000000
000C000000
0008000000
0018000000
0018000000
0018000000
0018000000
0018000000
0010000000
0030000000
0030000000
0030000000
0030000000
0030000000
0020000000
0060000000
0060000000
0060000000
ENDCHAR
STARTCHAR 00DE
ENCODING 222
SWIDTH 570 0
DWIDTH 38 0
BBX 32 47 3 0
BITMAP
00C00000
00C00000
00800000
01800000
01800000
01800000
01800000
01800000
01000000
03000000
03FFFF00
03FFFFE0
030000F0
02000038
0200000C
0600000E
06000006
06000003
06000003
04000003
0C000003
0C000003
0C000003
0C000003
0C000002
08000006
18000006
1800000C
1800000C
18000018
18000030
10000060
300001C0
30000F80
3FFFFE00
3FFFF000
30000000
20000000
60000000
60000000
60000000
60000000
40000000
40000000
C0000000
C0000000
C0000000
ENDCHAR
STARTCHAR 00DF
ENCODING 223
SWIDTH 555 0
DWIDTH 37 0
BBX 30 51 2 -1
BITMAP
0001FC00
0007FF00
000E0380
003801C0
003000C0
00600060
00C00060
00C00060
01800060
01800060
01800060
030000E0
030000C0
030000C0
03000180
03000300
02000300
06000600
06000600
06000C00
06000C00
06001800
04001800
0C001800
0C001800
0C001800
0C000800
08000C00
18000600
18000200
18000100
180000C0
18000060
10000030
30000010
30000018
3000000C
3000000C
3000000C
2000000C
6000000C
6000000C
60000018
60000018
60000030
40000070
C00000E0
C1C00380
C0F81F00
C03FFC00
0003C000
ENDCHAR
STARTCHAR 00E0
ENCODING 224
SWIDTH 510 0
DWIDTH 34 0
BBX 29 51 1 -1
BITMAP
0000C000
0000E000
00006000
00003000
00003000
00001800
00001800
00000C00
00000C00
00000000
00000000
00000000
00000000
00000000
0001F800
000FFF00
003C03C0
00E000E0
01C00060
03800030
07000030
06000018
0C000018
0C000018
00000018
00000010
00000010
00000030
00000030
00000030
0001FFF0
003FFFE0
01FC0060
07800060
0E000060
1C000060
30000060
60000040
600000C0
C00000C0
C00000C0
C00001C0
C00003C0
C0000380
C0000780
C0001D80
60003980
3000E180
1C07C180
0FFF0180
00F00000
ENDCHAR
STARTCHAR 00E1
ENCODING 225
SWIDTH 510 0
DWIDTH 34 0
BBX 29 51 1 -1
BITMAP
00000018
00000030
00000060
000000C0
00000180
00000300
00000700
00000600
00000C00
00000000
00000000
00000000
00000000
00000000
0001F800
000FFF00
003C03C0
00E000E0
01C00060
03800030
07000030
06000018
0C000018
0C000018
00000018
00000010
00000010
00000030
00000030
00000030
0001FFF0
003FFFE0
01FC0060
07800060
0E000060
1C000060
30000060
60000040
600000C0
C00000C0
C00000C0
C00001C0
C00003C0
C0000380
C0000780
C0001D80
60003980
3000E180
1C07C180
0FFF0180
00F00000
ENDCHAR
STARTCHAR 00E2
ENCODING 226
SWIDTH 510 0
DWIDTH 34 0
BBX 29 50 1 -1
BITMAP
00000700
00000F00
00003980
000070C0
0000E0E0
0001C060
00038030
00070018
00000000
00000000
00000000
00000000
00000000
0001F800
000FFF00
003C03C0
00E000E0
01C00060
03800030
07000030
06000018
0C000018
0C000018
00000018
00000010
00000010
00000030
00000030
00000030
0001FFF0
003FFFE0
01FC0060
07800060
0E000060
1C000060
30000060
60000040
600000C0
C00000C0
C00000C0
C00001C0
C00003C0
C0000380
C0000780
C0001D80
60003980
3000E180
1C07C180
0FFF0180
00F00000
ENDCHAR
STARTCHAR 00E3
ENCODING 227
SWIDTH 510 0
DWIDTH 34 0
BBX 32 49 1 -1
BITMAP
0001F003
0003FC03
00060E06
000C030E
000C01FC
00180060
00000000
00000000
00000000
00000000
00000000
00000000
0001F800
000FFF00
003C03C0
00E000E0
01C00060
03800030
07000030
06000018
0C000018
0C000018
00000018
00000010
00000010
00000030
00000030
00000030
0001FFF0
003FFFE0
01FC0060
07800060
0E000060
1C000060
30000060
60000040
600000C0
C00000C0
C00000C0
C00001C0
C00003C0
C0000380
C0000780
C0001D80
60003980
3000E180
1C07C180
0FFF0180
00F00000
ENDCHAR
STARTCHAR 00E4
ENCODING 228
SWIDTH 510 0
DWIDTH 34 0
BBX 31 49 1 -1
BITMAP
0003000C
0007801E
0007001C
00020008
00000000
00000000
00000000
00000000
00000000
00000000
00000000
00000000
0001F800
000FFF00
003C03C0
00E000E0
01C00060
03800030
07000030
06000018
0C000018
0C000018
00000018
00000010
00000010
00000030
00000030
00000030
0001FFF0
003FFFE0
01FC0060
07800060
0E000060
1C000060
30000060
60000040
600000C0
C00000C0
C00000C0
C00001C0
C00003C0
C0000380
C0000780
C0001D80
60003980
3000E180
1C07C180
0FFF0180
00F00000
ENDCHAR
STARTCHAR 00E5
ENCODING 229
SWIDTH 510 0
DWIDTH 34 0
BBX 29 52 1 -1
BITMAP
00000600
00001FC0
000038C0
00006060
00006060
0000C060
0000C060
0000C060
0000C0C0
00007180
00003F00
00000800
00000000
00000000
00000000
0001F800
000FFF00
003C03C0
00E000E0
01C00060
03800030
07000030
06000018
0C000018
0C000018
00000018
00000010
00000010
00000030
00000030
00000030
0001FFF0
003FFFE0
01FC0060
07800060
0E000060
1C000060
30000060
60000040
600000C0
C00000C0
C00000C0
C00001C0
C00003C0
C0000380
C0000780
C0001D80
60003980
3000E180
1C07C180
0FFF0180
00F00000
ENDCHAR
STARTCHAR 00E6
ENCODING 230
SWIDTH 810 0
DWIDTH 54 0
BBX 52 37 1 -1
BITMAP
0001F80003F000
001FFE001FFE00
007C0380380700
00E001C0E00180
01C000C1C000C0
03000063800060
07000067000060
06000066000020
0C00002C000030
0C000038000030
0C000038000030
00000070000030
00000070000030
00000060000030
00000060000030
0001FFFFFFFFF0
007FFFFFFFFFE0
01F800C0000000
078000C0000000
0E0000C0000000
1C0000C0000000
380000C0000000
300000C0000000
600001C0000000
600001C0000000
C00001C0000000
C00001C0000000
C00001C0000000
C0000140000000
C0000360000000
C0000660000000
40000C30000200
60003818000E00
3000F01C003C00
1E07C00781F000
0FFF0003FFC000
00F000003C0000
ENDCHAR
STARTCHAR 00E7
ENCODING 231
SWIDTH 480 0
DWIDTH 32 0
BBX 28 50 2 -14
BITMAP
0003F800
001FFE00
00780780
00E001C0
01C000C0
03000060
07000030
06000030
0C000030
18000010
18000010
10000010
30000000
30000000
20000000
60000000
60000000
60000000
40000000
40000000
C0000000
C0000000
C0000000
C0000000
C0000000
40000040
400000C0
600000C0
60000180
20000180
30000300
38000600
18000C00
0E003800
0781F000
01FFC000
001C0000
00180000
00100000
003E0000
001F0000
00038000
00018000
00018000
00018000
00018000
00030000
00060000
003C0000
01F00000
ENDCHAR
STARTCHAR 00E8
ENCODING 232
SWIDTH 480 0
DWIDTH 32 0
BBX 28 51 2 -1
BITMAP
00030000
00018000
00018000
0000C000
0000C000
00006000
00002000
00003000
00001800
00000000
00000000
00000000
00000000
00000000
0003F800
001FFE00
003C0700
00E00180
01C000C0
03800060
07000060
06000030
0C000030
18000030
18000010
30000010
30000010
20000010
60000010
7FFFFFF0
7FFFFFF0
40000000
C0000000
C0000000
C0000000
C0000000
C0000000
C0000000
C0000000
C0000000
40000000
60000000
60000000
30000000
30000100
18000300
0C000600
0E001C00
03C0F800
01FFE000
003E0000
ENDCHAR
STARTCHAR 00E9
ENCODING 233
SWIDTH 480 0
DWIDTH 32 0
BBX 28 51 2 -1
BITMAP
00000060
000000C0
00000180
00000380
00000300
00000600
00000C00
00001800
00003000
00000000
00000000
00000000
00000000
00000000
0003F800
001FFE00
003C0700
00E00180
01C000C0
03800060
07000060
06000030
0C000030
18000030
18000010
30000010
30000010
20000010
60000010
7FFFFFF0
7FFFFFF0
40000000
C0000000
C0000000
C0000000
C0000000
C0000000
C0000000
C0000000
C0000000
40000000
60000000
60000000
30000000
30000100
18000300
0C000600
0E001C00
03C0F800
01FFE000
003E0000
ENDCHAR
STARTCHAR 00EA
ENCODING 234
SWIDTH 480 0
DWIDTH 32 0
BBX 28 50 2 -1
BITMAP
00001C00
00003E00
00006600
0000C300
00018180
000301C0
000E00E0
001C0060
00000000
00000000
00000000
00000000
00000000
0003F800
001FFE00
003C0700
00E00180
01C000C0
03800060
07000060
06000030
0C000030
18000030
18000010
30000010
30000010
20000010
60000010
7FFFFFF0
7FFFFFF0
40000000
C0000000
C0000000
C0000000
C0000000
C0000000
C0000000
C0000000
C0000000
40000000
60000000
60000000
30000000
30000100
18000300
0C000600
0E001C00
03C0F800
01FFE000
003E0000
ENDCHAR
STARTCHAR 00EB
ENCODING 235
SWIDTH 480 0
DWIDTH 32 0
BBX 29 49 2 -1
BITMAP
000C0030
001E0078
001E0078
00080030
00000000
00000000
00000000
00000000
00000000
00000000
00000000
00000000
0003F800
001FFE00
003C0700
00E00180
01C000C0
03800060
07000060
06000030
0C000030
18000030
18000010
30000010
30000010
20000010
60000010
7FFFFFF0
7FFFFFF0
40000000
C0000000
C0000000
C0000000
C0000000
C0000000
C0000000
C0000000
C0000000
40000000
60000000
60000000
30000000
30000100
18000300
0C000600
0E001C00
03C0F800
01FFE000
003E0000
ENDCHAR
STARTCHAR 00EC
ENCODING 236
SWIDTH 180 0
DWIDTH 12 0
BBX 9 49 2 0
BITMAP
1800
0C00
0C00
0600
0300
0300
0180
0180
0000
0000
0000
0000
0000
0000
0300
0300
0300
0300
0200
0600
0600
0600
0600
0600
0400
0C00
0C00
0C00
0C00
0800
0800
1800
1800
1800
1800
1000
3000
3000
3000
3000
3000
2000
6000
6000
6000
6000
6000
4000
C000
ENDCHAR
STARTCHAR 00ED
ENCODING 237
SWIDTH 180 0
DWIDTH 12 0
BBX 16 49 2 0
BITMAP
0003
0006
000C
0018
0030
0070
0060
00C0
0100
0000
0000
0000
0000
0000
0300
0300
0300
0300
0200
0600
0600
0600
0600
0600
0400
0C00
0C00
0C00
0C00
0800
0800
1800
1800
1800
1800
1000
3000
3000
3000
3000
3000
2000
6000
6000
6000
6000
6000
4000
C000
ENDCHAR
STARTCHAR 00EE
ENCODING 238
SWIDTH 180 0
DWIDTH 12 0
BBX 16 49 2 0
BITMAP
0040
00E0
01B0
0738
0E18
1C0C
3806
7007
E003
0000
0000
0000
0000
0000
0300
0300
0300
0300
0200
0600
0600
0600
0600
0600
0400
0C00
0C00
0C00
0C00
0800
0800
1800
1800
1800
1800
1000
3000
3000
3000
3000
3000
2000
6000
6000
6000
6000
6000
4000
C000
ENDCHAR
STARTCHAR 00EF
ENCODING 239
SWIDTH 180 0
DWIDTH 12 0
BBX 18 47 2 0
BITMAP
7001C0
F003C0
E00180
000000
000000
000000
000000
000000
000000
000000
000000
000000
030000
030000
030000
030000
020000
060000
060000
060000
060000
060000
040000
0C0000
0C0000
0C0000
0C0000
080000
080000
180000
180000
180000
180000
100000
300000
300000
300000
300000
300000
200000
600000
600000
600000
600000
600000
400000
C00000
ENDCHAR
STARTCHAR 00F0
ENCODING 240
SWIDTH 555 0
DWIDTH 37 0
BBX 32 52 4 -1
BITMAP
000E0000
000F8000
0001C000
0000F000
00003807
00001C1E
00000E78
000007E0
00000780
00000F80
000038C0
0000F060
0001C060
00010030
00000030
00000030
00000018
00000018
00000018
00000018
0007F808
003FFE08
00F8078C
01C001CC
0380006C
0700003C
0E00003C
0C000018
18000018
18000018
30000018
30000018
60000018
60000018
60000010
60000030
40000030
C0000030
C0000060
C0000060
40000040
600000C0
600000C0
60000180
30000300
30000700
18000E00
1C001C00
0E003800
07C1F000
01FFC000
001C0000
ENDCHAR
STARTCHAR 00F1
ENCODING 241
SWIDTH 525 0
DWIDTH 35 0
BBX 31 48 2 0
BITMAP
0003E006
0007F006
000C1C0C
0018061C
001803F8
003001E0
00000000
00000000
00000000
00000000
00000000
00000000
00007E00
0303FF80
030F00E0
021C0060
06300030
06600030
06C00018
07800018
07000018
07000018
0E000018
0E000018
0C000018
0C000018
0C000018
08000010
18000030
18000030
18000030
18000030
18000020
10000020
30000060
30000060
30000060
30000060
20000040
200000C0
600000C0
600000C0
600000C0
600000C0
40000080
C0000180
C0000180
C0000180
ENDCHAR
STARTCHAR 00F2
ENCODING 242
SWIDTH 525 0
DWIDTH 35 0
BBX 31 51 2 -1
BITMAP
00030000
00018000
00018000
0000C000
0000C000
00006000
00002000
00003000
00001800
00000000
00000000
00000000
00000000
00000000
0001FC00
000FFF00
003C03C0
00F000E0
01C00070
03800030
07000018
06000018
0C00000C
1C00000C
1800000C
30000006
30000006
30000006
60000006
60000006
60000006
40000006
C0000004
C000000C
C000000C
C000000C
C000000C
C0000018
C0000018
C0000030
40000030
60000060
60000060
300000C0
30000180
18000300
1C000600
0E001C00
03C0F800
01FFE000
003C0000
ENDCHAR
STARTCHAR 00F3
ENCODING 243
SWIDTH 525 0
DWIDTH 35 0
BBX 31 51 2 -1
BITMAP
00000060
000000C0
00000180
00000380
00000300
00000600
00000C00
00001800
00003000
00000000
00000000
00000000
00000000
00000000
0001FC00
000FFF00
003C03C0
00F000E0
01C00070
03800030
07000018
06000018
0C00000C
1C00000C
1800000C
30000006
30000006
30000006
60000006
60000006
60000006
40000006
C0000004
C000000C
C000000C
C000000C
C000000C
C0000018
C0000018
C0000030
40000030
60000060
60000060
300000C0
30000180
18000300
1C000600
0E001C00
03C0F800
01FFE000
003C0000
ENDCHAR
STARTCHAR 00F4
ENCODING 244
SWIDTH 525 0
DWIDTH 35 0
BBX 31 50 2 -1
BITMAP
00001C00
00003E00
00006600
0000C300
00018180
000301C0
000E00E0
001C0060
00000000
00000000
00000000
00000000
00000000
0001FC00
000FFF00
003C03C0
00F000E0
01C00070
03800030
07000018
06000018
0C00000C
1C00000C
1800000C
30000006
30000006
30000006
60000006
60000006
60000006
40000006
C0000004
C000000C
C000000C
C000000C
C000000C
C0000018
C0000018
C0000030
40000030
60000060
60000060
300000C0
30000180
18000300
1C000600
0E001C00
03C0F800
01FFE000
003C0000
ENDCHAR
STARTCHAR 00F5
ENCODING 245
SWIDTH 525 0
DWIDTH 35 0
BBX 31 49 2 -1
BITMAP
0007C006
000FF00C
0018180C
00380E38
003007F0
003001C0
00000000
00000000
00000000
00000000
00000000
00000000
0001FC00
000FFF00
003C03C0
00F000E0
01C00070
03800030
07000018
06000018
0C00000C
1C00000C
1800000C
30000006
30000006
30000006
60000006
60000006
60000006
40000006
C0000004
C000000C
C000000C
C000000C
C000000C
C0000018
C0000018
C0000030
40000030
60000060
60000060
300000C0
30000180
18000300
1C000600
0E001C00
03C0F800
01FFE000
003C0000
ENDCHAR
STARTCHAR 00F6
ENCODING 246
SWIDTH 525 0
DWIDTH 35 0
BBX 31 49 2 -1
BITMAP
000C0030
001E0078
001E0078
000C0030
00000000
00000000
00000000
00000000
00000000
00000000
00000000
00000000
0001FC00
000FFF00
003C03C0
00F000E0
01C00070
03800030
07000018
06000018
0C00000C
1C00000C
1800000C
30000006
30000006
30000006
60000006
60000006
60000006
40000006
C0000004
C000000C
C000000C
C000000C
C000000C
C0000018
C0000018
C0000030
40000030
60000060
60000060
300000C0
30000180
18000300
1C000600
0E001C00
03C0F800
01FFE000
003C0000
ENDCHAR
STARTCHAR 00F7
ENCODING 247
SWIDTH 540 0
DWIDTH 36 0
BBX 32 29 3 8
BITMAP
00006000
0000F000
0000F000
00006000
00000000
00000000
00000000
00000000
00000000
00000000
00000000
00000000
00000000
FFFFFFFF
FFFFFFFE
00000000
00000000
00000000
00000000
00000000
00000000
00000000
00000000
00000000
00000000
00060000
000F0000
000F0000
000E0000
ENDCHAR
STARTCHAR 00F8
ENCODING 248
SWIDTH 525 0
DWIDTH 35 0
BBX 31 45 2 -5
BITMAP
00000006
0000000C
0000001C
00000018
0001FC30
000FFF70
003C03E0
007000E0
01C000F0
038001B0
03000318
06000318
0C00060C
1C000C0C
18000C04
30001806
30003806
30003006
60006006
6000E006
6000C006
40018006
C0018004
C003000C
C006000C
C006000C
C00C0008
C0180018
C0180018
C0300030
C0700030
60600060
60C000E0
61C001C0
31800180
3B000700
1F000E00
0E003C00
0F80F000
0DFFC000
181C0000
30000000
30000000
60000000
E0000000
ENDCHAR
STARTCHAR 00F9
ENCODING 249
SWIDTH 525 0
DWIDTH 35 0
BBX 29 51 4 -1
BITMAP
00060000
00030000
00030000
00018000
00018000
0000C000
0000C000
00006000
00002000
00000000
00000000
00000000
00000000
00000000
00000000
0C000018
08000018
18000010
18000030
18000030
18000030
18000030
10000020
30000060
30000060
30000060
30000060
30000060
20000040
600000C0
600000C0
600000C0
600000C0
600000C0
40000080
C0000180
C0000180
C0000180
C0000180
C0000180
C0000300
C0000300
C0000700
C0000F00
C0000F00
60001B00
60007200
3000E600
1C078600
0FFE0600
00E00000
ENDCHAR
STARTCHAR 00FA
ENCODING 250
SWIDTH 525 0
DWIDTH 35 0
BBX 29 51 4 -1
BITMAP
000000C0
00000180
00000300
00000600
00000C00
00001C00
00001800
00003000
00006000
00000000
00000000
00000000
00000000
00000000
00000000
0C000018
08000018
18000010
18000030
18000030
18000030
18000030
10000020
30000060
30000060
30000060
30000060
30000060
20000040
600000C0
600000C0
600000C0
600000C0
600000C0
40000080
C0000180
C0000180
C0000180
C0000180
C0000180
C0000300
C0000300
C0000700
C0000F00
C0000F00
60001B00
60007200
3000E600
1C078600
0FFE0600
00E00000
ENDCHAR
STARTCHAR 00FB
ENCODING 251
SWIDTH 525 0
DWIDTH 35 0
BBX 29 50 4 -1
BITMAP
00003800
00007C00
0000CC00
00038600
00070700
000E0380
001C0180
003800C0
00000000
00000000
00000000
00000000
00000000
00000000
0C000018
08000018
18000010
18000030
18000030
18000030
18000030
10000020
30000060
30000060
30000060
30000060
30000060
20000040
600000C0
600000C0
600000C0
600000C0
600000C0
40000080
C0000180
C0000180
C0000180
C0000180
C0000180
C0000300
C0000300
C0000700
C0000F00
C0000F00
60001B00
60007200
3000E600
1C078600
0FFE0600
00E00000
ENDCHAR
STARTCHAR 00FC
ENCODING 252
SWIDTH 525 0
DWIDTH 35 0
BBX 29 49 4 -1
BITMAP
00180060
003C00F0
003800E0
00000000
00000000
00000000
00000000
00000000
00000000
00000000
00000000
00000000
00000000
0C000018
08000018
18000010
18000030
18000030
18000030
18000030
10000020
30000060
30000060
30000060
30000060
30000060
20000040
600000C0
600000C0
600000C0
600000C0
600000C0
40000080
C0000180
C0000180
C0000180
C0000180
C0000180
C0000300
C0000300
C0000700
C0000F00
C0000F00
60001B00
60007200
3000E600
1C078600
0FFE0600
00E00000
ENDCHAR
STARTCHAR 00FD
ENCODING 253
SWIDTH 450 0
DWIDTH 30 0
BBX 35 64 -3 -14
BITMAP
0000000600
0000000C00
0000001800
0000003000
0000007000
000000E000
000000C000
0000018000
0000030000
0000000000
0000000000
0000000000
0000000000
0000000000
0000000000
0180000060
0180000060
00800000C0
00C00000C0
00C0000180
00C0000300
00C0000300
0060000600
0060000600
0060000C00
0060000C00
0020001800
0030001800
0030003000
0030003000
0030006000
001800E000
001800C000
0018018000
0018018000
0008030000
000C030000
000C060000
000C060000
000C0C0000
00040C0000
0006180000
0006380000
0006300000
0002600000
0003600000
0003C00000
0003C00000
0003800000
0001800000
0003000000
0003000000
0006000000
0006000000
000C000000
000C000000
0018000000
0030000000
0030000000
0060000000
00C0000000
0380000000
FF00000000
FC00000000
ENDCHAR
STARTCHAR 00FE
ENCODING 254
SWIDTH 525 0
DWIDTH 35 0
BBX 32 64 0 -14
BITMAP
00100000
00300000
00300000
00300000
00300000
00200000
00600000
00600000
00600000
00600000
00600000
00400000
00C00000
00C00000
00C03F00
00C1FFE0
00C78070
008E0018
0198000C
01B0000C
01E00006
01C00006
01800006
01800002
03000003
03000003
03000003
03000003
02000003
06000003
06000003
06000002
06000006
06000006
04000006
0C000006
0C00000C
0C00000C
0C00000C
0C000018
08000018
18000030
18000030
1C000060
1C0000E0
1E0001C0
13000380
31C00700
30F01E00
303FF800
30078000
20000000
20000000
60000000
60000000
60000000
60000000
40000000
40000000
C0000000
C0000000
C0000000
C0000000
80000000
ENDCHAR
STARTCHAR 00FF
ENCODING 255
SWIDTH 450 0
DWIDTH 30 0
BBX 35 62 -3 -14
BITMAP
0000C00300
0001E00780
0001E00780
0000000200
0000000000
0000000000
0000000000
0000000000
0000000000
0000000000
0000000000
0000000000
0000000000
0180000060
0180000060
00800000C0
00C00000C0
00C0000180
00C0000300
00C0000300
0060000600
0060000600
0060000C00
0060000C00
0020001800
0030001800
0030003000
0030003000
0030006000
001800E000
001800C000
0018018000
0018018000
0008030000
000C030000
000C060000
000C060000
000C0C0000
00040C0000
0006180000
0006380000
0006300000
0002600000
0003600000
0003C00000
0003C00000
0003800000
0001800000
0003000000
0003000000
0006000000
0006000000
000C000000
000C000000
0018000000
0030000000
0030000000
0060000000
00C0000000
0380000000
FF00000000
FC00000000
ENDCHAR
STARTCHAR 0100
ENCODING 256
SWIDTH 570 0
DWIDTH 38 0
BBX 37 58 -2 0
BITMAP
00001FFFF8
00001FFFF8
0000000000
0000000000
0000000000
0000000000
0000000000
0000000000
0000000000
0000000000
0000000000
0000006000
000000E000
000001B000
000001B000
0000033000
0000033000
0000061000
0000061800
00000C1800
00000C1800
0000181800
0000180800
0000300C00
0000300C00
0000600C00
0000400C00
0000C00400
0001800600
0001800600
0003000600
0003000600
0006000200
0006000300
000C000300
000C000300
0018000300
0018000300
0030000100
0030000180
0060000180
00C0000180
00FFFFFF80
01FFFFFF80
01800000C0
03000000C0
03000000C0
06000000C0
0600000040
0C00000060
0C00000060
1800000060
1800000060
3000000020
2000000030
6000000030
C000000030
C000000030
ENDCHAR
STARTCHAR 0101
ENCODING 257
SWIDTH 510 0
DWIDTH 34 0
BBX 31 48 1 -1
BITMAP
0007FFFE
0007FFFE
00000000
00000000
00000000
00000000
00000000
00000000
00000000
00000000
00000000
0001F800
000FFF00
003C03C0
00E000E0
01C00060
03800030
07000030
06000018
0C000018
0C000018
00000018
00000010
00000010
00000030
00000030
00000030
0001FFF0
003FFFE0
01FC0060
07800060
0E000060
1C000060
30000060
60000040
600000C0
C00000C0
C00000C0
C00001C0
C00003C0
C0000380
C0000780
C0001D80
60003980
3000E180
1C07C180
0FFF0180
00F00000
ENDCHAR
STARTCHAR 0102
ENCODING 258
SWIDTH 570 0
DWIDTH 38 0
BBX 37 59 -2 0
BITMAP
0000180018
0000180010
0000180030
0000180070
00000C00E0
00000601C0
000003FF80
000001FE00
0000000000
0000000000
0000000000
0000000000
0000006000
000000E000
000001B000
000001B000
0000033000
0000033000
0000061000
0000061800
00000C1800
00000C1800
0000181800
0000180800
0000300C00
0000300C00
0000600C00
0000400C00
0000C00400
0001800600
0001800600
0003000600
0003000600
0006000200
0006000300
000C000300
000C000300
0018000300
0018000300
0030000100
0030000180
0060000180
00C0000180
00FFFFFF80
01FFFFFF80
01800000C0
03000000C0
03000000C0
06000000C0
0600000040
0C00000060
0C00000060
1800000060
1800000060
3000000020
2000000030
6000000030
C000000030
C000000030
ENDCHAR
STARTCHAR 0103
ENCODING 259
SWIDTH 510 0
DWIDTH 34 0
BBX 31 50 1 -1
BITMAP
00060004
00060006
0006000C
0006000C
00030018
00038030
0001E1E0
0000FFC0
00001E00
00000000
00000000
00000000
00000000
0001F800
000FFF00
003C03C0
00E000E0
01C00060
03800030
07000030
06000018
0C000018
0C000018
00000018
00000010
00000010
00000030
00000030
00000030
0001FFF0
003FFFE0
01FC0060
07800060
0E000060
1C000060
30000060
60000040
600000C0
C00000C0
C00000C0
C00001C0
C00003C0
C0000380
C0000780
C0001D80
60003980
3000E180
1C07C180
0FFF0180
00F00000
ENDCHAR
STARTCHAR 0104
ENCODING 260
SWIDTH 570 0
DWIDTH 38 0
BBX 36 60 -2 -13
BITMAP
0000006000
000000E000
000001B000
000001B000
0000033000
0000033000
0000061000
0000061800
00000C1800
00000C1800
0000181800
0000180800
0000300C00
0000300C00
0000600C00
0000400C00
0000C00400
0001800600
0001800600
0003000600
0003000600
0006000200
0006000300
000C000300
000C000300
0018000300
0018000300
0030000100
0030000180
0060000180
00C0000180
00FFFFFF80
01FFFFFF80
01800000C0
03000000C0
03000000C0
06000000C0
0600000040
0C00000060
0C00000060
1800000060
1800000060
3000000020
2000000030
6000000030
C000000030
C000000030
0000000070
00000000C0
0000000180
0000000300
0000000600
0000000C00
0000000800
0000001800
0000001800
0000001800
0000001C20
0000000FE0
0000000780
ENDCHAR
STARTCHAR 0105
ENCODING 261
SWIDTH 510 0
DWIDTH 34 0
BBX 29 49 1 -13
BITMAP
0001F800
000FFF00
003C03C0
00E000E0
01C00060
03800030
07000030
06000018
0C000018
0C000018
00000018
00000010
00000010
00000030
00000030
00000030
0001FFF0
003FFFE0
01FC0060
07800060
0E000060
1C000060
30000060
60000040
600000C0
C00000C0
C00000C0
C00001C0
C00003C0
C0000380
C0000780
C0001D80
60003980
3000E180
1C07C180
0FFF0180
00F00380
00000600
00000C00
00001800
00003000
00006000
00004000
0000C000
0000C000
0000C000
0000E100
00007F00
00003C00
ENDCHAR
STARTCHAR 0106
ENCODING 262
SWIDTH 615 0
DWIDTH 41 0
BBX 36 62 4 -1
BITMAP
0000000600
0000000C00
0000001800
0000003000
0000006000
000000E000
000000C000
0000018000
0000030000
0000000000
0000000000
0000000000
0000000000
00003FE000
0001FFF800
0007801E00
001E000700
0038000380
00700001C0
00E00000C0
01C0000060
0180000060
0300000020
0700000030
0600000030
0C00000030
0C00000030
0C00000030
1800000000
1800000000
1000000000
3000000000
3000000000
3000000000
3000000000
2000000000
6000000000
6000000000
6000000000
6000000000
4000000000
4000000000
C000000000
C000000000
C000000000
C000000000
C000000000
C000000100
C000000300
4000000300
6000000600
6000000600
6000000C00
3000001C00
3000001800
1800003000
1C0000E000
0E0001C000
0700078000
03E03E0000
00FFF80000
0006000000
ENDCHAR
STARTCHAR 0107
ENCODING 263
SWIDTH 480 0
DWIDTH 32 0
BBX 28 51 2 -1
BITMAP
000000E0
000001C0
00000180
00000300
00000600
00000C00
00001800
00003000
00003000
00000000
00000000
00000000
00000000
00000000
0003F800
001FFE00
00780780
00E001C0
01C000C0
03000060
07000030
06000030
0C000030
18000010
18000010
10000010
30000000
30000000
20000000
60000000
60000000
60000000
40000000
40000000
C0000000
C0000000
C0000000
C0000000
C0000000
40000040
400000C0
600000C0
60000180
20000180
30000300
38000600
18000C00
0E003800
0781F000
01FFC000
001C0000
ENDCHAR
STARTCHAR 0108
ENCODING 264
SWIDTH 615 0
DWIDTH 41 0
BBX 36 61 4 -1
BITMAP
000001C000
000003E000
00000E6000
00001C3000
0000381800
0000701C00
0000E00C00
0001C00600
0000000000
0000000000
0000000000
0000000000
00003FE000
0001FFF800
0007801E00
001E000700
0038000380
00700001C0
00E00000C0
01C0000060
0180000060
0300000020
0700000030
0600000030
0C00000030
0C00000030
0C00000030
1800000000
1800000000
1000000000
3000000000
3000000000
3000000000
3000000000
2000000000
6000000000
6000000000
6000000000
6000000000
4000000000
4000000000
C000000000
C000000000
C000000000
C000000000
C000000000
C000000100
C000000300
4000000300
6000000600
6000000600
6000000C00
3000001C00
3000001800
1800003000
1C0000E000
0E0001C000
0700078000
03E03E0000
00FFF80000
0006000000
ENDCHAR
STARTCHAR 0109
ENCODING 265
SWIDTH 480 0
DWIDTH 32 0
BBX 28 50 2 -1
BITMAP
00003800
00007C00
0000EE00
0001C700
00038300
00070180
000C01C0
001800E0
00000000
00000000
00000000
00000000
00000000
0003F800
001FFE00
00780780
00E001C0
01C000C0
03000060
07000030
06000030
0C000030
18000010
18000010
10000010
30000000
30000000
20000000
60000000
60000000
60000000
40000000
40000000
C0000000
C0000000
C0000000
C0000000
C0000000
40000040
400000C0
600000C0
60000180
20000180
30000300
38000600
18000C00
0E003800
0781F000
01FFC000
001C0000
ENDCHAR
STARTCHAR 010A
ENCODING 266
SWIDTH 615 0
DWIDTH 41 0
BBX 36 59 4 -1
BITMAP
0000038000
000003C000
0000038000
0000000000
0000000000
0000000000
0000000000
0000000000
0000000000
0000000000
00003FE000
0001FFF800
0007801E00
001E000700
0038000380
00700001C0
00E00000C0
01C0000060
0180000060
0300000020
0700000030
0600000030
0C00000030
0C00000030
0C00000030
1800000000
1800000000
1000000000
3000000000
3000000000
3000000000
3000000000
2000000000
6000000000
6000000000
6000000000
6000000000
4000000000
4000000000
C000000000
C000000000
C000000000
C000000000
C000000000
C000000100
C000000300
4000000300
6000000600
6000000600
6000000C00
3000001C00
3000001800
1800003000
1C0000E000
0E0001C000
0700078000
03E03E0000
00FFF80000
0006000000
ENDCHAR
STARTCHAR 010B
ENCODING 267
SWIDTH 480 0
DWIDTH 32 0
BBX 28 48 2 -1
BITMAP
00003800
00003800
00003800
00000000
00000000
00000000
00000000
00000000
00000000
00000000
00000000
0003F800
001FFE00
00780780
00E001C0
01C000C0
03000060
07000030
06000030
0C000030
18000010
18000010
10000010
30000000
30000000
20000000
60000000
60000000
60000000
40000000
40000000
C0000000
C0000000
C0000000
C0000000
C0000000
40000040
400000C0
600000C0
60000180
20000180
30000300
38000600
18000C00
0E003800
0781F000
01FFC000
001C0000
ENDCHAR
STARTCHAR 010C
ENCODING 268
SWIDTH 615 0
DWIDTH 41 0
BBX 36 61 4 -1
BITMAP
0000600300
0000700600
0000300C00
0000181800
00001C7000
00000CE000
000007C000
0000038000
0000000000
0000000000
0000000000
0000000000
00003FE000
0001FFF800
0007801E00
001E000700
0038000380
00700001C0
00E00000C0
01C0000060
0180000060
0300000020
0700000030
0600000030
0C00000030
0C00000030
0C00000030
1800000000
1800000000
1000000000
3000000000
3000000000
3000000000
3000000000
2000000000
6000000000
6000000000
6000000000
6000000000
4000000000
4000000000
C000000000
C000000000
C000000000
C000000000
C000000000
C000000100
C000000300
4000000300
6000000600
6000000600
6000000C00
3000001C00
3000001800
1800003000
1C0000E000
0E0001C000
0700078000
03E03E0000
00FFF80000
0006000000
ENDCHAR
STARTCHAR 010D
ENCODING 269
SWIDTH 480 0
DWIDTH 32 0
BBX 28 50 2 -1
BITMAP
000C0070
000600E0
000301C0
00030380
00018700
0000CE00
0000DC00
00007800
00000000
00000000
00000000
00000000
00000000
0003F800
001FFE00
00780780
00E001C0
01C000C0
03000060
07000030
06000030
0C000030
18000010
18000010
10000010
30000000
30000000
20000000
60000000
60000000
60000000
40000000
40000000
C0000000
C0000000
C0000000
C0000000
C0000000
40000040
400000C0
600000C0
60000180
20000180
30000300
38000600
18000C00
0E003800
0781F000
01FFC000
001C0000
ENDCHAR
STARTCHAR 010E
ENCODING 270
SWIDTH 630 0
DWIDTH 42 0
BBX 37 60 3 0
BITMAP
0001000400
0001801C00
0000C03800
0000C07000
000060E000
000031C000
00001B8000
00001F0000
00000E0000
0000000000
0000000000
0000000000
0000000000
00FFFFC000
00C003F800
0080003C00
0180000E00
0180000300
0180000180
01800000C0
01800000C0
0100000060
0300000060
0300000030
0300000030
0300000030
0200000010
0200000010
0600000018
0600000018
0600000018
0600000010
0400000010
0C00000030
0C00000030
0C00000030
0C00000030
0C00000030
0800000020
1800000060
1800000060
1800000060
1800000040
18000000C0
10000000C0
3000000180
3000000180
3000000300
3000000300
3000000600
2000000E00
6000001C00
6000003800
6000007000
600000E000
400001C000
4000070000
C0003E0000
FFFFF00000
FFFF800000
ENDCHAR
STARTCHAR 010F
ENCODING 271
SWIDTH 600 0
DWIDTH 40 0
BBX 40 51 3 -1
BITMAP
0000000303
0000000303
0000000303
0000000302
0000000306
0000000206
000000060C
000000060C
0000000618
0000000610
0000000600
0000000400
0000000C00
0000000C00
0007E00C00
003FFC0C00
00780E0800
00E0038800
0180019800
030000D800
0600007800
0C00003800
0C00003000
1800003000
1800003000
3000003000
3000003000
3000003000
6000002000
6000006000
6000006000
4000006000
C000006000
C000006000
C000004000
C00000C000
C00000C000
C00000C000
C00000C000
C00000C000
C000008000
C000018000
4000018000
6000038000
6000078000
30000D0000
3000190000
1800730000
0F03C30000
07FF030000
0078000000
ENDCHAR
STARTCHAR 0110
ENCODING 272
SWIDTH 645 0
DWIDTH 43 0
BBX 37 47 4 0
BITMAP
00FFFFC000
00C003F000
0080003C00
0180000E00
0180000300
0180000180
01800000C0
01000000C0
0100000060
0300000060
0300000030
0300000030
0300000030
0200000010
0200000010
0600000018
0600000018
0600000018
0600000010
0400000010
0C00000030
0C00000030
FFFFC00030
FFFFC00030
0C00000030
0800000020
1800000060
1800000060
1800000060
1800000040
18000000C0
10000000C0
3000000180
3000000180
3000000300
3000000300
2000000600
2000000E00
6000001C00
6000003800
6000007000
600000E000
400001C000
4000070000
C0003E0000
FFFFF80000
FFFF800000
ENDCHAR
STARTCHAR 0111
ENCODING 273
SWIDTH 525 0
DWIDTH 35 0
BBX 36 51 3 -1
BITMAP
0000000300
0000000300
0000000300
0000000300
0000000300
0000000200
0000000600
00003FFFF0
0000000600
0000000600
0000000600
0000000400
0000000C00
0000000C00
0007E00C00
003FFC0C00
00780E0800
00E0038800
0180019800
030000D800
0600007800
0C00003800
0C00003000
1800003000
1800003000
3000003000
3000003000
3000003000
6000002000
6000006000
6000006000
4000006000
C000006000
C000006000
C000004000
C00000C000
C00000C000
C00000C000
C00000C000
C00000C000
C000008000
C000018000
4000018000
6000038000
6000078000
30000D0000
3000190000
1800730000
0F03C30000
07FF030000
0078000000
ENDCHAR
STARTCHAR 0112
ENCODING 274
SWIDTH 540 0
DWIDTH 36 0
BBX 36 58 3 0
BITMAP
0003FFFF00
0003FFFF00
0000000000
0000000000
0000000000
0000000000
0000000000
0000000000
0000000000
0000000000
0000000000
00FFFFFFF0
00C0000000
0080000000
0180000000
0180000000
0180000000
0180000000
0180000000
0100000000
0300000000
0300000000
0300000000
0300000000
0200000000
0200000000
0600000000
0600000000
0600000000
0600000000
0400000000
0C00000000
0C00000000
0FFFFFF800
0FFFFFF800
0C00000000
0800000000
1800000000
1800000000
1800000000
1800000000
1800000000
1000000000
3000000000
3000000000
3000000000
3000000000
3000000000
2000000000
6000000000
6000000000
6000000000
6000000000
4000000000
4000000000
C000000000
FFFFFFF000
FFFFFFF000
ENDCHAR
STARTCHAR 0113
ENCODING 275
SWIDTH 480 0
DWIDTH 32 0
BBX 29 48 2 -1
BITMAP
001FFFF8
001FFFF8
00000000
00000000
00000000
00000000
00000000
00000000
00000000
00000000
00000000
0003F800
001FFE00
003C0700
00E00180
01C000C0
03800060
07000060
06000030
0C000030
18000030
18000010
30000010
30000010
20000010
60000010
7FFFFFF0
7FFFFFF0
40000000
C0000000
C0000000
C0000000
C0000000
C0000000
C0000000
C0000000
C0000000
40000000
60000000
60000000
30000000
30000100
18000300
0C000600
0E001C00
03C0F800
01FFE000
003E0000
ENDCHAR
STARTCHAR 0114
ENCODING 276
SWIDTH 540 0
DWIDTH 36 0
BBX 36 59 3 0
BITMAP
0003000300
0003000300
0003000600
0001800600
0001800C00
0000C03800
00007FF000
00003FC000
0000000000
0000000000
0000000000
0000000000
00FFFFFFF0
00C0000000
0080000000
0180000000
0180000000
0180000000
0180000000
0180000000
0100000000
0300000000
0300000000
0300000000
0300000000
0200000000
0200000000
0600000000
0600000000
0600000000
0600000000
0400000000
0C00000000
0C00000000
0FFFFFF800
0FFFFFF800
0C00000000
0800000000
1800000000
1800000000
1800000000
1800000000
1800000000
1000000000
3000000000
3000000000
3000000000
3000000000
3000000000
2000000000
6000000000
6000000000
6000000000
6000000000
4000000000
4000000000
C000000000
FFFFFFF000
FFFFFFF000
ENDCHAR
STARTCHAR 0115
ENCODING 277
SWIDTH 480 0
DWIDTH 32 0
BBX 29 49 2 -1
BITMAP
00180018
00080018
00080030
000C0070
000600E0
000787C0
0001FF00
00003000
00000000
00000000
00000000
00000000
0003F800
001FFE00
003C0700
00E00180
01C000C0
03800060
07000060
06000030
0C000030
18000030
18000010
30000010
30000010
20000010
60000010
7FFFFFF0
7FFFFFF0
40000000
C0000000
C0000000
C0000000
C0000000
C0000000
C0000000
C0000000
C0000000
40000000
60000000
60000000
30000000
30000100
18000300
0C000600
0E001C00
03C0F800
01FFE000
003E0000
ENDCHAR
STARTCHAR 0116
ENCODING 278
SWIDTH 540 0
DWIDTH 36 0
BBX 36 58 3 0
BITMAP
0000030000
0000078000
0000078000
0000030000
0000000000
0000000000
0000000000
0000000000
0000000000
0000000000
0000000000
00FFFFFFF0
00C0000000
0080000000
0180000000
0180000000
0180000000
0180000000
0180000000
0100000000
0300000000
0300000000
0300000000
0300000000
0200000000
0200000000
0600000000
0600000000
0600000000
0600000000
0400000000
0C00000000
0C00000000
0FFFFFF800
0FFFFFF800
0C00000000
0800000000
1800000000
1800000000
1800000000
1800000000
1800000000
1000000000
3000000000
3000000000
3000000000
3000000000
3000000000
2000000000
6000000000
6000000000
6000000000
6000000000
4000000000
4000000000
C000000000
FFFFFFF000
FFFFFFF000
ENDCHAR
STARTCHAR 0117
ENCODING 279
SWIDTH 480 0
DWIDTH 32 0
BBX 28 48 2 -1
BITMAP
00001C00
00003C00
00003800
00000000
00000000
00000000
00000000
00000000
00000000
00000000
00000000
0003F800
001FFE00
003C0700
00E00180
01C000C0
03800060
07000060
06000030
0C000030
18000030
18000010
30000010
30000010
20000010
60000010
7FFFFFF0
7FFFFFF0
40000000
C0000000
C0000000
C0000000
C0000000
C0000000
C0000000
C0000000
C0000000
40000000
60000000
60000000
30000000
30000100
18000300
0C000600
0E001C00
03C0F800
01FFE000
003E0000
ENDCHAR
STARTCHAR 0118
ENCODING 280
SWIDTH 540 0
DWIDTH 36 0
BBX 36 60 3 -13
BITMAP
00FFFFFFF0
00C0000000
0080000000
0180000000
0180000000
0180000000
0180000000
0180000000
0100000000
0300000000
0300000000
0300000000
0300000000
0200000000
0200000000
0600000000
0600000000
0600000000
0600000000
0400000000
0C00000000
0C00000000
0FFFFFF800
0FFFFFF800
0C00000000
0800000000
1800000000
1800000000
1800000000
1800000000
1800000000
1000000000
3000000000
3000000000
3000000000
3000000000
3000000000
2000000000
6000000000
6000000000
6000000000
6000000000
4000000000
4000000000
C000000000
FFFFFFF000
FFFFFFF000
0000018000
0000030000
0000060000
00000C0000
0000180000
0000300000
0000200000
0000600000
0000600000
0000600000
0000708000
00003F8000
00001E0000
ENDCHAR
STARTCHAR 0119
ENCODING 281
SWIDTH 480 0
DWIDTH 32 0
BBX 28 47 2 -11
BITMAP
0003F800
001FFE00
003C0700
00E00180
01C000C0
03800060
07000060
06000030
0C000030
18000030
18000010
30000010
30000010
20000010
60000010
7FFFFFF0
7FFFFFF0
40000000
C0000000
C0000000
C0000000
C0000000
C0000000
C0000000
C0000000
C0000000
40000000
60000000
60000000
30000000
30000100
18000300
0C000600
0E001C00
03C0F800
01FFF000
003EC000
00018000
00030000
00020000
00060000
00060000
00040000
00040000
00061800
0007F800
0003E000
ENDCHAR
STARTCHAR 011A
ENCODING 282
SWIDTH 540 0
DWIDTH 36 0
BBX 36 60 3 0
BITMAP
0001800600
0000C00E00
0000601C00
0000603800
0000307000
000018E000
000019C000
00000F8000
0000070000
0000000000
0000000000
0000000000
0000000000
00FFFFFFF0
00C0000000
0080000000
0180000000
0180000000
0180000000
0180000000
0180000000
0100000000
0300000000
0300000000
0300000000
0300000000
0200000000
0200000000
0600000000
0600000000
0600000000
0600000000
0400000000
0C00000000
0C00000000
0FFFFFF800
0FFFFFF800
0C00000000
0800000000
1800000000
1800000000
1800000000
1800000000
1800000000
1000000000
3000000000
3000000000
3000000000
3000000000
3000000000
2000000000
6000000000
6000000000
6000000000
6000000000
4000000000
4000000000
C000000000
FFFFFFF000
FFFFFFF000
ENDCHAR
STARTCHAR 011B
ENCODING 283
SWIDTH 480 0
DWIDTH 32 0
BBX 28 50 2 -1
BITMAP
00060030
00030060
000300C0
00018180
0000C300
0000C600
00006C00
00003800
00000000
00000000
00000000
00000000
00000000
0003F800
001FFE00
003C0700
00E00180
01C000C0
03800060
07000060
06000030
0C000030
18000030
18000010
30000010
30000010
20000010
60000010
7FFFFFF0
7FFFFFF0
40000000
C0000000
C0000000
C0000000
C0000000
C0000000
C0000000
C0000000
C0000000
40000000
60000000
60000000
30000000
30000100
18000300
0C000600
0E001C00
03C0F800
01FFE000
003E0000
ENDCHAR
STARTCHAR 011C
ENCODING 284
SWIDTH 660 0
DWIDTH 44 0
BBX 36 61 5 -1
BITMAP
000003C000
000007C000
00000E6000
00001C3000
0000383800
0000701800
0000C00C00
0001800600
0000000000
0000000000
0000000000
0000000000
00003FE000
0001FFFC00
0007801E00
001E000300
0038000180
00700000C0
00E0000060
01C0000060
0180000030
0300000030
0600000030
0600000030
0C00000010
0C00000000
1800000000
1800000000
1000000000
3000000000
3000000000
3000000000
2000000000
6000000000
6000000000
6000000000
6000000000
6000000000
4000000000
C0003FFFC0
C0000000C0
C0000000C0
C000000080
C000000180
C000000180
C000000180
C000000180
C000000180
C000000100
6000000300
6000000300
6000000300
3000000300
3000000300
1800000600
0C00000E00
0E00003C00
078000F000
01E01FC000
007FFF0000
0007C00000
ENDCHAR
STARTCHAR 011D
ENCODING 285
SWIDTH 525 0
DWIDTH 35 0
BBX 32 63 1 -14
BITMAP
00000E00
00001F00
00003980
000071C0
0000E0C0
0001C060
00030070
00060038
00000000
00000000
00000000
00000000
00000000
0001F800
000FFF03
001E0382
003800E6
00600066
00C00036
0180001E
0300001E
0300000C
0600000C
0600000C
0C00000C
0C00000C
0800000C
18000008
18000018
18000018
10000018
30000018
30000018
30000010
30000030
30000030
30000030
30000030
30000020
30000060
30000060
10000060
180000E0
180001E0
0C000340
0C000EC0
06001CC0
03C0F0C0
01FFC0C0
001C00C0
00000180
00000180
00000180
00000300
00000300
00000600
40000E00
C0000C00
60001800
30007000
1C01E000
0FFF8000
03FE0000
ENDCHAR
STARTCHAR 011E
ENCODING 286
SWIDTH 660 0
DWIDTH 44 0
BBX 36 61 5 -1
BITMAP
0001800180
0001800180
0001800300
0001800300
0000C00600
0000E01C00
00007CF800
00001FE000
0000000000
0000000000
0000000000
0000000000
00003FE000
0001FFFC00
0007801E00
001E000300
0038000180
00700000C0
00E0000060
01C0000060
0180000030
0300000030
0600000030
0600000030
0C00000010
0C00000000
1800000000
1800000000
1000000000
3000000000
3000000000
3000000000
2000000000
6000000000
6000000000
6000000000
6000000000
6000000000
4000000000
C0003FFFC0
C0000000C0
C0000000C0
C000000080
C000000180
C000000180
C000000180
C000000180
C000000180
C000000100
6000000300
6000000300
6000000300
3000000300
3000000300
1800000600
0C00000E00
0E00003C00
078000F000
01E01FC000
007FFF0000
0007C00000
ENDCHAR
STARTCHAR 011F
ENCODING 287
SWIDTH 525 0
DWIDTH 35 0
BBX 32 62 1 -14
BITMAP
00060004
0006000C
0006000C
00060018
00030070
0001E1E0
0000FFC0
00001C00
00000000
00000000
00000000
00000000
0001F800
000FFF03
001E0382
003800E6
00600066
00C00036
0180001E
0300001E
0300000C
0600000C
0600000C
0C00000C
0C00000C
0800000C
18000008
18000018
18000018
10000018
30000018
30000018
30000010
30000030
30000030
30000030
30000030
30000020
30000060
30000060
10000060
180000E0
180001E0
0C000340
0C000EC0
06001CC0
03C0F0C0
01FFC0C0
001C00C0
00000180
00000180
00000180
00000300
00000300
00000600
40000E00
C0000C00
60001800
30007000
1C01E000
0FFF8000
03FE0000
ENDCHAR
STARTCHAR 0120
ENCODING 288
SWIDTH 660 0
DWIDTH 44 0
BBX 36 59 5 -1
BITMAP
0000038000
0000038000
0000038000
0000000000
0000000000
0000000000
0000000000
0000000000
0000000000
0000000000
00003FE000
0001FFFC00
0007801E00
001E000300
0038000180
00700000C0
00E0000060
01C0000060
0180000030
0300000030
0600000030
0600000030
0C00000010
0C00000000
1800000000
1800000000
1000000000
3000000000
3000000000
3000000000
2000000000
6000000000
6000000000
6000000000
6000000000
6000000000
4000000000
C0003FFFC0
C0000000C0
C0000000C0
C000000080
C000000180
C000000180
C000000180
C000000180
C000000180
C000000100
6000000300
6000000300
6000000300
3000000300
3000000300
1800000600
0C00000E00
0E00003C00
078000F000
01E01FC000
007FFF0000
0007C00000
ENDCHAR
STARTCHAR 0121
ENCODING 289
SWIDTH 525 0
DWIDTH 35 0
BBX 32 61 1 -14
BITMAP
00000E00
00000E00
00000E00
00000000
00000000
00000000
00000000
00000000
00000000
00000000
00000000
0001F800
000FFF03
001E0382
003800E6
00600066
00C00036
0180001E
0300001E
0300000C
0600000C
0600000C
0C00000C
0C00000C
0800000C
18000008
18000018
18000018
10000018
30000018
30000018
30000010
30000030
30000030
30000030
30000030
30000020
30000060
30000060
10000060
180000E0
180001E0
0C000340
0C000EC0
06001CC0
03C0F0C0
01FFC0C0
001C00C0
00000180
00000180
00000180
00000300
00000300
00000600
40000E00
C0000C00
60001800
30007000
1C01E000
0FFF8000
03FE0000
ENDCHAR
STARTCHAR 0122
ENCODING 290
SWIDTH 660 0
DWIDTH 44 0
BBX 36 62 5 -14
BITMAP
00003FE000
0001FFFC00
0007801E00
001E000300
0038000180
00700000C0
00E0000060
01C0000060
0180000030
0300000030
0600000030
0600000030
0C00000010
0C00000000
1800000000
1800000000
1000000000
3000000000
3000000000
3000000000
2000000000
6000000000
6000000000
6000000000
6000000000
6000000000
4000000000
C0003FFFC0
C0000000C0
C0000000C0
C000000080
C000000180
C000000180
C000000180
C000000180
C000000180
C000000100
6000000300
6000000300
6000000300
3000000300
3000000300
1800000600
0C00000E00
0E00003C00
078000F000
01E01FC000
007FFF0000
0007C00000
0000000000
0000000000
0006000000
0006000000
0006000000
0004000000
000C000000
000C000000
0018000000
0018000000
0030000000
0070000000
0020000000
ENDCHAR
STARTCHAR 0123
ENCODING 291
SWIDTH 525 0
DWIDTH 35 0
BBX 32 66 1 -14
BITMAP
00000100
00000100
00000300
00000600
00000600
00000400
00000C00
00000C00
00000C00
00000C00
00000C00
00000000
00000000
00000000
00000000
00000000
0001F800
000FFF03
001E0382
003800E6
00600066
00C00036
0180001E
0300001E
0300000C
0600000C
0600000C
0C00000C
0C00000C
0800000C
18000008
18000018
18000018
10000018
30000018
30000018
30000010
30000030
30000030
30000030
30000030
30000020
30000060
30000060
10000060
180000E0
180001E0
0C000340
0C000EC0
06001CC0
03C0F0C0
01FFC0C0
001C00C0
00000180
00000180
00000180
00000300
00000300
00000600
40000E00
C0000C00
60001800
30007000
1C01E000
0FFF8000
03FE0000
ENDCHAR
STARTCHAR 0124
ENCODING 292
SWIDTH 675 0
DWIDTH 45 0
BBX 41 60 3 0
BITMAP
000000600000
000000F00000
000001D80000
0000039C0000
0000070C0000
00000E060000
00001C030000
000030038000
000000000000
000000000000
000000000000
000000000000
000000000000
00C000000180
00C000000180
008000000100
018000000100
018000000300
018000000300
018000000300
018000000300
010000000200
030000000600
030000000600
030000000600
030000000600
020000000600
020000000400
060000000C00
060000000C00
060000000C00
060000000C00
040000000C00
0C0000000800
0C0000001800
0FFFFFFFF800
0FFFFFFFF800
0C0000001800
080000001000
180000001000
180000003000
180000003000
180000003000
180000003000
100000002000
300000002000
300000006000
300000006000
300000006000
300000006000
200000004000
60000000C000
60000000C000
60000000C000
60000000C000
40000000C000
400000008000
C00000018000
C00000018000
C00000018000
ENDCHAR
STARTCHAR 0125
ENCODING 293
SWIDTH 525 0
DWIDTH 35 0
BBX 29 60 2 0
BITMAP
00001800
00003800
00006C00
0000C600
00038700
00070380
000E0180
001C00C0
000000C0
00000000
00400000
00C00000
00C00000
00C00000
00C00000
00800000
00800000
01800000
01800000
01800000
01800000
01000000
01000000
03000000
03007E00
0303FF80
030F00E0
021C0060
06300030
06600030
06C00018
07800018
07000018
07000018
0E000018
0E000018
0C000018
0C000018
0C000018
08000010
18000030
18000030
18000030
18000030
10000020
10000020
30000060
30000060
30000060
30000060
20000040
200000C0
600000C0
600000C0
600000C0
600000C0
40000080
C0000180
C0000180
C0000180
ENDCHAR
STARTCHAR 0126
ENCODING 294
SWIDTH 645 0
DWIDTH 43 0
BBX 43 47 2 0
BITMAP
008000000100
018000000100
018000000300
018000000300
018000000300
018000000300
010000000200
030000000200
030000000600
030000000600
030000000600
030000000600
7FFFFFFFFFE0
7FFFFFFFFFE0
060000000C00
060000000C00
060000000C00
040000000C00
040000000800
0C0000001800
0C0000001800
0C0000001800
0FFFFFFFF800
0FFFFFFFF800
180000001000
180000003000
180000003000
180000003000
180000003000
100000003000
300000002000
300000006000
300000006000
300000006000
300000006000
200000004000
600000004000
60000000C000
60000000C000
60000000C000
60000000C000
400000008000
C00000018000
C00000018000
C00000018000
C00000018000
800000018000
ENDCHAR
STARTCHAR 0127
ENCODING 295
SWIDTH 540 0
DWIDTH 36 0
BBX 29 50 3 0
BITMAP
00400000
00C00000
00C00000
00C00000
00C00000
00800000
00800000
1FFFFC00
01800000
01800000
01800000
01000000
03000000
03000000
03007E00
0303FF80
030F00E0
021C0060
06300030
06600030
06C00018
07800018
07000018
07000018
0E000018
0E000018
0C000018
0C000018
08000010
08000010
18000030
18000030
18000030
18000030
10000020
10000020
30000060
30000060
30000060
30000060
20000040
600000C0
600000C0
600000C0
600000C0
600000C0
40000080
C0000180
C0000180
C0000180
ENDCHAR
STARTCHAR 0128
ENCODING 296
SWIDTH 240 0
DWIDTH 16 0
BBX 21 59 4 0
BITMAP
030008
1FC018
38E018
703030
601FE0
4007C0
000000
000000
000000
000000
000000
000000
00C000
00C000
00C000
008000
008000
018000
018000
018000
018000
010000
030000
030000
030000
030000
030000
020000
060000
060000
060000
060000
060000
040000
0C0000
0C0000
0C0000
0C0000
0C0000
080000
180000
180000
180000
180000
100000
100000
300000
300000
300000
300000
200000
600000
600000
600000
600000
600000
400000
C00000
C00000
ENDCHAR
STARTCHAR 0129
ENCODING 297
SWIDTH 180 0
DWIDTH 12 0
BBX 21 48 1 0
BITMAP
000018
1F8010
39C030
606060
C039E0
C01FC0
000000
000000
000000
000000
000000
000000
000000
018000
018000
018000
018000
010000
030000
030000
030000
030000
030000
020000
060000
060000
060000
060000
040000
040000
0C0000
0C0000
0C0000
0C0000
080000
180000
180000
180000
180000
180000
100000
300000
300000
300000
300000
300000
200000
600000
ENDCHAR
STARTCHAR 012A
ENCODING 298
SWIDTH 240 0
DWIDTH 16 0
BBX 20 58 4 0
BITMAP
3FFFF0
3FFFF0
000000
000000
000000
000000
000000
000000
000000
000000
000000
00C000
00C000
00C000
008000
008000
018000
018000
018000
018000
010000
030000
030000
030000
030000
030000
020000
060000
060000
060000
060000
060000
040000
0C0000
0C0000
0C0000
0C0000
0C0000
080000
180000
180000
180000
180000
100000
100000
300000
300000
300000
300000
200000
600000
600000
600000
600000
600000
400000
C00000
C00000
ENDCHAR
STARTCHAR 012B
ENCODING 299
SWIDTH 180 0
DWIDTH 12 0
BBX 18 46 2 0
BITMAP
FFFFC0
000000
000000
000000
000000
000000
000000
000000
000000
000000
000000
030000
030000
030000
030000
020000
060000
060000
060000
060000
060000
040000
0C0000
0C0000
0C0000
0C0000
080000
080000
180000
180000
180000
180000
100000
300000
300000
300000
300000
300000
200000
600000
600000
600000
600000
600000
400000
C00000
ENDCHAR
STARTCHAR 012C
ENCODING 300
SWIDTH 240 0
DWIDTH 16 0
BBX 20 59 4 0
BITMAP
300030
300030
300060
100060
1800C0
0C0380
07FF00
03FC00
000000
000000
000000
000000
00C000
00C000
00C000
008000
008000
018000
018000
018000
018000
010000
030000
030000
030000
030000
030000
020000
060000
060000
060000
060000
060000
040000
0C0000
0C0000
0C0000
0C0000
0C0000
080000
180000
180000
180000
180000
100000
100000
300000
300000
300000
300000
200000
600000
600000
600000
600000
600000
400000
C00000
C00000
ENDCHAR
STARTCHAR 012D
ENCODING 301
SWIDTH 180 0
DWIDTH 12 0
BBX 18 48 2 0
BITMAP
C000C0
C000C0
400080
600180
600300
300600
1FFC00
0FF000
000000
000000
000000
000000
000000
030000
030000
030000
030000
020000
060000
060000
060000
060000
060000
040000
0C0000
0C0000
0C0000
0C0000
080000
080000
180000
180000
180000
180000
100000
300000
300000
300000
300000
300000
200000
600000
600000
600000
600000
600000
400000
C00000
ENDCHAR
STARTCHAR 012E
ENCODING 302
SWIDTH 240 0
DWIDTH 16 0
BBX 17 60 -3 -13
BITMAP
000180
000180
000180
000100
000100
000300
000300
000300
000300
000200
000600
000600
000600
000600
000600
000400
000C00
000C00
000C00
000C00
000C00
000800
001800
001800
001800
001800
001800
001000
003000
003000
003000
003000
002000
002000
006000
006000
006000
006000
004000
00C000
00C000
00C000
00C000
00C000
008000
018000
018000
030000
060000
1C0000
380000
300000
600000
C00000
C00000
C00000
C00000
C10000
7F0000
3C0000
ENDCHAR
STARTCHAR 012F
ENCODING 303
SWIDTH 195 0
DWIDTH 13 0
BBX 18 61 -5 -13
BITMAP
0001C0
0001C0
0001C0
000080
000000
000000
000000
000000
000000
000000
000000
000000
000000
000600
000600
000600
000600
000400
000400
000C00
000C00
000C00
000C00
000800
000800
001800
001800
001800
001800
001000
003000
003000
003000
003000
003000
002000
006000
006000
006000
006000
006000
004000
00C000
00C000
00C000
00C000
00C000
008000
038000
060000
0C0000
180000
300000
600000
400000
C00000
C00000
C00000
E10000
7F0000
3C0000
ENDCHAR
STARTCHAR 0130
ENCODING 304
SWIDTH 240 0
DWIDTH 16 0
BBX 13 58 4 0
BITMAP
0030
0078
0070
0030
0000
0000
0000
0000
0000
0000
0000
00C0
00C0
00C0
0080
0080
0180
0180
0180
0180
0100
0300
0300
0300
0300
0300
0200
0600
0600
0600
0600
0600
0400
0C00
0C00
0C00
0C00
0C00
0800
1800
1800
1800
1800
1000
1000
3000
3000
3000
3000
2000
6000
6000
6000
6000
6000
4000
C000
C000
ENDCHAR
STARTCHAR 0131
ENCODING 305
SWIDTH 180 0
DWIDTH 12 0
BBX 8 35 2 0
BITMAP
03
03
03
03
02
06
06
06
06
06
04
0C
0C
0C
0C
08
08
18
18
18
18
10
30
30
30
30
30
20
60
60
60
60
60
40
C0
ENDCHAR
STARTCHAR 0132
ENCODING 306
SWIDTH 780 0
DWIDTH 52 0
BBX 47 48 4 -1
BITMAP
00C000000006
00C000000006
00C000000006
008000000004
00800000000C
01800000000C
01800000000C
01800000000C
01800000000C
010000000008
030000000018
030000000018
030000000018
030000000018
030000000018
020000000010
060000000030
060000000030
060000000030
060000000030
060000000020
040000000060
0C0000000060
0C0000000060
0C0000000060
0C0000000060
0C0000000040
0800000000C0
1800000000C0
1800000000C0
1800000000C0
1800000000C0
100000000080
100000000180
300300000180
300300000180
300300000300
300300000300
200300000600
600100000600
600180000C00
600180001C00
6000C0003800
6000E0007000
40007000E000
C0003C078000
C0000FFE0000
000000F00000
ENDCHAR
STARTCHAR 0133
ENCODING 307
SWIDTH 405 0
DWIDTH 27 0
BBX 24 62 3 -14
BITMAP
01C006
01C00F
01C00E
008004
000000
000000
000000
000000
000000
000000
000000
000000
000000
060018
060010
060030
060030
040030
040030
0C0020
0C0020
0C0060
0C0060
080060
080060
180040
1800C0
1800C0
1800C0
1000C0
3000C0
300080
300180
300180
300180
200180
600180
600100
600300
600300
600300
400300
C00300
C00200
C00600
C00600
C00600
800600
000400
000C00
000C00
000C00
000C00
000C00
001800
001800
003000
003000
006000
01C000
FF8000
FE0000
ENDCHAR
STARTCHAR 0134
ENCODING 308
SWIDTH 525 0
DWIDTH 35 0
BBX 41 60 1 -1
BITMAP
000000006000
00000000F000
00000001F800
000000039800
000000060C00
0000000C0600
000000180700
000000300380
000000400000
000000000000
000000000000
000000000000
000000018000
000000018000
000000018000
000000018000
000000010000
000000030000
000000030000
000000030000
000000030000
000000030000
000000020000
000000060000
000000060000
000000060000
000000060000
000000040000
000000040000
0000000C0000
0000000C0000
0000000C0000
0000000C0000
000000080000
000000180000
000000180000
000000180000
000000180000
000000180000
000000100000
000000300000
000000300000
000000300000
000000300000
000000300000
000000200000
400000600000
C00000600000
C00000400000
C00000C00000
400000C00000
600001800000
600003000000
600007000000
30000E000000
38001C000000
1C0038000000
0F01E0000000
03FFC0000000
003C00000000
ENDCHAR
STARTCHAR 0135
ENCODING 309
SWIDTH 195 0
DWIDTH 13 0
BBX 29 62 -11 -14
BITMAP
00000600
00000F00
00001D80
000039C0
000060E0
0000C060
00018030
00030038
00000000
00000000
00000000
00000000
00000000
00001800
00001800
00001800
00001800
00001800
00001000
00003000
00003000
00003000
00003000
00002000
00002000
00006000
00006000
00006000
00006000
00004000
0000C000
0000C000
0000C000
0000C000
0000C000
00008000
00018000
00018000
00018000
00018000
00018000
00010000
00030000
00030000
00030000
00030000
00030000
00020000
00060000
00060000
00060000
00060000
00040000
000C0000
000C0000
00180000
00180000
00300000
00700000
00E00000
7F800000
FF000000
ENDCHAR
STARTCHAR 0136
ENCODING 310
SWIDTH 615 0
DWIDTH 41 0
BBX 39 57 3 -10
BITMAP
00C000001E
00C0000038
0080000070
01800000E0
01800001C0
0180000300
0180000600
0180001C00
0100003800
0300007000
030000E000
030001C000
0300030000
0200060000
02001C0000
0600380000
0600700000
0600E00000
0601C00000
0403000000
0C06000000
0C1E000000
0C3B000000
0C73800000
0CC1800000
0980C00000
1B00E00000
1E00600000
1800300000
1800380000
1800180000
10000C0000
30000E0000
3000060000
3000030000
3000038000
3000018000
200000C000
600000E000
6000006000
6000003000
6000003800
4000001800
4000000C00
C000000600
C000000600
C000000300
000C000000
000C000000
000C000000
000C000000
0018000000
0018000000
0030000000
0030000000
0060000000
0040000000
ENDCHAR
STARTCHAR 0137
ENCODING 311
SWIDTH 450 0
DWIDTH 30 0
BBX 29 60 2 -10
BITMAP
00400000
00C00000
00C00000
00C00000
00C00000
00800000
00800000
01800000
01800000
01800000
01800000
01000000
01000000
03000000
03000000
03000038
03000070
020000E0
06000180
06000300
06000E00
06001C00
06003800
04006000
0C01C000
0C038000
0C070000
0C0C0000
0C180000
08700000
18F00000
19F80000
1B180000
1E0C0000
1C0E0000
10060000
30030000
30038000
30018000
3000C000
2000E000
20006000
60003000
60003800
60001800
60000C00
40000C00
C0000600
C0000300
C0300300
00300000
00300000
00200000
00600000
00600000
00400000
00C00000
01800000
01800000
01000000
ENDCHAR
STARTCHAR 0138
ENCODING 312
SWIDTH 510 0
DWIDTH 34 0
BBX 31 35 2 0
BITMAP
0300000E
03000018
02000030
06000060
060000C0
06000380
06000700
06000E00
04001C00
0C003000
0C006000
0C00C000
0C018000
0C070000
080E0000
181C0000
1FF80000
1FF00000
18180000
100C0000
100E0000
30070000
30038000
30018000
3000C000
20006000
60003000
60003800
60001C00
60000C00
60000600
40000300
C0000180
C00000C0
C00000E0
ENDCHAR
STARTCHAR 0139
ENCODING 313
SWIDTH 495 0
DWIDTH 33 0
BBX 26 58 3 0
BITMAP
00018000
00030000
00060000
000C0000
001C0000
00180000
00300000
00600000
00000000
00000000
00000000
00C00000
00C00000
00800000
01800000
01800000
01800000
01800000
01800000
01000000
03000000
03000000
03000000
03000000
03000000
02000000
06000000
06000000
06000000
06000000
04000000
0C000000
0C000000
0C000000
0C000000
0C000000
08000000
18000000
18000000
18000000
18000000
18000000
10000000
30000000
30000000
30000000
30000000
30000000
20000000
60000000
60000000
60000000
60000000
60000000
40000000
C0000000
FFFFFFC0
FFFFFF80
ENDCHAR
STARTCHAR 013A
ENCODING 314
SWIDTH 195 0
DWIDTH 13 0
BBX 17 62 3 0
BITMAP
000180
000300
000600
000E00
000C00
001800
003000
006000
000000
000000
000000
000000
00C000
00C000
008000
018000
018000
018000
018000
018000
010000
030000
030000
030000
030000
030000
020000
060000
060000
060000
060000
040000
040000
0C0000
0C0000
0C0000
0C0000
080000
080000
180000
180000
180000
180000
100000
300000
300000
300000
300000
300000
200000
600000
600000
600000
600000
600000
400000
C00000
C00000
C00000
C00000
800000
800000
ENDCHAR
STARTCHAR 013B
ENCODING 315
SWIDTH 495 0
DWIDTH 33 0
BBX 26 60 3 -13
BITMAP
00C00000
00C00000
00800000
01800000
01800000
01800000
01800000
01800000
01000000
03000000
03000000
03000000
03000000
03000000
02000000
06000000
06000000
06000000
06000000
04000000
0C000000
0C000000
0C000000
0C000000
0C000000
08000000
18000000
18000000
18000000
18000000
18000000
10000000
30000000
30000000
30000000
30000000
30000000
20000000
60000000
60000000
60000000
60000000
60000000
40000000
C0000000
FFFFFFC0
FFFFFF80
00000000
00000000
00000000
000C0000
000C0000
00080000
00180000
00180000
00100000
00300000
00600000
00600000
00400000
ENDCHAR
STARTCHAR 013C
ENCODING 316
SWIDTH 195 0
DWIDTH 13 0
BBX 14 63 -1 -13
BITMAP
000C
000C
0008
0018
0018
0018
0018
0018
0010
0030
0030
0030
0030
0030
0020
0060
0060
0060
0060
0040
0040
00C0
00C0
00C0
00C0
0080
0080
0180
0180
0180
0180
0100
0300
0300
0300
0300
0300
0200
0600
0600
0600
0600
0600
0400
0C00
0C00
0C00
0C00
0800
0800
0000
0000
0000
1800
1800
1000
3000
3000
2000
6000
C000
C000
8000
ENDCHAR
STARTCHAR 013D
ENCODING 317
SWIDTH 495 0
DWIDTH 33 0
BBX 26 47 3 0
BITMAP
00C00600
00C00400
00800C00
01800C00
01800C00
01801800
01801800
01803000
01003000
03002000
03000000
03000000
03000000
03000000
02000000
06000000
06000000
06000000
06000000
04000000
0C000000
0C000000
0C000000
0C000000
0C000000
08000000
18000000
18000000
18000000
18000000
18000000
10000000
30000000
30000000
30000000
30000000
30000000
20000000
60000000
60000000
60000000
60000000
60000000
40000000
C0000000
FFFFFFC0
FFFFFF80
ENDCHAR
STARTCHAR 013E
ENCODING 318
SWIDTH 270 0
DWIDTH 18 0
BBX 18 50 3 0
BITMAP
00C040
00C0C0
0080C0
0180C0
0180C0
018180
018180
018300
010700
030600
030000
030000
030000
030000
020000
060000
060000
060000
060000
040000
040000
0C0000
0C0000
0C0000
0C0000
080000
080000
180000
180000
180000
180000
100000
300000
300000
300000
300000
300000
200000
600000
600000
600000
600000
600000
400000
C00000
C00000
C00000
C00000
800000
800000
ENDCHAR
STARTCHAR 013F
ENCODING 319
SWIDTH 495 0
DWIDTH 33 0
BBX 26 47 3 0
BITMAP
00C00000
00C00000
00800000
01800000
01800000
01800000
01800000
01800000
01000000
03000000
03000000
03000000
03000000
03000000
02000000
06000000
06000000
06000000
06000000
04000000
0C000000
0C007000
0C007800
0C007000
0C000000
08000000
18000000
18000000
18000000
18000000
18000000
10000000
30000000
30000000
30000000
30000000
30000000
20000000
60000000
60000000
60000000
60000000
60000000
40000000
C0000000
FFFFFFC0
FFFFFF80
ENDCHAR
STARTCHAR 0140
ENCODING 320
SWIDTH 300 0
DWIDTH 20 0
BBX 14 50 3 0
BITMAP
00C0
00C0
0080
0180
0180
0180
0180
0180
0100
0300
0300
0300
0300
0300
0200
0600
0600
0600
0600
0400
0400
0C00
0C0C
0C1C
0C1C
0818
0800
1800
1800
1800
1800
1000
3000
3000
3000
3000
3000
2000
6000
6000
6000
6000
6000
4000
C000
C000
C000
C000
8000
8000
ENDCHAR
STARTCHAR 0141
ENCODING 321
SWIDTH 495 0
DWIDTH 33 0
BBX 27 47 1 0
BITMAP
00200000
00600000
00600000
00600000
00600000
00600000
00400000
00C00000
00C00000
00C00000
00C00000
00C00000
00800000
01800000
01800000
01800000
01800000
01800000
01006000
0303E000
033F0000
03F80000
0FC00000
7F000000
E2000000
06000000
06000000
06000000
06000000
04000000
04000000
0C000000
0C000000
0C000000
0C000000
08000000
18000000
18000000
18000000
18000000
18000000
10000000
30000000
30000000
30000000
3FFFFFE0
3FFFFFE0
ENDCHAR
STARTCHAR 0142
ENCODING 322
SWIDTH 225 0
DWIDTH 15 0
BBX 16 50 1 0
BITMAP
0018
0018
0018
0018
0018
0010
0030
0030
0030
0030
0030
0020
0060
0060
0060
0060
0040
0040
00C0
00C0
00C3
00CF
00FC
03E0
0F80
7D80
E180
8180
0100
0300
0300
0300
0300
0300
0200
0600
0600
0600
0600
0600
0400
0C00
0C00
0C00
0C00
0800
0800
1800
1800
1800
ENDCHAR
STARTCHAR 0143
ENCODING 323
SWIDTH 675 0
DWIDTH 45 0
BBX 41 60 3 0
BITMAP
000000018000
000000030000
000000060000
0000000C0000
0000001C0000
000000380000
000000300000
000000600000
000000000000
000000000000
000000000000
000000000000
000000000000
00C000000180
00E000000180
00E000000180
01B000000180
01B000000100
019800000300
019800000300
018C00000300
010C00000300
030600000300
030600000200
030300000600
030300000600
030180000600
060180000600
0600C0000600
0600C0000400
060060000C00
060060000C00
060030000C00
0C0030000C00
0C0018000C00
0C0018000800
0C000C001800
0C000C001800
080006001800
180006001800
180003001800
180003003000
180001803000
180001803000
100000C03000
300000C03000
300000602000
300000606000
300000306000
300000306000
200000186000
600000186000
6000000C4000
6000000CC000
60000006C000
60000006C000
40000003C000
C0000003C000
C00000018000
C00000018000
ENDCHAR
STARTCHAR 0144
ENCODING 324
SWIDTH 525 0
DWIDTH 35 0
BBX 29 50 2 0
BITMAP
00000030
00000060
000000C0
00000180
00000300
00000700
00000600
00000C00
00001800
00000000
00000000
00000000
00000000
00000000
00007E00
0303FF80
030F00E0
021C0060
06300030
06600030
06C00018
07800018
07000018
07000018
0E000018
0E000018
0C000018
0C000018
0C000018
08000010
18000030
18000030
18000030
18000030
18000020
10000020
30000060
30000060
30000060
30000060
20000040
200000C0
600000C0
600000C0
600000C0
600000C0
40000080
C0000180
C0000180
C0000180
ENDCHAR
STARTCHAR 0145
ENCODING 325
SWIDTH 675 0
DWIDTH 45 0
BBX 41 60 3 -13
BITMAP
00C000000180
00E000000180
00E000000180
01B000000180
01B000000100
019800000300
019800000300
018C00000300
010C00000300
030600000300
030600000200
030300000600
030300000600
030180000600
060180000600
0600C0000600
0600C0000400
060060000C00
060060000C00
060030000C00
0C0030000C00
0C0018000C00
0C0018000800
0C000C001800
0C000C001800
080006001800
180006001800
180003001800
180003003000
180001803000
180001803000
100000C03000
300000C03000
300000602000
300000606000
300000306000
300000306000
200000186000
600000186000
6000000C4000
6000000CC000
60000006C000
60000006C000
40000003C000
C0000003C000
C00000018000
C00000018000
000000000000
000000000000
000000000000
000180000000
000180000000
000180000000
000300000000
000300000000
000300000000
000600000000
000600000000
000C00000000
000800000000
ENDCHAR
STARTCHAR 0146
ENCODING 326
SWIDTH 525 0
DWIDTH 35 0
BBX 29 49 2 -13
BITMAP
00007E00
0303FF80
030F00E0
021C0060
06300030
06600030
06C00018
07800018
07000018
07000018
0E000018
0E000018
0C000018
0C000018
0C000018
08000010
18000030
18000030
18000030
18000030
18000020
10000020
30000060
30000060
30000060
30000060
20000040
200000C0
600000C0
600000C0
600000C0
600000C0
40000080
C0000180
C0000180
C0000180
00000000
00000000
00000000
00180000
00180000
00180000
00180000
00100000
00300000
00300000
00600000
00C00000
00C00000
ENDCHAR
STARTCHAR 0147
ENCODING 327
SWIDTH 675 0
DWIDTH 45 0
BBX 41 60 3 0
BITMAP
000018006000
00001800C000
00000C018000
000006030000
000006060000
0000030C0000
000001B80000
000001F00000
000000E00000
000000000000
000000000000
000000000000
000000000000
00C000000180
00E000000180
00E000000180
01B000000180
01B000000100
019800000300
019800000300
018C00000300
010C00000300
030600000300
030600000200
030300000600
030300000600
030180000600
060180000600
0600C0000600
0600C0000400
060060000C00
060060000C00
060030000C00
0C0030000C00
0C0018000C00
0C0018000800
0C000C001800
0C000C001800
080006001800
180006001800
180003001800
180003003000
180001803000
180001803000
100000C03000
300000C03000
300000602000
300000606000
300000306000
300000306000
200000186000
600000186000
6000000C4000
6000000CC000
60000006C000
60000006C000
40000003C000
C0000003C000
C00000018000
C00000018000
ENDCHAR
STARTCHAR 0148
ENCODING 328
SWIDTH 525 0
DWIDTH 35 0
BBX 29 49 2 0
BITMAP
00030018
00030030
00018060
0000C0C0
0000C180
00006300
00003E00
00003C00
00000000
00000000
00000000
00000000
00000000
00007E00
0303FF80
030F00E0
021C0060
06300030
06600030
06C00018
07800018
07000018
07000018
0E000018
0E000018
0C000018
0C000018
0C000018
08000010
18000030
18000030
18000030
18000030
18000020
10000020
30000060
30000060
30000060
30000060
20000040
200000C0
600000C0
600000C0
600000C0
600000C0
40000080
C0000180
C0000180
C0000180
ENDCHAR
STARTCHAR 0149
ENCODING 329
SWIDTH 525 0
DWIDTH 35 0
BBX 29 50 2 0
BITMAP
0C000000
0C000000
0C000000
0C000000
08000000
18000000
18000000
30000000
60000000
60000000
00000000
00000000
00000000
00000000
00007E00
0303FF80
030F00E0
021C0060
06300030
06600030
06C00018
07800018
07000018
07000018
0E000018
0E000018
0C000018
0C000018
0C000018
08000010
18000030
18000030
18000030
18000030
18000020
10000020
30000060
30000060
30000060
30000060
20000040
200000C0
600000C0
600000C0
600000C0
600000C0
40000080
C0000180
C0000180
C0000180
ENDCHAR
STARTCHAR 014A
ENCODING 330
SWIDTH 675 0
DWIDTH 45 0
BBX 41 61 3 -14
BITMAP
00C000000180
00E000000180
00E000000180
01B000000180
01B000000100
019800000100
019800000300
018C00000300
010C00000300
030600000300
030600000200
030300000600
030300000600
020180000600
020180000600
0600C0000600
0600C0000400
060060000C00
060060000C00
040030000C00
0C0030000C00
0C0018000C00
0C0018000800
0C000C001800
0C000C001800
080006001800
180006001800
180003001800
180003001000
180001803000
180001803000
100000C03000
300000C03000
300000602000
300000606000
300000306000
300000306000
200000186000
600000186000
6000000C4000
6000000CC000
60000006C000
40000006C000
40000003C000
C0000003C000
C00000018000
C00000018000
000000018000
000000018000
000000018000
000000018000
000000030000
000000030000
000000030000
000000060000
000000060000
0000000C0000
000000180000
000000380000
00001FE00000
00003FC00000
ENDCHAR
STARTCHAR 014B
ENCODING 331
SWIDTH 525 0
DWIDTH 35 0
BBX 29 50 2 -14
BITMAP
0000FE00
0307FF80
020F01C0
02380060
06700030
06E00030
06C00030
07800010
07000018
07000018
0E000018
0E000018
0C000018
0C000018
08000010
08000010
18000030
18000030
18000030
18000030
10000020
30000020
30000060
30000060
30000060
30000060
20000040
600000C0
600000C0
600000C0
600000C0
600000C0
40000080
C0000180
C0000180
C0000180
00000180
00000180
00000100
00000300
00000300
00000300
00000600
00000600
00000C00
00000C00
00001800
00007000
003FE000
007F8000
ENDCHAR
STARTCHAR 014C
ENCODING 332
SWIDTH 645 0
DWIDTH 43 0
BBX 37 59 4 -1
BITMAP
0001FFFF80
0001FFFF80
0000000000
0000000000
0000000000
0000000000
0000000000
0000000000
0000000000
0000000000
00003FE000
0001FFF800
0007801E00
001E000700
0038000380
00700001C0
00E00000C0
01C0000060
0180000060
0300000030
0600000030
0600000030
0C00000010
0C00000010
1800000010
1800000018
1000000018
3000000018
3000000018
3000000010
2000000010
6000000030
6000000030
6000000030
6000000030
6000000020
4000000060
C000000060
C000000060
C000000060
C000000040
C0000000C0
C0000000C0
C000000080
C000000180
C000000180
C000000300
4000000300
6000000600
6000000C00
2000001C00
3000001800
1800003000
180000E000
0E0001C000
0700078000
03E03E0000
00FFF80000
0007000000
ENDCHAR
STARTCHAR 014D
ENCODING 333
SWIDTH 525 0
DWIDTH 35 0
BBX 31 48 2 -1
BITMAP
001FFFF8
001FFFF8
00000000
00000000
00000000
00000000
00000000
00000000
00000000
00000000
00000000
0001FC00
000FFF00
003C03C0
00F000E0
01C00070
03800030
07000018
06000018
0C00000C
1C00000C
1800000C
30000006
30000006
30000006
60000006
60000006
60000006
40000006
C0000004
C000000C
C000000C
C000000C
C000000C
C0000018
C0000018
C0000030
40000030
60000060
60000060
300000C0
30000180
18000300
1C000600
0E001C00
03C0F800
01FFE000
003C0000
ENDCHAR
STARTCHAR 014E
ENCODING 334
SWIDTH 645 0
DWIDTH 43 0
BBX 37 61 4 -1
BITMAP
0001800180
0001800180
0001800300
0001800300
0000C00600
0000E00C00
00007CF800
00001FF000
0000000000
0000000000
0000000000
0000000000
00003FE000
0001FFF800
0007801E00
001E000700
0038000380
00700001C0
00E00000C0
01C0000060
0180000060
0300000030
0600000030
0600000030
0C00000010
0C00000010
1800000010
1800000018
1000000018
3000000018
3000000018
3000000010
2000000010
6000000030
6000000030
6000000030
6000000030
6000000020
4000000060
C000000060
C000000060
C000000060
C000000040
C0000000C0
C0000000C0
C000000080
C000000180
C000000180
C000000300
4000000300
6000000600
6000000C00
2000001C00
3000001800
1800003000
180000E000
0E0001C000
0700078000
03E03E0000
00FFF80000
0007000000
ENDCHAR
STARTCHAR 014F
ENCODING 335
SWIDTH 525 0
DWIDTH 35 0
BBX 31 49 2 -1
BITMAP
00180018
00080018
000C0030
000C0070
000600E0
000783C0
0001FF00
00007800
00000000
00000000
00000000
00000000
0001FC00
000FFF00
003C03C0
00F000E0
01C00070
03800030
07000018
06000018
0C00000C
1C00000C
1800000C
30000006
30000006
30000006
60000006
60000006
60000006
40000006
C0000004
C000000C
C000000C
C000000C
C000000C
C0000018
C0000018
C0000030
40000030
60000060
60000060
300000C0
30000180
18000300
1C000600
0E001C00
03C0F800
01FFE000
003C0000
ENDCHAR
STARTCHAR 0150
ENCODING 336
SWIDTH 645 0
DWIDTH 43 0
BBX 37 62 4 -1
BITMAP
0000003038
0000006070
000000C0E0
00000181C0
0000030380
0000060700
00000C0E00
00001C1800
0000383000
0000706000
0000000000
0000000000
0000000000
00003FE000
0001FFF800
0007801E00
001E000700
0038000380
00700001C0
00E00000C0
01C0000060
0180000060
0300000030
0600000030
0600000030
0C00000010
0C00000010
1800000010
1800000018
1000000018
3000000018
3000000018
3000000010
2000000010
6000000030
6000000030
6000000030
6000000030
6000000020
4000000060
C000000060
C000000060
C000000060
C000000040
C0000000C0
C0000000C0
C000000080
C000000180
C000000180
C000000300
4000000300
6000000600
6000000C00
2000001C00
3000001800
1800003000
180000E000
0E0001C000
0700078000
03E03E0000
00FFF80000
0007000000
ENDCHAR
STARTCHAR 0151
ENCODING 337
SWIDTH 525 0
DWIDTH 35 0
BBX 34 51 2 -1
BITMAP
00000381C0
0000070300
00000E0600
00001C0C00
0000383800
0000707000
0000E0E000
0001C1C000
0001838000
0003070000
0000000000
0000000000
0000000000
0000000000
0001FC0000
000FFF0000
003C03C000
00F000E000
01C0007000
0380003000
0700001800
0600001800
0C00000C00
1C00000C00
1800000C00
3000000600
3000000600
3000000600
6000000600
6000000600
6000000600
4000000600
C000000400
C000000C00
C000000C00
C000000C00
C000000C00
C000001800
C000001800
C000003000
4000003000
6000006000
6000006000
300000C000
3000018000
1800030000
1C00060000
0E001C0000
03C0F80000
01FFE00000
003C000000
ENDCHAR
STARTCHAR 0152
ENCODING 338
SWIDTH 885 0
DWIDTH 59 0
BBX 59 49 3 -1
BITMAP
00007FFE00000000
0003FFFFFFFFFFE0
0007800300000000
001C000300000000
0038000300000000
0060000300000000
00C0000200000000
0180000600000000
0380000600000000
0300000600000000
0600000600000000
0600000600000000
0C00000400000000
0C00000C00000000
1800000C00000000
1800000C00000000
1800000C00000000
3000000C00000000
3000000800000000
3000001800000000
3000001800000000
3000001800000000
2000001800000000
6000001FFFFFF000
6000001FFFFFE000
6000003000000000
6000003000000000
4000003000000000
4000003000000000
C000002000000000
C000002000000000
C000006000000000
C000006000000000
C000006000000000
C000006000000000
C000004000000000
C00000C000000000
400000C000000000
600000C000000000
600000C000000000
600000C000000000
3000008000000000
3000018000000000
1800018000000000
0C00018000000000
0700018000000000
03C003FFFFFFE000
00FFFFFFFFFFE000
000FE00000000000
ENDCHAR
STARTCHAR 0153
ENCODING 339
SWIDTH 900 0
DWIDTH 60 0
BBX 57 37 2 -1
BITMAP
0001FC00001F8000
000FFF0000FFF000
003C03C003C03800
007000E007000C00
00C000700C000600
0180003818000300
0300001830000300
0600000C60000180
0C00000C60000180
0C00000CC0000180
1800000780000180
1800000780000180
3000000700000180
3000000700000180
6000000700000180
60000007FFFFFF80
60000007FFFFFF80
4000000600000000
4000000600000000
C000000400000000
C000000C00000000
C000000C00000000
C000000C00000000
C000001C00000000
C000001C00000000
C000003400000000
4000003600000000
6000006600000000
600000E600000000
200000C300000000
3000018300000000
1800030180001000
1C000E00C0007000
0E001C00E001E000
0780F800380F8000
01FFE0001FFE0000
001C000001E00000
ENDCHAR
STARTCHAR 0154
ENCODING 340
SWIDTH 630 0
DWIDTH 42 0
BBX 36 60 3 0
BITMAP
0000001800
0000003000
0000006000
000000E000
000000C000
0000018000
0000030000
0000060000
0000000000
0000000000
0000000000
0000000000
0000000000
00FFFFF000
008000FC00
0180000F00
0180000380
01800001C0
01800000C0
0180000060
0100000060
0300000020
0300000030
0300000030
0300000030
0300000030
0200000020
0600000060
0600000060
0600000060
06000000C0
04000000C0
0400000180
0C00000300
0C00000600
0C00000C00
0C00003800
080001E000
1FFFFF8000
1FFFFE0000
1800060000
1800030000
1800030000
1000018000
3000018000
3000018000
300000C000
300000C000
3000006000
2000006000
6000003000
6000003000
6000003800
6000001800
4000001800
4000000C00
C000000C00
C000000600
C000000600
C000000700
ENDCHAR
STARTCHAR 0155
ENCODING 341
SWIDTH 315 0
DWIDTH 21 0
BBX 23 50 2 0
BITMAP
00000E
00000C
000018
000030
000060
0000C0
000180
000180
000300
000000
000000
000000
000000
000000
0000F8
0307F8
031E00
023800
066000
06C000
068000
078000
070000
060000
0E0000
0C0000
0C0000
0C0000
0C0000
080000
180000
180000
180000
180000
100000
100000
300000
300000
300000
300000
200000
200000
600000
600000
600000
600000
400000
C00000
C00000
C00000
ENDCHAR
STARTCHAR 0156
ENCODING 342
SWIDTH 630 0
DWIDTH 42 0
BBX 36 60 3 -13
BITMAP
00FFFFF000
008000FC00
0180000F00
0180000380
01800001C0
01800000C0
0180000060
0100000060
0300000020
0300000030
0300000030
0300000030
0300000030
0200000020
0600000060
0600000060
0600000060
06000000C0
04000000C0
0400000180
0C00000300
0C00000600
0C00000C00
0C00003800
080001E000
1FFFFF8000
1FFFFE0000
1800060000
1800030000
1800030000
1000018000
3000018000
3000018000
300000C000
300000C000
3000006000
2000006000
6000003000
6000003000
6000003800
6000001800
4000001800
4000000C00
C000000C00
C000000600
C000000600
C000000700
0000000000
0000000000
0000000000
0018000000
0018000000
0018000000
0018000000
0030000000
0030000000
0060000000
0060000000
00C0000000
0080000000
ENDCHAR
STARTCHAR 0157
ENCODING 343
SWIDTH 315 0
DWIDTH 21 0
BBX 25 49 -2 -13
BITMAP
00000F80
00307F80
0031E000
00238000
00660000
006C0000
00680000
00780000
00700000
00600000
00E00000
00C00000
00C00000
00C00000
00C00000
00800000
01800000
01800000
01800000
01800000
01000000
01000000
03000000
03000000
03000000
03000000
02000000
02000000
06000000
06000000
06000000
06000000
04000000
0C000000
0C000000
0C000000
00000000
00000000
00000000
18000000
18000000
18000000
18000000
30000000
30000000
60000000
60000000
C0000000
80000000
ENDCHAR
STARTCHAR 0158
ENCODING 344
SWIDTH 630 0
DWIDTH 42 0
BBX 36 60 3 0
BITMAP
0001800600
0000C00C00
0000C01800
0000603000
0000306000
000030C000
0000198000
00000F0000
00000E0000
0000000000
0000000000
0000000000
0000000000
00FFFFF000
008000FC00
0180000F00
0180000380
01800001C0
01800000C0
0180000060
0100000060
0300000020
0300000030
0300000030
0300000030
0300000030
0200000020
0600000060
0600000060
0600000060
06000000C0
04000000C0
0400000180
0C00000300
0C00000600
0C00000C00
0C00003800
080001E000
1FFFFF8000
1FFFFE0000
1800060000
1800030000
1800030000
1000018000
3000018000
3000018000
300000C000
300000C000
3000006000
2000006000
6000003000
6000003000
6000003800
6000001800
4000001800
4000000C00
C000000C00
C000000600
C000000600
C000000700
ENDCHAR
STARTCHAR 0159
ENCODING 345
SWIDTH 315 0
DWIDTH 21 0
BBX 24 49 2 0
BITMAP
00C003
006006
00301C
003038
001870
000CE0
000FC0
000780
000000
000000
000000
000000
000000
0000F8
0307F8
031E00
023800
066000
06C000
068000
078000
070000
060000
0E0000
0C0000
0C0000
0C0000
0C0000
080000
180000
180000
180000
180000
100000
100000
300000
300000
300000
300000
200000
200000
600000
600000
600000
600000
400000
C00000
C00000
C00000
ENDCHAR
STARTCHAR 015A
ENCODING 346
SWIDTH 570 0
DWIDTH 38 0
BBX 36 62 2 -1
BITMAP
0000000600
0000000E00
0000001C00
0000001800
0000003000
0000006000
000000C000
0000018000
0000030000
0000000000
0000000000
0000000000
0000000000
00003FE000
0003FFF800
000F801E00
001C000700
0070000180
00E00000C0
01C0000060
0180000060
0300000020
0300000030
0200000030
0600000030
0600000030
0600000030
0600000000
0600000000
0300000000
0380000000
0180000000
00E0000000
0070000000
001E000000
0007C00000
0001F80000
00003E0000
000007C000
000000E000
0000003800
0000001C00
0000000E00
0000000600
0000000300
0000000300
0000000100
0000000100
C000000100
C000000300
C000000300
C000000300
C000000600
C000000600
6000000C00
6000001C00
3000003800
1C0000F000
0E0003C000
07E01F0000
00FFFC0000
000F800000
ENDCHAR
STARTCHAR 015B
ENCODING 347
SWIDTH 480 0
DWIDTH 32 0
BBX 27 51 2 -1
BITMAP
00000180
00000380
00000700
00000600
00000C00
00001800
00003000
00006000
0000C000
00000000
00000000
00000000
00000000
00000000
0007F000
003FFE00
00F00F00
01C00380
030000C0
060000E0
0C000060
0C000060
0C000060
08000060
08000000
08000000
0C000000
0C000000
07000000
03800000
00F00000
003F0000
0007C000
0000F800
00001C00
00000E00
00000700
00000300
00000180
00000180
00000180
80000180
C0000300
C0000300
C0000700
E0000600
60001C00
38007800
1F03F000
07FFC000
00780000
ENDCHAR
STARTCHAR 015C
ENCODING 348
SWIDTH 570 0
DWIDTH 38 0
BBX 36 61 2 -1
BITMAP
000001C000
000003E000
0000073000
00000E3800
0000181800
0000300C00
0000600600
0000C00700
0000000000
0000000000
0000000000
0000000000
00003FE000
0003FFF800
000F801E00
001C000700
0070000180
00E00000C0
01C0000060
0180000060
0300000020
0300000030
0200000030
0600000030
0600000030
0600000030
0600000000
0600000000
0300000000
0380000000
0180000000
00E0000000
0070000000
001E000000
0007C00000
0001F80000
00003E0000
000007C000
000000E000
0000003800
0000001C00
0000000E00
0000000600
0000000300
0000000300
0000000100
0000000100
C000000100
C000000300
C000000300
C000000300
C000000600
C000000600
6000000C00
6000001C00
3000003800
1C0000F000
0E0003C000
07E01F0000
00FFFC0000
000F800000
ENDCHAR
STARTCHAR 015D
ENCODING 349
SWIDTH 480 0
DWIDTH 32 0
BBX 27 50 2 -1
BITMAP
00007000
0000F800
0001DC00
00038C00
00070600
000C0300
00180380
003001C0
00000000
00000000
00000000
00000000
00000000
0007F000
003FFE00
00F00F00
01C00380
030000C0
060000E0
0C000060
0C000060
0C000060
08000060
08000000
08000000
0C000000
0C000000
07000000
03800000
00F00000
003F0000
0007C000
0000F800
00001C00
00000E00
00000700
00000300
00000180
00000180
00000180
80000180
C0000300
C0000300
C0000700
E0000600
60001C00
38007800
1F03F000
07FFC000
00780000
ENDCHAR
STARTCHAR 015E
ENCODING 350
SWIDTH 570 0
DWIDTH 38 0
BBX 36 62 2 -14
BITMAP
00003FE000
0003FFF800
000F801E00
001C000700
0070000180
00E00000C0
01C0000060
0180000060
0300000020
0300000030
0200000030
0600000030
0600000030
0600000030
0600000000
0600000000
0300000000
0380000000
0180000000
00E0000000
0070000000
001E000000
0007C00000
0001F80000
00003E0000
000007C000
000000E000
0000003800
0000001C00
0000000E00
0000000600
0000000300
0000000300
0000000100
0000000100
C000000100
C000000300
C000000300
C000000300
C000000600
C000000600
6000000C00
6000001C00
3000003800
1C0000F000
0E0003C000
07E01F0000
00FFFC0000
000F800000
0006000000
0006000000
0007800000
0003C00000
0000600000
0000600000
0000200000
0000600000
0000600000
0000E00000
0001C00000
000F800000
007E000000
ENDCHAR
STARTCHAR 015F
ENCODING 351
SWIDTH 480 0
DWIDTH 32 0
BBX 27 50 2 -14
BITMAP
0007F000
003FFE00
00F00F00
01C00380
030000C0
060000E0
0C000060
0C000060
0C000060
08000060
08000000
08000000
0C000000
0C000000
07000000
03800000
00F00000
003F0000
0007C000
0000F800
00001C00
00000E00
00000700
00000300
00000180
00000180
00000180
80000180
C0000300
C0000300
C0000700
E0000600
60001C00
38007800
1F03F000
07FFC000
00780000
00300000
00600000
007C0000
001E0000
00070000
00030000
00030000
00030000
00030000
00060000
001C0000
01F80000
03E00000
ENDCHAR
STARTCHAR 0160
ENCODING 352
SWIDTH 570 0
DWIDTH 38 0
BBX 36 61 2 -1
BITMAP
0000600300
0000300600
0000180C00
0000181800
00000C3000
0000066000
000006C000
0000038000
0000000000
0000000000
0000000000
0000000000
00003FE000
0003FFF800
000F801E00
001C000700
0070000180
00E00000C0
01C0000060
0180000060
0300000020
0300000030
0200000030
0600000030
0600000030
0600000030
0600000000
0600000000
0300000000
0380000000
0180000000
00E0000000
0070000000
001E000000
0007C00000
0001F80000
00003E0000
000007C000
000000E000
0000003800
0000001C00
0000000E00
0000000600
0000000300
0000000300
0000000100
0000000100
C000000100
C000000300
C000000300
C000000300
C000000600
C000000600
6000000C00
6000001C00
3000003800
1C0000F000
0E0003C000
07E01F0000
00FFFC0000
000F800000
ENDCHAR
STARTCHAR 0161
ENCODING 353
SWIDTH 480 0
DWIDTH 32 0
BBX 27 50 2 -1
BITMAP
001800E0
000C01C0
000E0300
00060600
00030C00
00019800
0001B000
0000E000
00000000
00000000
00000000
00000000
00000000
0007F000
003FFE00
00F00F00
01C00380
030000C0
060000E0
0C000060
0C000060
0C000060
08000060
08000000
08000000
0C000000
0C000000
07000000
03800000
00F00000
003F0000
0007C000
0000F800
00001C00
00000E00
00000700
00000300
00000180
00000180
00000180
80000180
C0000300
C0000300
C0000700
E0000600
60001C00
38007800
1F03F000
07FFC000
00780000
ENDCHAR
STARTCHAR 0162
ENCODING 354
SWIDTH 570 0
DWIDTH 38 0
BBX 36 61 6 -14
BITMAP
FFFFFFFFF0
0000600000
0000600000
0000400000
0000C00000
0000C00000
0000C00000
0000C00000
0000800000
0000800000
0001800000
0001800000
0001800000
0001800000
0001000000
0001000000
0003000000
0003000000
0003000000
0003000000
0002000000
0006000000
0006000000
0006000000
0006000000
0006000000
0004000000
000C000000
000C000000
000C000000
000C000000
000C000000
0008000000
0018000000
0018000000
0018000000
0018000000
0018000000
0010000000
0030000000
0030000000
0030000000
0030000000
0020000000
0020000000
0060000000
0060000000
0060000000
0040000000
00C0000000
00F8000000
001C000000
000E000000
0006000000
0006000000
0006000000
000C000000
001C000000
0038000000
07F0000000
0780000000
ENDCHAR
STARTCHAR 0163
ENCODING 355
SWIDTH 300 0
DWIDTH 20 0
BBX 16 59 4 -14
BITMAP
00C0
0080
0180
0180
0180
0180
0180
0100
0300
0300
FFFF
FFFF
0300
0200
0600
0600
0600
0600
0400
0400
0C00
0C00
0C00
0C00
0800
1800
1800
1800
1800
1800
1000
3000
3000
3000
3000
3000
2000
6000
6000
6000
6000
2000
3000
3800
1FE0
07C0
0C00
0C00
0F80
03C0
00C0
0040
0060
00C0
00C0
0180
0780
7E00
F800
ENDCHAR
STARTCHAR 0164
ENCODING 356
SWIDTH 570 0
DWIDTH 38 0
BBX 36 59 6 0
BITMAP
000E007000
000600E000
0003018000
0001830000
0001860000
0000CC0000
0000780000
0000700000
0000000000
0000000000
0000000000
0000000000
FFFFFFFFF0
0000600000
0000600000
0000400000
0000C00000
0000C00000
0000C00000
0000C00000
0000800000
0000800000
0001800000
0001800000
0001800000
0001800000
0001000000
0001000000
0003000000
0003000000
0003000000
0003000000
0002000000
0006000000
0006000000
0006000000
0006000000
0006000000
0004000000
000C000000
000C000000
000C000000
000C000000
000C000000
0008000000
0018000000
0018000000
0018000000
0018000000
0018000000
0010000000
0030000000
0030000000
0030000000
0030000000
0020000000
0020000000
0060000000
0060000000
ENDCHAR
STARTCHAR 0165
ENCODING 357
SWIDTH 315 0
DWIDTH 21 0
BBX 19 52 4 -1
BITMAP
000020
000020
000060
000060
000060
0000C0
00C0C0
008180
018180
018300
018000
018000
018000
010000
030000
030000
FFFF00
FFFF00
030000
020000
060000
060000
060000
060000
040000
040000
0C0000
0C0000
0C0000
0C0000
080000
180000
180000
180000
180000
180000
100000
300000
300000
300000
300000
300000
200000
600000
600000
600000
600000
200000
300000
380000
1FE000
03C000
ENDCHAR
STARTCHAR 0166
ENCODING 358
SWIDTH 570 0
DWIDTH 38 0
BBX 36 47 6 0
BITMAP
FFFFFFFFF0
0000600000
0000600000
0000400000
0000C00000
0000C00000
0000C00000
0000C00000
0000800000
0000800000
0001800000
0001800000
0001800000
0001800000
0001000000
0001000000
0003000000
0003000000
07FFFF0000
0003000000
0002000000
0006000000
0006000000
0006000000
0006000000
0006000000
0004000000
000C000000
000C000000
000C000000
000C000000
000C000000
0008000000
0018000000
0018000000
0018000000
0018000000
0018000000
0010000000
0030000000
0030000000
0030000000
0030000000
0020000000
0020000000
0060000000
0060000000
ENDCHAR
STARTCHAR 0167
ENCODING 359
SWIDTH 300 0
DWIDTH 20 0
BBX 18 46 2 -1
BITMAP
003000
002000
006000
006000
006000
006000
006000
004000
00C000
00C000
3FFFC0
3FFFC0
00C000
008000
018000
018000
018000
018000
010000
010000
030000
030000
030000
FFFFC0
020000
060000
060000
060000
060000
060000
040000
0C0000
0C0000
0C0000
0C0000
0C0000
080000
180000
180000
180000
180000
080000
0C0000
0E0000
07F800
00F000
ENDCHAR
STARTCHAR 0168
ENCODING 360
SWIDTH 645 0
DWIDTH 43 0
BBX 37 60 5 -1
BITMAP
00003000C0
0000FC00C0
0001C70180
0003018380
000600FF00
0006007E00
0000000000
0000000000
0000000000
0000000000
0000000000
0000000000
0600000018
0600000018
0600000018
0600000010
0600000030
0400000030
0C00000030
0C00000030
0C00000030
0C00000020
0C00000060
0800000060
1800000060
1800000060
1800000060
1800000040
10000000C0
10000000C0
30000000C0
30000000C0
30000000C0
3000000080
2000000180
6000000180
6000000180
6000000180
6000000100
6000000100
4000000300
C000000300
C000000300
C000000300
C000000200
C000000600
C000000600
C000000600
C000000C00
C000000C00
C000001800
6000003800
6000007000
7000006000
300001C000
1C00038000
0E000F0000
07C07C0000
01FFF00000
001F000000
ENDCHAR
STARTCHAR 0169
ENCODING 361
SWIDTH 525 0
DWIDTH 35 0
BBX 29 49 4 -1
BITMAP
000F8018
001FE018
00307030
00601C70
00600FE0
00C00300
00000000
00000000
00000000
00000000
00000000
00000000
00000000
0C000018
08000018
18000010
18000030
18000030
18000030
18000030
10000020
30000060
30000060
30000060
30000060
30000060
20000040
600000C0
600000C0
600000C0
600000C0
600000C0
40000080
C0000180
C0000180
C0000180
C0000180
C0000180
C0000300
C0000300
C0000700
C0000F00
C0000F00
60001B00
60007200
3000E600
1C078600
0FFE0600
00E00000
ENDCHAR
STARTCHAR 016A
ENCODING 362
SWIDTH 645 0
DWIDTH 43 0
BBX 37 59 5 -1
BITMAP
0001FFFF80
0003FFFF00
0000000000
0000000000
0000000000
0000000000
0000000000
0000000000
0000000000
0000000000
0000000000
0600000018
0600000018
0600000018
0600000010
0600000030
0400000030
0C00000030
0C00000030
0C00000030
0C00000020
0C00000060
0800000060
1800000060
1800000060
1800000060
1800000040
10000000C0
10000000C0
30000000C0
30000000C0
30000000C0
3000000080
2000000180
6000000180
6000000180
6000000180
6000000100
6000000100
4000000300
C000000300
C000000300
C000000300
C000000200
C000000600
C000000600
C000000600
C000000C00
C000000C00
C000001800
6000003800
6000007000
7000006000
300001C000
1C00038000
0E000F0000
07C07C0000
01FFF00000
001F000000
ENDCHAR
STARTCHAR 016B
ENCODING 363
SWIDTH 525 0
DWIDTH 35 0
BBX 29 48 4 -1
BITMAP
003FFFF0
003FFFF0
00000000
00000000
00000000
00000000
00000000
00000000
00000000
00000000
00000000
00000000
0C000018
08000018
18000010
18000030
18000030
18000030
18000030
10000020
30000060
30000060
30000060
30000060
30000060
20000040
600000C0
600000C0
600000C0
600000C0
600000C0
40000080
C0000180
C0000180
C0000180
C0000180
C0000180
C0000300
C0000300
C0000700
C0000F00
C0000F00
60001B00
60007200
3000E600
1C078600
0FFE0600
00E00000
ENDCHAR
STARTCHAR 016C
ENCODING 364
SWIDTH 645 0
DWIDTH 43 0
BBX 37 60 5 -1
BITMAP
0001800100
0001800300
0001800300
0001800600
0000C00E00
0000E01C00
00007FF000
00001FC000
0000000000
0000000000
0000000000
0000000000
0600000018
0600000018
0600000018
0600000010
0600000030
0400000030
0C00000030
0C00000030
0C00000030
0C00000020
0C00000060
0800000060
1800000060
1800000060
1800000060
1800000040
10000000C0
10000000C0
30000000C0
30000000C0
30000000C0
3000000080
2000000180
6000000180
6000000180
6000000180
6000000100
6000000100
4000000300
C000000300
C000000300
C000000300
C000000200
C000000600
C000000600
C000000600
C000000C00
C000000C00
C000001800
6000003800
6000007000
7000006000
300001C000
1C00038000
0E000F0000
07C07C0000
01FFF00000
001F000000
ENDCHAR
STARTCHAR 016D
ENCODING 365
SWIDTH 525 0
DWIDTH 35 0
BBX 29 50 4 -1
BITMAP
00300030
00300030
00300060
00300060
001800C0
001C01C0
000F8F00
0003FE00
00006000
00000000
00000000
00000000
00000000
00000000
0C000018
08000018
18000010
18000030
18000030
18000030
18000030
10000020
30000060
30000060
30000060
30000060
30000060
20000040
600000C0
600000C0
600000C0
600000C0
600000C0
40000080
C0000180
C0000180
C0000180
C0000180
C0000180
C0000300
C0000300
C0000700
C0000F00
C0000F00
60001B00
60007200
3000E600
1C078600
0FFE0600
00E00000
ENDCHAR
STARTCHAR 016E
ENCODING 366
SWIDTH 645 0
DWIDTH 43 0
BBX 37 62 5 -1
BITMAP
000003C000
00000FF000
00001C3000
0000181800
0000301800
0000301800
0000301800
0000303000
0000307000
00001FE000
00000F8000
0000000000
0000000000
0000000000
0600000018
0600000018
0600000018
0600000010
0600000030
0400000030
0C00000030
0C00000030
0C00000030
0C00000020
0C00000060
0800000060
1800000060
1800000060
1800000060
1800000040
10000000C0
10000000C0
30000000C0
30000000C0
30000000C0
3000000080
2000000180
6000000180
6000000180
6000000180
6000000100
6000000100
4000000300
C000000300
C000000300
C000000300
C000000200
C000000600
C000000600
C000000600
C000000C00
C000000C00
C000001800
6000003800
6000007000
7000006000
300001C000
1C00038000
0E000F0000
07C07C0000
01FFF00000
001F000000
ENDCHAR
STARTCHAR 016F
ENCODING 367
SWIDTH 525 0
DWIDTH 35 0
BBX 29 52 4 -1
BITMAP
00001000
0000FE00
0001C700
00030300
00030300
00060100
00060300
00060300
00030600
00038C00
0001F800
00000000
00000000
00000000
00000000
00000000
0C000018
08000018
18000010
18000030
18000030
18000030
18000030
10000020
30000060
30000060
30000060
30000060
30000060
20000040
600000C0
600000C0
600000C0
600000C0
600000C0
40000080
C0000180
C0000180
C0000180
C0000180
C0000180
C0000300
C0000300
C0000700
C0000F00
C0000F00
60001B00
60007200
3000E600
1C078600
0FFE0600
00E00000
ENDCHAR
STARTCHAR 0170
ENCODING 368
SWIDTH 645 0
DWIDTH 43 0
BBX 37 61 5 -1
BITMAP
0000007078
000000C0E0
000001C1C0
0000038380
0000070700
00000E0E00
00001C1C00
0000383800
0000706000
0000008000
0000000000
0000000000
0000000000
0600000018
0600000018
0600000018
0600000010
0600000030
0400000030
0C00000030
0C00000030
0C00000030
0C00000020
0C00000060
0800000060
1800000060
1800000060
1800000060
1800000040
10000000C0
10000000C0
30000000C0
30000000C0
30000000C0
3000000080
2000000180
6000000180
6000000180
6000000180
6000000100
6000000100
4000000300
C000000300
C000000300
C000000300
C000000200
C000000600
C000000600
C000000600
C000000C00
C000000C00
C000001800
6000003800
6000007000
7000006000
300001C000
1C00038000
0E000F0000
07C07C0000
01FFF00000
001F000000
ENDCHAR
STARTCHAR 0171
ENCODING 369
SWIDTH 525 0
DWIDTH 35 0
BBX 32 51 4 -1
BITMAP
00000607
00000C0E
0000181C
00003038
00007070
0000E0E0
0001C1C0
00038380
00070600
000E0C00
00000000
00000000
00000000
00000000
00000000
0C000018
08000018
18000010
18000030
18000030
18000030
18000030
10000020
30000060
30000060
30000060
30000060
30000060
20000040
600000C0
600000C0
600000C0
600000C0
600000C0
40000080
C0000180
C0000180
C0000180
C0000180
C0000180
C0000300
C0000300
C0000700
C0000F00
C0000F00
60001B00
60007200
3000E600
1C078600
0FFE0600
00E00000
ENDCHAR
STARTCHAR 0172
ENCODING 370
SWIDTH 645 0
DWIDTH 43 0
BBX 37 59 5 -12
BITMAP
0600000018
0600000018
0600000018
0600000010
0600000030
0400000030
0C00000030
0C00000030
0C00000030
0C00000020
0C00000060
0800000060
1800000060
1800000060
1800000060
1800000040
10000000C0
10000000C0
30000000C0
30000000C0
30000000C0
3000000080
2000000180
6000000180
6000000180
6000000180
6000000100
6000000100
4000000300
C000000300
C000000300
C000000300
C000000200
C000000600
C000000600
C000000600
C000000C00
C000000C00
C000001800
6000003800
6000007000
7000006000
300001C000
1C00038000
0E000F0000
07C07C0000
01FFF80000
001F600000
0000C00000
0001800000
0003000000
0006000000
0006000000
0004000000
000C000000
000C000000
0006100000
0007F00000
0001C00000
ENDCHAR
STARTCHAR 0173
ENCODING 371
SWIDTH 525 0
DWIDTH 35 0
BBX 29 48 4 -13
BITMAP
0C000018
08000018
18000010
18000030
18000030
18000030
18000030
10000020
30000060
30000060
30000060
30000060
30000060
20000040
600000C0
600000C0
600000C0
600000C0
600000C0
40000080
C0000180
C0000180
C0000180
C0000180
C0000180
C0000300
C0000300
C0000700
C0000F00
C0000F00
60001B00
60007200
3000E600
1C078600
0FFE0600
00E00C00
00003800
00006000
0000C000
00018000
00018000
00030000
00030000
00020000
00020000
00030C00
0003FC00
0000F000
ENDCHAR
STARTCHAR 0174
ENCODING 372
SWIDTH 870 0
DWIDTH 58 0
BBX 55 60 6 0
BITMAP
00000004000000
0000001E000000
0000003B000000
00000073800000
000000E1C00000
000001C0C00000
00000380600000
00000600700000
00000000000000
00000000000000
00000000000000
00000000000000
00000000000000
C0000038000006
C000003800000C
4000007800000C
60000078000018
600000C8000018
600000C8000018
6000008C000030
6000018C000030
6000018C000060
6000030C000060
6000030C000040
200006040000C0
200006040000C0
30000C06000180
30000C06000180
30001806000300
30001806000300
30001006000300
30003006000600
30003002000600
30006003000C00
10006003000C00
1800C003000800
1800C003001800
18018003001800
18018003003000
18030001003000
18030001006000
18030001806000
18060001806000
0806000180C000
080C000180C000
0C0C0001818000
0C180000818000
0C180000810000
0C300000C30000
0C300000C30000
0C300000C60000
0C600000C60000
04600000CC0000
04C00000CC0000
06C000004C0000
07800000580000
07800000780000
07000000700000
07000000700000
07000000600000
ENDCHAR
STARTCHAR 0175
ENCODING 373
SWIDTH 720 0
DWIDTH 48 0
BBX 43 49 5 0
BITMAP
000001C00000
000003C00000
00000E600000
00001C300000
000038380000
0000701C0000
0000E00C0000
0001C0060000
000000000000
000000000000
000000000000
000000000000
000000000000
000000000000
C00006000060
C0000E000060
60000E0000E0
60001A0000C0
60001A0000C0
600033000180
600033000180
600063000300
600063000300
6000C3000600
6000C3000600
300181000C00
300181800C00
300101801C00
300301801800
300201801800
300601803000
300401803000
300C00806000
300C00806000
101800C0C000
181800C0C000
183000C18000
183000C18000
186000C38000
186000430000
18C000430000
18C000660000
198000660000
0980006C0000
0B00006C0000
0B0000680000
0E0000380000
0E0000300000
0C0000300000
ENDCHAR
STARTCHAR 0176
ENCODING 374
SWIDTH 570 0
DWIDTH 38 0
BBX 36 59 6 0
BITMAP
0000380000
00007C0000
0000E60000
0001C70000
0003830000
0006018000
000C00C000
001800E000
0000000000
0000000000
0000000000
0000000000
C000000070
6000000060
60000000C0
7000000180
3000000380
3000000300
1800000600
1800000C00
0C00001C00
0C00001800
0C00003000
0600006000
060000E000
030000C000
0300018000
0100030000
0180060000
0180060000
00C00C0000
00C0180000
0040300000
0060300000
0060600000
0030C00000
0031800000
0011800000
001B000000
000E000000
000C000000
000C000000
000C000000
0008000000
0018000000
0018000000
0018000000
0018000000
0018000000
0010000000
0030000000
0030000000
0030000000
0030000000
0030000000
0020000000
0060000000
0060000000
0060000000
ENDCHAR
STARTCHAR 0177
ENCODING 375
SWIDTH 450 0
DWIDTH 30 0
BBX 35 63 -3 -14
BITMAP
000001C000
000003E000
0000066000
00001C3000
0000381800
0000701C00
0000E00C00
0001C00600
0000000000
0000000000
0000000000
0000000000
0000000000
0000000000
0180000060
0180000060
00800000C0
00C00000C0
00C0000180
00C0000300
00C0000300
0060000600
0060000600
0060000C00
0060000C00
0020001800
0030001800
0030003000
0030003000
0030006000
001800E000
001800C000
0018018000
0018018000
0008030000
000C030000
000C060000
000C060000
000C0C0000
00040C0000
0006180000
0006380000
0006300000
0002600000
0003600000
0003C00000
0003C00000
0003800000
0001800000
0003000000
0003000000
0006000000
0006000000
000C000000
000C000000
0018000000
0030000000
0030000000
0060000000
00C0000000
0380000000
FF00000000
FC00000000
ENDCHAR
STARTCHAR 0178
ENCODING 376
SWIDTH 570 0
DWIDTH 38 0
BBX 36 58 6 0
BITMAP
001C007000
001C007000
001C007000
0000000000
0000000000
0000000000
0000000000
0000000000
0000000000
0000000000
0000000000
C000000070
6000000060
60000000C0
7000000180
3000000380
3000000300
1800000600
1800000C00
0C00001C00
0C00001800
0C00003000
0600006000
060000E000
030000C000
0300018000
0100030000
0180060000
0180060000
00C00C0000
00C0180000
0040300000
0060300000
0060600000
0030C00000
0031800000
0011800000
001B000000
000E000000
000C000000
000C000000
000C000000
0008000000
0018000000
0018000000
0018000000
0018000000
0018000000
0010000000
0030000000
0030000000
0030000000
0030000000
0030000000
0020000000
0060000000
0060000000
0060000000
ENDCHAR
STARTCHAR 0179
ENCODING 377
SWIDTH 570 0
DWIDTH 38 0
BBX 39 60 0 0
BITMAP
0000000380
0000000600
0000000E00
0000001C00
0000001800
0000003000
0000006000
000000C000
0000000000
0000000000
0000000000
0000000000
0000000000
007FFFFFFE
0000000006
000000000C
0000000018
0000000030
0000000060
00000000E0
00000000C0
0000000180
0000000300
0000000600
0000000C00
0000001C00
0000001800
0000003000
0000006000
000000C000
0000018000
0000038000
0000030000
0000060000
00000C0000
0000180000
0000300000
0000700000
0000600000
0000C00000
0001800000
0003000000
0006000000
000E000000
000C000000
0018000000
0030000000
0060000000
00C0000000
01C0000000
0180000000
0300000000
0600000000
0C00000000
1800000000
3800000000
7000000000
6000000000
FFFFFFFF80
FFFFFFFF00
ENDCHAR
STARTCHAR 017A
ENCODING 378
SWIDTH 450 0
DWIDTH 30 0
BBX 31 50 -1 0
BITMAP
00000038
00000030
00000060
000000C0
00000180
00000300
00000600
00000600
00000C00
00000000
00000000
00000000
00000000
00000000
00000000
01FFFFFE
01FFFFFE
0000000C
00000018
00000030
00000060
000000E0
000001C0
00000180
00000300
00000600
00000C00
00001800
00003000
00006000
0000E000
0001C000
00018000
00030000
00060000
000C0000
00180000
00300000
00700000
00E00000
00C00000
01800000
03000000
06000000
0C000000
18000000
38000000
70000000
7FFFFFE0
FFFFFFE0
ENDCHAR
STARTCHAR 017B
ENCODING 379
SWIDTH 570 0
DWIDTH 38 0
BBX 39 58 0 0
BITMAP
0000004000
000000E000
000000E000
000000C000
0000000000
0000000000
0000000000
0000000000
0000000000
0000000000
0000000000
007FFFFFFE
0000000006
000000000C
0000000018
0000000030
0000000060
00000000E0
00000000C0
0000000180
0000000300
0000000600
0000000C00
0000001C00
0000001800
0000003000
0000006000
000000C000
0000018000
0000038000
0000030000
0000060000
00000C0000
0000180000
0000300000
0000700000
0000600000
0000C00000
0001800000
0003000000
0006000000
000E000000
000C000000
0018000000
0030000000
0060000000
00C0000000
01C0000000
0180000000
0300000000
0600000000
0C00000000
1800000000
3800000000
7000000000
6000000000
FFFFFFFF80
FFFFFFFF00
ENDCHAR
STARTCHAR 017C
ENCODING 380
SWIDTH 450 0
DWIDTH 30 0
BBX 31 47 -1 0
BITMAP
00000E00
00000E00
00000E00
00000000
00000000
00000000
00000000
00000000
00000000
00000000
00000000
00000000
01FFFFFE
01FFFFFE
0000000C
00000018
00000030
00000060
000000E0
000001C0
00000180
00000300
00000600
00000C00
00001800
00003000
00006000
0000E000
0001C000
00018000
00030000
00060000
000C0000
00180000
00300000
00700000
00E00000
00C00000
01800000
03000000
06000000
0C000000
18000000
38000000
70000000
7FFFFFE0
FFFFFFE0
ENDCHAR
STARTCHAR 017D
ENCODING 381
SWIDTH 570 0
DWIDTH 38 0
BBX 39 60 0 0
BITMAP
00003000C0
0000180180
0000180300
00000C0600
0000060C00
0000061800
0000033000
000001E000
000000C000
0000000000
0000000000
0000000000
0000000000
007FFFFFFE
0000000006
000000000C
0000000018
0000000030
0000000060
00000000E0
00000000C0
0000000180
0000000300
0000000600
0000000C00
0000001C00
0000001800
0000003000
0000006000
000000C000
0000018000
0000038000
0000030000
0000060000
00000C0000
0000180000
0000300000
0000700000
0000600000
0000C00000
0001800000
0003000000
0006000000
000E000000
000C000000
0018000000
0030000000
0060000000
00C0000000
01C0000000
0180000000
0300000000
0600000000
0C00000000
1800000000
3800000000
7000000000
6000000000
FFFFFFFF80
FFFFFFFF00
ENDCHAR
STARTCHAR 017E
ENCODING 382
SWIDTH 450 0
DWIDTH 30 0
BBX 31 49 -1 0
BITMAP
0003800C
00018038
0000C070
000060E0
000061C0
00003380
00001F00
00001E00
00000000
00000000
00000000
00000000
00000000
00000000
01FFFFFE
01FFFFFE
0000000C
00000018
00000030
00000060
000000E0
000001C0
00000180
00000300
00000600
00000C00
00001800
00003000
00006000
0000E000
0001C000
00018000
00030000
00060000
000C0000
00180000
00300000
00700000
00E00000
00C00000
01800000
03000000
06000000
0C000000
18000000
38000000
70000000
7FFFFFE0
FFFFFFE0
ENDCHAR
STARTCHAR 017F
ENCODING 383
SWIDTH 195 0
DWIDTH 13 0
BBX 22 51 2 0
BITMAP
0000F0
0007FC
001E00
003800
003000
006000
00C000
00C000
008000
018000
018000
018000
018000
010000
030000
030000
030000
030000
030000
020000
060000
060000
060000
060000
040000
0C0000
0C0000
0C0000
0C0000
0C0000
080000
180000
180000
180000
180000
180000
100000
300000
300000
300000
300000
300000
200000
600000
600000
600000
600000
400000
400000
C00000
C00000
ENDCHAR
STARTCHAR 018F
ENCODING 399
SWIDTH 675 0
DWIDTH 45 0
BBX 39 49 5 -1
BITMAP
00007FF000
0003FFFC00
001F000F00
0078000380
00E00000C0
0180000060
0100000030
0000000018
0000000018
0000000008
000000000C
000000000C
000000000C
0000000004
0000000006
0000000006
0000000006
0000000006
0000000006
0000000004
0000000004
000000000C
000000000C
000000000C
000000000C
FFFFFFFFFC
FFFFFFFFF8
C000000018
C000000018
C000000018
8000000030
8000000030
8000000030
8000000060
8000000060
80000000C0
C0000000C0
C000000180
C000000380
6000000300
6000000600
3000000C00
3800001800
1C00003000
0E0000E000
078003C000
01F01F0000
007FFC0000
0003800000
ENDCHAR
STARTCHAR 0192
ENCODING 402
SWIDTH 300 0
DWIDTH 20 0
BBX 34 65 -8 -14
BITMAP
0000000F00
0000007FC0
000001E000
0000038000
0000030000
0000060000
00000E0000
00000C0000
00000C0000
0000180000
0000180000
0000180000
0000180000
0000180000
0000100000
0000300000
000FFFF800
000FFFF800
0000300000
0000300000
0000200000
0000600000
0000600000
0000600000
0000600000
0000600000
0000600000
0000400000
0000C00000
0000C00000
0000C00000
0000C00000
0000C00000
0000800000
0001800000
0001800000
0001800000
0001800000
0001800000
0001800000
0001000000
0003000000
0003000000
0003000000
0003000000
0003000000
0002000000
0006000000
0006000000
0006000000
0006000000
0006000000
0004000000
0004000000
000C000000
000C000000
000C000000
0018000000
0018000000
0030000000
0030000000
0060000000
01C0000000
FF80000000
FE00000000
ENDCHAR
STARTCHAR 01A0
ENCODING 416
SWIDTH 675 0
DWIDTH 45 0
BBX 46 51 5 -1
BITMAP
00000000000C
00000000000C
00003FE0000C
0001FFF80008
0007801E0018
001E00070018
003800038030
00700001C060
00C00000C0C0
01C000006F80
018000007E00
030000002000
060000003000
060000003000
0C0000001000
0C0000001000
180000001000
180000001800
100000001800
300000001800
300000001000
300000001000
200000003000
600000003000
600000003000
600000003000
600000003000
400000002000
C00000006000
C00000006000
C00000006000
C00000006000
C00000004000
C0000000C000
C0000000C000
C00000008000
C00000018000
C00000018000
C00000030000
400000030000
600000060000
6000000C0000
6000001C0000
300000180000
180000300000
180000E00000
0E0001C00000
070007800000
03E03E000000
00FFF8000000
000F00000000
ENDCHAR
STARTCHAR 01A1
ENCODING 417
SWIDTH 525 0
DWIDTH 35 0
BBX 38 40 2 -1
BITMAP
000000000C
000000000C
0000000018
0001FC0018
000FFF0018
003C03C030
007000E060
01C00071C0
0380003F80
0300001800
0600001800
0C00000C00
1C00000C00
1800000400
3000000600
3000000600
3000000600
6000000600
6000000600
6000000600
4000000600
C000000400
C000000C00
C000000C00
C000000C00
C000000800
C000001800
C000001800
C000003000
C000003000
6000006000
600000E000
600001C000
3000018000
3800070000
1C000E0000
0E003C0000
0780F00000
01FFC00000
001C000000
ENDCHAR
STARTCHAR 01AF
ENCODING 431
SWIDTH 645 0
DWIDTH 43 0
BBX 47 51 5 0
BITMAP
000000000006
00000000000C
00000000000C
06000000180C
060000001818
060000001818
060000001030
060000003060
0400000031C0
0C0000003F80
0C0000003E00
0C0000003000
0C0000002000
0C0000006000
080000006000
180000006000
180000006000
180000006000
180000004000
10000000C000
10000000C000
30000000C000
30000000C000
30000000C000
300000008000
200000018000
600000018000
600000018000
600000018000
600000010000
600000010000
400000030000
C00000030000
C00000030000
C00000030000
C00000020000
C00000060000
C00000060000
C00000060000
C000000C0000
C000000C0000
C00000180000
600000380000
600000700000
700000600000
300001C00000
1C0003800000
0E000F000000
07C07C000000
01FFF0000000
001F00000000
ENDCHAR
STARTCHAR 01B0
ENCODING 432
SWIDTH 525 0
DWIDTH 35 0
BBX 37 40 4 -1
BITMAP
0000000018
0000000018
0000000030
0000000030
0C00001830
0800001860
18000010C0
1800003380
1800003F00
1800003C00
1800003000
1000002000
3000006000
3000006000
3000006000
3000006000
3000006000
2000004000
600000C000
600000C000
600000C000
600000C000
600000C000
4000008000
C000018000
C000018000
C000018000
C000018000
C000018000
C000030000
C000030000
C000070000
C0000F0000
C0000F0000
60001B0000
6000720000
3000E60000
1C07860000
0FFE060000
00E0000000
ENDCHAR
STARTCHAR 01F0
ENCODING 496
SWIDTH 195 0
DWIDTH 13 0
BBX 30 62 -11 -14
BITMAP
0003800C
00018018
0000C030
00006060
000060C0
00003180
00001B00
00001E00
00000C00
00000000
00000000
00000000
00000000
00001800
00001800
00001800
00001800
00001800
00001000
00003000
00003000
00003000
00003000
00002000
00002000
00006000
00006000
00006000
00006000
00004000
0000C000
0000C000
0000C000
0000C000
0000C000
00008000
00018000
00018000
00018000
00018000
00018000
00010000
00030000
00030000
00030000
00030000
00030000
00020000
00060000
00060000
00060000
00060000
00040000
000C0000
000C0000
00180000
00180000
00300000
00700000
00E00000
7F800000
FF000000
ENDCHAR
STARTCHAR 01FA
ENCODING 506
SWIDTH 570 0
DWIDTH 38 0
BBX 36 62 -2 0
BITMAP
00000000F0
00000001C0
0000000380
0000000700
0000000C00
0000001800
0000000000
0000000000
000000FC00
000001CE00
0000018600
0000030600
0000030600
0000030600
0000018C00
000001F800
000000E000
000001B000
000001B000
0000033000
0000033000
0000061000
0000061800
00000C1800
00000C1800
0000181800
0000180800
0000300C00
0000300C00
0000600C00
0000400C00
0000C00400
0001800600
0001800600
0003000600
0003000600
0006000200
0006000300
000C000300
000C000300
0018000300
0018000300
0030000100
0030000180
0060000180
00C0000180
00FFFFFF80
01FFFFFF80
01800000C0
03000000C0
03000000C0
06000000C0
0600000040
0C00000060
0C00000060
1800000060
1800000060
3000000020
2000000030
6000000030
C000000030
C000000030
ENDCHAR
STARTCHAR 01FB
ENCODING 507
SWIDTH 510 0
DWIDTH 34 0
BBX 30 53 1 -1
BITMAP
0000001C
00000030
00000060
000000C0
00000180
00000300
00000000
00000000
00001E00
00003F00
00006180
00004180
0000C180
0000C180
0000C300
00007F00
0001FC00
000FFF00
003C03C0
00E000E0
01C00060
03800030
07000030
06000018
0C000018
0C000018
00000018
00000010
00000010
00000030
00000030
00000030
0001FFF0
003FFFE0
01FC0060
07800060
0E000060
1C000060
30000060
60000040
600000C0
C00000C0
C00000C0
C00001C0
C00003C0
C0000380
C0000780
C0001D80
60003980
3000E180
1C07C180
0FFF0180
00F00000
ENDCHAR
STARTCHAR 01FC
ENCODING 508
SWIDTH 855 0
DWIDTH 57 0
BBX 60 60 -1 0
BITMAP
0000000000380000
0000000000300000
0000000000600000
0000000000C00000
0000000001800000
0000000003000000
0000000007000000
0000000006000000
0000000008000000
0000000000000000
0000000000000000
0000000000000000
0000000000000000
000000003FFFFFF0
0000000038000000
0000000068000000
00000000D8000000
00000001D8000000
0000000198000000
0000000318000000
0000000618000000
0000000E18000000
0000000C10000000
0000001810000000
0000003030000000
0000006030000000
0000006030000000
000000C030000000
0000018030000000
0000030020000000
0000030020000000
0000060060000000
00000C0060000000
0000180060000000
000018007FFFF800
000030007FFFF800
0000600060000000
0000C00040000000
0001C00040000000
00018000C0000000
00030000C0000000
00060000C0000000
000E0000C0000000
000C0000C0000000
001FFFFFC0000000
003FFFFF80000000
0070000180000000
0060000180000000
00C0000180000000
0180000180000000
0380000180000000
0300000180000000
0600000100000000
0C00000100000000
1C00000300000000
1800000300000000
3000000300000000
6000000300000000
E0000003FFFFFC00
C0000003FFFFFC00
ENDCHAR
STARTCHAR 01FD
ENCODING 509
SWIDTH 810 0
DWIDTH 54 0
BBX 52 51 1 -1
BITMAP
000000000C0000
00000000180000
00000000300000
00000000600000
00000000C00000
00000001800000
00000003800000
00000003000000
00000006000000
00000000000000
00000000000000
00000000000000
00000000000000
00000000000000
0001F80003F000
001FFE001FFE00
007C0380380700
00E001C0E00180
01C000C1C000C0
03000063800060
07000067000060
06000066000020
0C00002C000030
0C000038000030
0C000038000030
00000070000030
00000070000030
00000060000030
00000060000030
0001FFFFFFFFF0
007FFFFFFFFFE0
01F800C0000000
078000C0000000
0E0000C0000000
1C0000C0000000
380000C0000000
300000C0000000
600001C0000000
600001C0000000
C00001C0000000
C00001C0000000
C00001C0000000
C0000140000000
C0000360000000
C0000660000000
40000C30000200
60003818000E00
3000F01C003C00
1E07C00781F000
0FFF0003FFC000
00F000003C0000
ENDCHAR
STARTCHAR 01FE
ENCODING 510
SWIDTH 645 0
DWIDTH 43 0
BBX 42 64 2 -2
BITMAP
00000000C000
000000018000
000000030000
000000060000
0000000C0000
0000001C0000
000000180000
000000300000
000000000000
000000000000
000000000000
000000000000
000000000000
0000000000C0
00000FF80180
00007FFE0380
0001E0078300
00078001C600
000E0000EC00
001C00007800
003800003800
007000003800
006000007800
00C00000CC00
018000018C00
018000038C00
030000030400
030000060400
0600000C0400
0600001C0600
040000380600
0C0000300600
0C0000600400
0C0000C00400
080001C00400
180001800C00
180003000C00
180006000C00
18000C000C00
18001C000800
100018001800
300030001800
300060001800
3000C0001800
3001C0001000
300180003000
300300003000
300600002000
300E00006000
301C00006000
30180000C000
10300000C000
186000018000
18E000030000
08C000070000
0D8000060000
0700000C0000
060000380000
0F8000700000
0DC001E00000
18F80F800000
303FFE000000
6001C0000000
E00000000000
ENDCHAR
STARTCHAR 01FF
ENCODING 511
SWIDTH 525 0
DWIDTH 35 0
BBX 31 55 2 -5
BITMAP
000000C0
00000180
00000300
00000600
00000C00
00001800
00003800
00003000
00006000
00000000
00000006
0000000C
0000001C
00000018
0001FC30
000FFF70
003C03E0
007000E0
01C000F0
038001B0
03000318
06000318
0C00060C
1C000C0C
18000C04
30001806
30003806
30003006
60006006
6000E006
6000C006
40018006
C0018004
C003000C
C006000C
C006000C
C00C0008
C0180018
C0180018
C0300030
C0700030
60600060
60C000E0
61C001C0
31800180
3B000700
1F000E00
0E003C00
0F80F000
0DFFC000
181C0000
30000000
30000000
60000000
E0000000
ENDCHAR
STARTCHAR 0218
ENCODING 536
SWIDTH 570 0
DWIDTH 38 0
BBX 36 62 2 -14
BITMAP
00003FE000
0003FFF800
000F801E00
001C000700
0070000180
00E00000C0
01C0000060
0180000060
0300000020
0300000030
0200000030
0600000030
0600000030
0600000030
0600000000
0600000000
0300000000
0380000000
0180000000
00E0000000
0070000000
001E000000
0007C00000
0001F80000
00003E0000
000007C000
000000E000
0000003800
0000001C00
0000000E00
0000000600
0000000300
0000000300
0000000100
0000000100
C000000100
C000000300
C000000300
C000000300
C000000600
C000000600
6000000C00
6000001C00
3000003800
1C0000F000
0E0003C000
07E01F0000
00FFFC0000
000F800000
0000000000
0000000000
0000000000
0006000000
0006000000
0004000000
000C000000
000C000000
0008000000
0018000000
0030000000
0030000000
0020000000
ENDCHAR
STARTCHAR 0219
ENCODING 537
SWIDTH 480 0
DWIDTH 32 0
BBX 27 49 2 -14
BITMAP
0007F000
003FFE00
00F00F00
01C00380
030000C0
060000E0
0C000060
0C000060
0C000060
08000060
08000000
08000000
0C000000
0C000000
07000000
03800000
00F00000
003F0000
0007C000
0000F800
00001C00
00000E00
00000700
00000300
00000180
00000180
00000180
80000180
C0000300
C0000300
C0000700
E0000600
60001C00
38007800
1F03F000
07FFC000
00780000
00000000
00000000
00200000
00600000
00600000
00600000
00600000
00C00000
00C00000
01800000
01800000
03000000
ENDCHAR
STARTCHAR 021A
ENCODING 538
SWIDTH 570 0
DWIDTH 38 0
BBX 36 60 6 -14
BITMAP
FFFFFFFFF0
0000600000
0000600000
0000400000
0000C00000
0000C00000
0000C00000
0000C00000
0000800000
0000800000
0001800000
0001800000
0001800000
0001800000
0001000000
0001000000
0003000000
0003000000
0003000000
0003000000
0002000000
0006000000
0006000000
0006000000
0006000000
0006000000
0004000000
000C000000
000C000000
000C000000
000C000000
000C000000
0008000000
0018000000
0018000000
0018000000
0018000000
0018000000
0010000000
0030000000
0030000000
0030000000
0030000000
0020000000
0020000000
0060000000
0060000000
0000000000
0000000000
0000000000
00C0000000
00C0000000
00C0000000
00C0000000
0080000000
0180000000
0180000000
0300000000
0700000000
0600000000
ENDCHAR
STARTCHAR 021B
ENCODING 539
SWIDTH 300 0
DWIDTH 20 0
BBX 16 59 4 -14
BITMAP
00C0
0080
0180
0180
0180
0180
0180
0100
0300
0300
FFFF
FFFF
0300
0200
0600
0600
0600
0600
0400
0400
0C00
0C00
0C00
0C00
0800
1800
1800
1800
1800
1800
1000
3000
3000
3000
3000
3000
2000
6000
6000
6000
6000
2000
3000
3800
1FE0
03C0
0000
0000
0C00
0C00
0C00
0800
1800
1800
3000
3000
6000
E000
4000
ENDCHAR
STARTCHAR 0237
ENCODING 567
SWIDTH 195 0
DWIDTH 13 0
BBX 21 49 -11 -14
BITMAP
000018
000018
000018
000018
000018
000010
000030
000030
000030
000030
000020
000020
000060
000060
000060
000060
000040
0000C0
0000C0
0000C0
0000C0
0000C0
000080
000180
000180
000180
000180
000180
000100
000300
000300
000300
000300
000300
000200
000600
000600
000600
000600
000400
000C00
000C00
001800
001800
003000
007000
00E000
7F8000
FF0000
ENDCHAR
STARTCHAR 0259
ENCODING 601
SWIDTH 480 0
DWIDTH 32 0
BBX 29 37 1 -1
BITMAP
0007F000
003FFE00
00F80700
03C00180
070000C0
06000060
00000020
00000030
00000030
00000018
00000018
00000018
00000018
00000018
00000018
00000018
00000018
00000018
00000018
00000018
7FFFFFF0
60000030
60000030
40000020
C0000060
C0000060
400000C0
400000C0
60000180
60000300
30000700
30000E00
18001C00
1C007000
0781E000
03FF8000
00380000
ENDCHAR
STARTCHAR 02BC
ENCODING 700
SWIDTH 150 0
DWIDTH 10 0
BBX 6 12 6 37
BITMAP
0C
0C
0C
0C
08
18
18
30
30
60
E0
C0
ENDCHAR
STARTCHAR 02C6
ENCODING 710
SWIDTH 375 0
DWIDTH 25 0
BBX 16 8 9 41
BITMAP
01C0
03E0
0770
0C30
1818
300C
600E
C007
ENDCHAR
STARTCHAR 02C7
ENCODING 711
SWIDTH 360 0
DWIDTH 24 0
BBX 15 9 10 40
BITMAP
C006
E00C
6018
3030
1860
18C0
0D80
0700
0600
ENDCHAR
STARTCHAR 02C9
ENCODING 713
SWIDTH 375 0
DWIDTH 25 0
BBX 18 2 8 45
BITMAP
FFFFC0
FFFFC0
ENDCHAR
STARTCHAR 02D8
ENCODING 728
SWIDTH 405 0
DWIDTH 27 0
BBX 18 8 9 40
BITMAP
C000C0
C00180
C00180
600300
600600
381C00
1FF800
03C000
ENDCHAR
STARTCHAR 02D9
ENCODING 729
SWIDTH 195 0
DWIDTH 13 0
BBX 4 3 9 44
BITMAP
70
F0
70
ENDCHAR
STARTCHAR 02DA
ENCODING 730
SWIDTH 270 0
DWIDTH 18 0
BBX 11 12 8 39
BITMAP
0700
1F80
38C0
6060
C060
C060
C060
C040
C0C0
6380
3F00
0800
ENDCHAR
STARTCHAR 02DB
ENCODING 731
SWIDTH 210 0
DWIDTH 14 0
BBX 8 14 -2 -13
BITMAP
01
03
06
1C
30
60
60
C0
C0
C0
C0
C3
7F
3C
ENDCHAR
STARTCHAR 02DC
ENCODING 732
SWIDTH 375 0
DWIDTH 25 0
BBX 21 6 6 42
BITMAP
070008
1FC018
38E018
703830
601FE0
C007C0
ENDCHAR
STARTCHAR 02DD
ENCODING 733
SWIDTH 360 0
DWIDTH 24 0
BBX 20 10 8 40
BITMAP
006030
00C0E0
01C1C0
038380
070700
0E0E00
1C1C00
383800
707000
E0C000
ENDCHAR
STARTCHAR 02F3
ENCODING 755
SWIDTH 300 0
DWIDTH 20 0
BBX 9 8 1 -11
BITMAP
0E00
3F00
7380
C180
C180
E300
7F00
3C00
ENDCHAR
STARTCHAR 0300
ENCODING 768
SWIDTH 0 0
DWIDTH 0 0
BBX 6 9 -18 41
BITMAP
C0
60
60
30
30
18
18
0C
0C
ENDCHAR
STARTCHAR 0301
ENCODING 769
SWIDTH 0 0
DWIDTH 0 0
BBX 9 9 -14 41
BITMAP
0180
0300
0600
0C00
1800
3000
7000
6000
C000
ENDCHAR
STARTCHAR 0303
ENCODING 771
SWIDTH 0 0
DWIDTH 0 0
BBX 21 6 -22 42
BITMAP
0E0018
3F8030
70C030
E07060
C03FC0
800F80
ENDCHAR
STARTCHAR 0309
ENCODING 777
SWIDTH 0 0
DWIDTH 0 0
BBX 9 12 -15 40
BITMAP
F000
FE00
0700
0180
0180
0180
0300
0700
3E00
F800
C000
8000
ENDCHAR
STARTCHAR 030F
ENCODING 783
SWIDTH 0 0
DWIDTH 0 0
BBX 16 8 -25 41
BITMAP
E060
7030
3838
1C1C
0E0C
0606
0307
0183
ENDCHAR
STARTCHAR 0323
ENCODING 803
SWIDTH 0 0
DWIDTH 0 0
BBX 4 4 -25 -9
BITMAP
20
70
F0
60
ENDCHAR
STARTCHAR 0384
ENCODING 900
SWIDTH 240 0
DWIDTH 16 0
BBX 6 8 11 43
BITMAP
0C
18
18
30
30
60
60
C0
ENDCHAR
STARTCHAR 0385
ENCODING 901
SWIDTH 435 0
DWIDTH 29 0
BBX 17 10 11 44
BITMAP
007000
007000
006000
006000
00E000
00C000
E0C380
E0C380
E00380
400100
ENDCHAR
STARTCHAR 0386
ENCODING 902
SWIDTH 570 0
DWIDTH 38 0
BBX 36 51 -2 0
BITMAP
0000C00000
0001800000
0001800000
0003000000
0003006000
000600E000
000401B000
000C01B000
0008033000
0000033000
0000061000
0000061800
00000C1800
00000C1800
0000181800
0000180800
0000300C00
0000300C00
0000600C00
0000400C00
0000C00400
0001800600
0001800600
0003000600
0003000600
0006000200
0006000300
000C000300
000C000300
0018000300
0018000300
0030000100
0030000180
0060000180
00C0000180
00FFFFFF80
01FFFFFF80
01800000C0
03000000C0
03000000C0
06000000C0
0600000040
0C00000060
0C00000060
1800000060
1800000060
3000000020
2000000030
6000000030
C000000030
C000000030
ENDCHAR
STARTCHAR 0387
ENCODING 903
SWIDTH 210 0
DWIDTH 14 0
BBX 4 4 6 21
BITMAP
60
F0
F0
60
ENDCHAR
STARTCHAR 0388
ENCODING 904
SWIDTH 600 0
DWIDTH 40 0
BBX 40 51 2 0
BITMAP
0C00000000
1800000000
1800000000
3000000000
300FFFFFFF
600C000000
600C000000
C008000000
0018000000
0018000000
0018000000
0018000000
0018000000
0010000000
0030000000
0030000000
0030000000
0030000000
0030000000
0020000000
0060000000
0060000000
0060000000
0060000000
0060000000
0040000000
00FFFFFF80
00FFFFFF80
00C0000000
00C0000000
0080000000
0080000000
0180000000
0180000000
0180000000
0180000000
0100000000
0100000000
0300000000
0300000000
0300000000
0300000000
0200000000
0600000000
0600000000
0600000000
0600000000
0600000000
0400000000
0FFFFFFF00
0FFFFFFF00
ENDCHAR
STARTCHAR 0389
ENCODING 905
SWIDTH 720 0
DWIDTH 48 0
BBX 44 51 3 0
BITMAP
180000000000
180000000000
300000000000
300000000000
601800000030
401800000030
C01800000030
801000000030
003000000020
003000000060
003000000060
003000000060
003000000060
002000000040
006000000040
0060000000C0
0060000000C0
0060000000C0
0060000000C0
004000000080
00C000000080
00C000000180
00C000000180
00C000000180
00C000000180
008000000100
01FFFFFFFF00
01FFFFFFFF00
018000000300
018000000300
010000000300
010000000200
030000000600
030000000600
030000000600
030000000600
020000000600
020000000400
060000000C00
060000000C00
060000000C00
060000000C00
040000000C00
0C0000000800
0C0000001800
0C0000001800
0C0000001800
0C0000001800
080000001000
180000001000
180000003000
ENDCHAR
STARTCHAR 038A
ENCODING 906
SWIDTH 300 0
DWIDTH 20 0
BBX 14 51 3 0
BITMAP
0C00
0C00
1800
1000
300C
200C
600C
400C
C00C
0008
0018
0018
0018
0018
0018
0010
0030
0030
0030
0030
0020
0020
0060
0060
0060
0060
0040
00C0
00C0
00C0
00C0
00C0
0080
0180
0180
0180
0180
0180
0100
0300
0300
0300
0300
0300
0200
0600
0600
0600
0600
0400
0400
ENDCHAR
STARTCHAR 038C
ENCODING 908
SWIDTH 645 0
DWIDTH 43 0
BBX 36 52 5 -1
BITMAP
0E00000000
0C00000000
1800000000
18007FC000
3003FFF800
3007801C00
601C000700
6038000300
C060000180
00C00000C0
01800000C0
0300000060
0300000060
0600000020
0C00000030
0C00000030
1800000030
1800000030
1000000030
3000000030
3000000030
2000000030
6000000030
6000000030
6000000030
6000000030
6000000020
4000000060
C000000060
C000000060
C000000060
C000000060
C000000040
80000000C0
80000000C0
8000000080
8000000180
8000000180
C000000300
C000000300
C000000600
C000000600
6000000C00
6000001800
3000003800
3000007000
180000E000
0C0001C000
0700070000
03C03E0000
00FFF00000
0006000000
ENDCHAR
STARTCHAR 038E
ENCODING 910
SWIDTH 615 0
DWIDTH 41 0
BBX 43 51 2 0
BITMAP
0C0000000000
180000000000
180000000000
300000000000
31C000000060
60C0000000C0
60E000000180
C06000000380
806000000300
003000000600
003000000C00
003800001C00
001800001800
001800003000
000C00006000
000C0000E000
00040000C000
000600018000
000600030000
000300060000
000300060000
0001000C0000
000180180000
000180300000
0000C0300000
0000C0600000
000040C00000
000061800000
000021800000
000033000000
000036000000
00001C000000
00001C000000
000018000000
000018000000
000018000000
000018000000
000010000000
000030000000
000030000000
000030000000
000030000000
000020000000
000020000000
000060000000
000060000000
000060000000
000060000000
000040000000
000040000000
0000C0000000
ENDCHAR
STARTCHAR 038F
ENCODING 911
SWIDTH 630 0
DWIDTH 42 0
BBX 39 51 1 0
BITMAP
0060000000
0060000000
00C0000000
00C007F800
01803FFF00
0180F00380
0301C001C0
0203000060
0606000030
000C000030
0018000018
0030000018
007000000C
006000000C
00C000000C
00C000000C
0180000004
0180000004
0180000004
0300000006
0300000004
0300000004
0200000004
060000000C
060000000C
060000000C
060000000C
0400000008
0400000018
0C00000018
0C00000018
0C00000010
0C00000030
0C00000030
0C00000020
0C00000060
0400000060
06000000C0
06000000C0
0600000180
0200000300
0300000700
0300000600
0180000C00
01C0001800
00C0007000
006000E000
003803C000
001C070000
FFFC07FFC0
FFFC0FFFC0
ENDCHAR
STARTCHAR 0390
ENCODING 912
SWIDTH 255 0
DWIDTH 17 0
BBX 17 53 2 0
BITMAP
007000
007000
006000
006000
00E000
00C000
E0C380
E0C380
E00380
000000
000000
000000
000000
000000
000000
000000
000000
000000
030000
030000
020000
060000
060000
060000
060000
060000
040000
0C0000
0C0000
0C0000
0C0000
080000
180000
180000
180000
180000
180000
100000
300000
300000
300000
300000
300000
200000
600000
600000
600000
600000
600000
200000
300000
1FE000
0FE000
ENDCHAR
STARTCHAR 0391
ENCODING 913
SWIDTH 570 0
DWIDTH 38 0
BBX 36 47 -2 0
BITMAP
0000006000
000000E000
000001B000
000001B000
0000033000
0000033000
0000061000
0000061800
00000C1800
00000C1800
0000181800
0000180800
0000300C00
0000300C00
0000600C00
0000400C00
0000C00400
0001800600
0001800600
0003000600
0003000600
0006000200
0006000300
000C000300
000C000300
0018000300
0018000300
0030000100
0030000180
0060000180
00C0000180
00FFFFFF80
01FFFFFF80
01800000C0
03000000C0
03000000C0
06000000C0
0600000040
0C00000060
0C00000060
1800000060
1800000060
3000000020
2000000030
6000000030
C000000030
C000000030
ENDCHAR
STARTCHAR 0392
ENCODING 914
SWIDTH 585 0
DWIDTH 39 0
BBX 33 47 3 0
BITMAP
00FFFFC000
00C003F800
0080001C00
0180000600
0180000300
0180000180
0180000180
0180000180
0100000080
0300000080
0300000080
0300000180
0300000180
0200000180
0200000180
0600000300
0600000700
0600000600
0600000C00
0400003800
040000F000
0C0007C000
0FFFFE0000
0FFFFFC000
0C0000F000
0800003800
1800001C00
1800000C00
1800000600
1800000600
1800000200
1000000300
3000000300
3000000200
3000000200
3000000600
3000000600
2000000400
6000000C00
6000001800
6000001800
6000003000
400000E000
400001C000
C0000F0000
FFFFFC0000
FFFFE00000
ENDCHAR
STARTCHAR 0393
ENCODING 915
SWIDTH 525 0
DWIDTH 35 0
BBX 35 47 3 0
BITMAP
00FFFFFFE0
0080000000
0180000000
0180000000
0180000000
0180000000
0100000000
0100000000
0300000000
0300000000
0300000000
0300000000
0200000000
0200000000
0600000000
0600000000
0600000000
0600000000
0400000000
0C00000000
0C00000000
0C00000000
0C00000000
0C00000000
0800000000
1800000000
1800000000
1800000000
1800000000
1000000000
1000000000
3000000000
3000000000
3000000000
3000000000
2000000000
2000000000
6000000000
6000000000
6000000000
6000000000
4000000000
4000000000
C000000000
C000000000
C000000000
C000000000
ENDCHAR
STARTCHAR 0394
ENCODING 916
SWIDTH 660 0
DWIDTH 44 0
BBX 40 47 -1 0
BITMAP
0000001800
0000003C00
0000006C00
0000006C00
000000CC00
000000C600
0000018600
0000030600
0000030600
0000060200
0000060300
00000C0300
0000080300
0000180100
0000300180
0000300180
0000600180
0000600080
0000C000C0
00018000C0
00018000C0
0003000040
0003000060
0006000060
0006000060
000C000060
0018000030
0018000030
0030000030
0030000030
0060000018
00C0000018
00C0000018
0180000018
0180000008
030000000C
030000000C
060000000C
0C00000004
0C00000006
1800000006
1800000006
3000000002
6000000003
6000000003
FFFFFFFFFF
FFFFFFFFFF
ENDCHAR
STARTCHAR 0395
ENCODING 917
SWIDTH 540 0
DWIDTH 36 0
BBX 36 47 3 0
BITMAP
00FFFFFFF0
00C0000000
0080000000
0180000000
0180000000
0180000000
0180000000
0180000000
0100000000
0300000000
0300000000
0300000000
0300000000
0200000000
0200000000
0600000000
0600000000
0600000000
0600000000
0400000000
0C00000000
0C00000000
0FFFFFF800
0FFFFFF800
0C00000000
0800000000
1800000000
1800000000
1800000000
1800000000
1800000000
1000000000
3000000000
3000000000
3000000000
3000000000
3000000000
2000000000
6000000000
6000000000
6000000000
6000000000
4000000000
4000000000
C000000000
FFFFFFF000
FFFFFFF000
ENDCHAR
STARTCHAR 0396
ENCODING 918
SWIDTH 570 0
DWIDTH 38 0
BBX 39 47 0 0
BITMAP
007FFFFFFE
0000000006
000000000C
0000000018
0000000030
0000000060
00000000E0
00000000C0
0000000180
0000000300
0000000600
0000000C00
0000001C00
0000001800
0000003000
0000006000
000000C000
0000018000
0000038000
0000030000
0000060000
00000C0000
0000180000
0000300000
0000700000
0000600000
0000C00000
0001800000
0003000000
0006000000
000E000000
000C000000
0018000000
0030000000
0060000000
00C0000000
01C0000000
0180000000
0300000000
0600000000
0C00000000
1800000000
3800000000
7000000000
6000000000
FFFFFFFF80
FFFFFFFF00
ENDCHAR
ENDFONT
